# Blender v2.82 (sub 7) OBJ File: 'Ostrich.blend'
# www.blender.org
mtllib Ostrich_000218.mtl
o Cube_Cube.001
v -0.242348 0.051792 0.400000
v -0.258246 0.451476 0.400000
v -0.242348 0.051792 -0.400000
v -0.258246 0.451476 -0.400000
v 0.257257 0.071664 0.400000
v 0.241359 0.471348 0.400000
v 0.257257 0.071664 -0.400000
v 0.241359 0.471348 -0.400000
v -0.101906 0.242062 -0.300000
v -0.056115 0.881986 -0.344000
v -0.101906 0.242062 -0.500000
v -0.056115 0.881986 -0.456000
v 0.098093 0.241502 -0.300000
v 0.055885 0.881672 -0.344000
v 0.098093 0.241502 -0.500000
v 0.055885 0.881672 -0.456000
v -0.119199 0.015742 0.500000
v -0.103289 0.415712 0.500000
v -0.119199 0.015742 0.400000
v -0.103289 0.415712 0.400000
v 0.080643 0.007793 0.500000
v 0.096553 0.407763 0.500000
v 0.080643 0.007793 0.400000
v 0.096553 0.407763 0.400000
v -0.069751 1.012024 -0.320000
v -0.069779 1.002024 -0.500000
v 0.070248 1.011632 -0.320000
v 0.070220 1.001633 -0.500000
v -0.070171 0.862025 -0.320000
v -0.070171 0.862025 -0.500000
v 0.069829 0.861633 -0.320000
v 0.069829 0.861633 -0.500000
v -0.039891 0.961940 -0.600000
v 0.040109 0.961717 -0.600000
v -0.040115 0.881941 -0.600000
v 0.039885 0.881717 -0.600000
v -0.020001 0.922723 -0.700000
v 0.019999 0.922611 -0.700000
v -0.020087 0.891885 -0.700000
v 0.019913 0.891773 -0.700000
v 0.100000 -0.264146 0.149647
v 0.052216 0.263745 0.094262
v 0.090000 -0.331438 0.106383
v 0.054054 0.077632 0.021060
v 0.200000 -0.264146 0.149647
v 0.252188 0.266475 0.092344
v 0.210000 -0.331438 0.106383
v 0.254026 0.080361 0.019142
v -0.200000 -0.500134 -0.040000
v -0.246604 0.194643 0.142894
v -0.210000 -0.500134 -0.120000
v -0.246804 0.115873 -0.040940
v -0.100000 -0.500134 -0.040000
v -0.046612 0.196231 0.141996
v -0.090000 -0.500134 -0.120000
v -0.046812 0.117460 -0.041838
v 0.108648 0.027508 0.432050
v 0.108096 -0.004906 0.337451
v 0.208094 -0.005183 0.336961
v 0.208647 0.027230 0.431561
v -0.193019 -0.191586 0.219582
v -0.193911 -0.185564 0.119768
v -0.093915 -0.185653 0.118868
v -0.093023 -0.191676 0.218683
v -0.091010 0.562057 -0.310000
v -0.091010 0.562057 -0.490000
v 0.088989 0.561554 -0.490000
v 0.088989 0.561554 -0.310000
v 0.391458 0.125459 0.268845
v 0.379565 0.425507 0.269885
v 0.291853 0.121483 0.276780
v 0.279960 0.421532 0.277821
v 0.353333 0.125607 -0.209638
v 0.341440 0.425655 -0.208598
v 0.253728 0.121631 -0.201703
v 0.241835 0.421680 -0.200663
v -0.281027 0.101895 0.279510
v -0.292921 0.401944 0.278470
v -0.380633 0.097919 0.271575
v -0.392526 0.397968 0.270535
v -0.242902 0.101747 -0.198973
v -0.254796 0.401796 -0.200014
v -0.342508 0.097771 -0.206908
v -0.354401 0.397820 -0.207949
v 0.100134 -0.281911 0.078966
v 0.200128 -0.283015 0.078816
v 0.200702 -0.243498 0.170675
v 0.100709 -0.242393 0.170825
v -0.200044 -0.461639 -0.116349
v -0.100047 -0.462128 -0.117053
v -0.099389 -0.470931 -0.017444
v -0.199385 -0.470442 -0.016740
v 0.060000 -0.385687 0.030196
v 0.050000 -0.421301 0.048607
v 0.250000 -0.421301 0.048607
v 0.240000 -0.385687 0.030196
v -0.240000 -0.465387 -0.206833
v -0.250000 -0.500134 -0.226833
v -0.050000 -0.500134 -0.226833
v -0.060000 -0.465387 -0.206833
vt 1.000000 0.002344
vt 1.000000 0.127321
vt 0.750046 0.127321
vt 0.750046 0.002344
vt 0.749862 0.155577
vt 0.624885 0.155577
vt 0.624885 0.002480
vt 0.749862 0.002480
vt 0.750046 0.002480
vt 0.750046 0.127457
vt 1.000000 0.127457
vt 1.000000 0.002480
vt 0.249954 0.002480
vt 0.374931 0.002480
vt 0.374931 0.155577
vt 0.249954 0.155577
vt 0.000000 0.155577
vt 0.000000 0.002481
vt 0.550225 0.832363
vt 0.506554 0.967370
vt 0.458446 0.956670
vt 0.475293 0.820672
vt 0.409645 0.954647
vt 0.402595 0.819777
vt 0.361369 0.961168
vt 0.330478 0.829348
vt 0.315626 0.976594
vt 0.257413 0.849837
vt 0.044996 0.806560
vt 0.044996 0.954579
vt 0.008018 0.954579
vt 0.008018 0.806560
vt 0.229887 0.806560
vt 0.229887 0.954579
vt 0.155931 0.954579
vt 0.155931 0.806560
vt 0.118952 0.954579
vt 0.118953 0.806560
vt 0.044996 0.769582
vt 0.118953 0.769582
vt 0.118952 0.991557
vt 0.044996 0.991557
vt 0.774379 0.345289
vt 0.774379 0.465813
vt 0.619181 0.465813
vt 0.619181 0.345289
vt 0.524955 0.573802
vt 0.524955 0.496323
vt 0.585216 0.496323
vt 0.585216 0.573802
vt 0.645058 0.313196
vt 0.645058 0.184063
vt 0.800017 0.184063
vt 0.800017 0.304587
vt 0.800017 0.304587
vt 0.800017 0.184063
vt 0.645058 0.184063
vt 0.645058 0.313196
vt 0.490048 0.465813
vt 0.490048 0.345289
vt 0.889896 0.270151
vt 0.889896 0.201280
vt 0.977690 0.236437
vt 0.977690 0.209889
vt 0.572303 0.617699
vt 0.537868 0.617699
vt 0.867100 0.371115
vt 0.867100 0.439986
vt 0.889897 0.201281
vt 0.889897 0.270151
vt 0.959554 0.388333
vt 0.986102 0.388333
vt 0.986102 0.422768
vt 0.959554 0.422768
vt 0.563694 0.660958
vt 0.546477 0.660958
vt 0.977690 0.209889
vt 0.977690 0.236437
vt 0.056947 0.502763
vt 0.031342 0.678742
vt 0.105364 0.679798
vt 0.113551 0.493295
vt 0.181247 0.679800
vt 0.172072 0.486316
vt 0.258096 0.678847
vt 0.228924 0.489689
vt 0.350833 0.653486
vt 0.278396 0.479726
vt 0.260664 0.232791
vt 0.198888 0.232721
vt 0.203989 0.273911
vt 0.255469 0.273969
vt 0.231797 0.491804
vt 0.259470 0.675650
vt 0.185342 0.676596
vt 0.174632 0.486937
vt 0.108143 0.676596
vt 0.115699 0.484082
vt 0.031342 0.675155
vt 0.058725 0.492177
vt 0.281442 0.481753
vt 0.353399 0.650288
vt 0.212076 0.231900
vt 0.272063 0.233967
vt 0.265687 0.273786
vt 0.215697 0.272064
vt 0.201809 0.294807
vt 0.255678 0.294648
vt 0.155095 0.254535
vt 0.091592 0.258712
vt 0.058515 0.304298
vt 0.264991 0.294002
vt 0.212481 0.291941
vt 0.106345 0.252865
vt 0.068530 0.296121
vt 0.169828 0.248696
vt 0.309271 0.694987
vt 0.222196 0.713314
vt 0.396937 0.686350
vt 0.484080 0.687634
vt 0.569074 0.696753
vt 0.637826 0.750046
vt 0.637826 0.937556
vt 0.575382 0.937556
vt 0.575382 0.750046
vt 0.637826 0.687602
vt 0.637826 0.500092
vt 0.937556 0.500092
vt 0.937556 0.687602
vt 1.000000 0.750046
vt 1.000000 0.937556
vt 0.937556 0.937556
vt 0.937556 0.750046
vt 0.937556 1.000000
vt 0.637826 1.000000
vt 1.000000 0.750046
vt 1.000000 0.937556
vt 0.937556 0.937556
vt 0.937556 0.750046
vt 0.637826 0.937556
vt 0.637826 0.750046
vt 0.575382 0.937556
vt 0.575382 0.750046
vt 0.637826 0.687602
vt 0.637826 0.500092
vt 0.937556 0.500092
vt 0.937556 0.687602
vt 0.937556 1.000000
vt 0.637826 1.000000
vt 0.051395 0.289109
vt 0.069292 0.255431
vt 0.084240 0.246065
vt 0.076987 0.187016
vt 0.096428 0.196312
vt 0.176155 0.244039
vt 0.191735 0.241627
vt 0.156383 0.196685
vt 0.069733 0.210295
vt 0.062349 0.279584
vt 0.193920 0.177806
vt 0.293899 0.181250
vt 0.051183 0.206234
vt 0.184607 0.197084
vt 0.174184 0.184472
vt 0.281319 0.177816
vt 0.178358 0.177699
vt 0.202337 0.190319
vt 0.061887 0.191752
vt 0.158165 0.176629
vt 0.189678 0.177487
vt 0.091701 0.176629
vt 0.398221 0.599207
vt 0.485364 0.600491
vn -0.9992 -0.0397 0.0000
vn 0.0000 0.0000 -1.0000
vn 0.9992 0.0397 0.0000
vn 0.0000 0.0000 1.0000
vn 0.0397 -0.9992 0.0000
vn -0.0397 0.9992 0.0000
vn -0.9941 0.1084 0.0000
vn 0.0003 0.1056 -0.9944
vn 0.9947 0.1029 0.0000
vn 0.0003 0.1056 0.9944
vn -0.9992 0.0397 0.0000
vn 0.9992 -0.0397 0.0000
vn -0.0397 -0.9992 0.0000
vn 0.0397 0.9992 0.0000
vn 0.0028 0.9985 -0.0555
vn -0.0028 -1.0000 0.0000
vn 1.0000 -0.0028 -0.0000
vn -1.0000 0.0028 0.0000
vn -0.9578 0.0027 -0.2873
vn -0.9806 0.0027 -0.1961
vn -0.0027 -0.9806 -0.1961
vn 0.0026 0.9285 -0.3714
vn 0.9578 -0.0027 -0.2873
vn -0.0028 -0.9950 -0.0995
vn 0.9806 -0.0027 -0.1961
vn 0.0026 0.9311 -0.3647
vn -0.9881 -0.0975 0.1194
vn 0.0058 -0.9666 -0.2562
vn 0.9924 -0.0710 0.1001
vn -0.0021 0.8183 0.5748
vn 0.0000 -0.5408 0.8412
vn -0.9894 -0.1395 0.0396
vn -0.0029 -0.4695 -0.8830
vn 0.9918 -0.1246 0.0281
vn 0.0049 0.1944 0.9809
vn 0.0000 -1.0000 0.0000
vn -0.0025 -0.6946 0.7194
vn 0.9993 -0.0366 0.0081
vn 0.0024 0.6814 -0.7319
vn -0.9993 0.0368 -0.0082
vn 0.0043 -0.6462 0.7632
vn 0.9998 -0.0149 -0.0089
vn -0.0042 0.6496 -0.7603
vn -0.9998 0.0150 0.0089
vn 0.0001 0.0312 0.9995
vn 0.9996 0.0284 0.0000
vn 0.0001 0.0312 -0.9995
vn -0.9994 0.0340 0.0000
vn 0.0794 -0.0003 0.9968
vn -0.9961 -0.0398 0.0794
vn -0.0794 0.0003 -0.9968
vn 0.9961 0.0398 -0.0794
vn 0.0396 -0.9992 -0.0035
vn -0.0396 0.9992 0.0035
vn -0.0794 0.0003 0.9968
vn -0.9961 -0.0398 -0.0794
vn 0.0794 -0.0003 -0.9968
vn 0.9961 0.0398 0.0794
vn 0.0396 -0.9992 0.0035
vn -0.0396 0.9992 -0.0035
vn -0.9884 0.1469 -0.0388
vn 0.9184 0.1358 0.3717
vn 0.9912 0.1285 -0.0325
vn -0.0034 -0.7054 0.7088
vn -0.9897 0.1278 0.0650
vn 0.0012 0.4267 -0.9044
vn 0.9914 0.1174 0.0573
vn 0.0013 -0.6140 0.7893
vn -0.9400 0.3047 0.1532
vn 0.0016 0.9992 -0.0388
vn 0.9399 0.3057 0.1524
vn -0.9197 0.1310 0.3702
vn 0.0000 -0.4592 -0.8883
vn 0.0000 0.4989 -0.8667
usemtl Material
s off
f 1/1/1 2/2/1 4/3/1 3/4/1
f 3/5/2 4/6/2 8/7/2 7/8/2
f 7/9/3 8/10/3 6/11/3 5/12/3
f 5/13/4 6/14/4 2/15/4 1/16/4
f 3/17/5 7/18/5 5/13/5 1/16/5
f 8/7/6 4/6/6 2/15/6 6/14/6
f 65/19/7 10/20/7 12/21/7 66/22/7
f 66/22/8 12/21/8 16/23/8 67/24/8
f 67/24/9 16/23/9 14/25/9 68/26/9
f 68/26/10 14/25/10 10/27/10 65/28/10
f 17/29/11 18/30/11 20/31/11 19/32/11
f 19/33/2 20/34/2 24/35/2 23/36/2
f 23/36/12 24/35/12 22/37/12 21/38/12
f 21/38/4 22/37/4 18/30/4 17/29/4
f 19/39/13 23/40/13 21/38/13 17/29/13
f 24/41/14 20/42/14 18/30/14 22/37/14
f 28/43/15 26/44/15 25/45/15 27/46/15
f 32/47/16 31/48/16 29/49/16 30/50/16
f 27/51/17 31/52/17 32/53/17 28/54/17
f 26/55/18 30/56/18 29/57/18 25/58/18
f 25/45/4 29/59/4 31/60/4 27/46/4
f 26/55/19 33/61/19 35/62/19 30/56/19
f 33/61/20 37/63/20 39/64/20 35/62/20
f 30/50/21 35/65/21 36/66/21 32/47/21
f 28/43/22 34/67/22 33/68/22 26/44/22
f 32/53/23 36/69/23 34/70/23 28/54/23
f 38/71/2 40/72/2 39/73/2 37/74/2
f 35/65/24 39/75/24 40/76/24 36/66/24
f 36/69/25 40/77/25 38/78/25 34/70/25
f 34/67/26 38/71/26 37/74/26 33/68/26
f 57/79/27 42/80/27 44/81/27 58/82/27
f 58/82/28 44/81/28 48/83/28 59/84/28
f 59/84/29 48/83/29 46/85/29 60/86/29
f 60/86/30 46/85/30 42/87/30 57/88/30
f 43/89/31 47/90/31 45/91/31 41/92/31
f 61/93/32 50/94/32 52/95/32 62/96/32
f 62/96/33 52/95/33 56/97/33 63/98/33
f 63/98/34 56/97/34 54/99/34 64/100/34
f 64/101/35 54/102/35 50/94/35 61/93/35
f 51/103/36 55/104/36 53/105/36 49/106/36
f 87/107/37 60/86/37 57/88/37 88/108/37
f 86/109/38 59/84/38 60/86/38 87/107/38
f 85/110/39 58/82/39 59/84/39 86/109/39
f 88/111/40 57/79/40 58/82/40 85/110/40
f 91/112/41 64/101/41 61/93/41 92/113/41
f 90/114/42 63/98/42 64/100/42 91/115/42
f 89/116/43 62/96/43 63/98/43 90/114/43
f 92/113/44 61/93/44 62/96/44 89/116/44
f 13/117/45 68/26/45 65/28/45 9/118/45
f 15/119/46 67/24/46 68/26/46 13/117/46
f 11/120/47 66/22/47 67/24/47 15/119/47
f 9/121/48 65/19/48 66/22/48 11/120/48
f 69/122/49 70/123/49 72/124/49 71/125/49
f 71/126/50 72/127/50 76/128/50 75/129/50
f 75/130/51 76/131/51 74/132/51 73/133/51
f 73/133/52 74/132/52 70/123/52 69/122/52
f 71/126/53 75/129/53 73/133/53 69/122/53
f 76/134/54 72/135/54 70/123/54 74/132/54
f 77/136/55 78/137/55 80/138/55 79/139/55
f 79/139/56 80/138/56 84/140/56 83/141/56
f 83/141/57 84/140/57 82/142/57 81/143/57
f 81/144/58 82/145/58 78/146/58 77/147/58
f 79/139/59 83/141/59 81/144/59 77/147/59
f 84/140/60 80/138/60 78/148/60 82/149/60
f 41/150/61 88/111/61 85/110/61 43/151/61
f 90/114/62 55/152/62 99/153/62 100/154/62
f 47/155/63 86/109/63 87/107/63 45/91/63
f 45/91/64 87/107/64 88/108/64 41/92/64
f 49/106/65 92/113/65 89/116/65 51/156/65
f 85/110/66 86/109/66 96/157/66 93/158/66
f 55/152/67 90/114/67 91/115/67 53/159/67
f 53/105/68 91/112/68 92/113/68 49/106/68
f 55/104/36 51/103/36 98/160/36 99/161/36
f 43/151/69 85/110/69 93/158/69 94/162/69
f 89/116/70 90/114/70 100/154/70 97/163/70
f 86/109/71 47/155/71 95/164/71 96/157/71
f 47/90/31 43/89/31 94/165/31 95/166/31
f 51/156/72 89/116/72 97/163/72 98/167/72
f 94/168/73 93/158/73 96/157/73 95/169/73
f 98/170/74 97/163/74 100/154/74 99/171/74
f 11/120/16 15/119/16 13/172/16 9/173/16
