# Blender v2.82 (sub 7) OBJ File: 'Ostrich.blend'
# www.blender.org
mtllib Ostrich_000186.mtl
o Cube_Cube.001
v -0.252749 0.090506 0.400000
v -0.246828 0.490463 0.400000
v -0.252749 0.090506 -0.400000
v -0.246828 0.490463 -0.400000
v 0.247196 0.083105 0.400000
v 0.253117 0.483061 0.400000
v 0.247196 0.083105 -0.400000
v 0.253117 0.483061 -0.400000
v -0.098610 0.265620 -0.300000
v -0.063592 0.906223 -0.344000
v -0.098610 0.265620 -0.500000
v -0.063592 0.906223 -0.456000
v 0.101371 0.268425 -0.300000
v 0.048397 0.907794 -0.344000
v 0.101371 0.268425 -0.500000
v 0.048397 0.907794 -0.456000
v -0.092810 0.035331 0.500000
v -0.098734 0.435573 0.500000
v -0.092810 0.035331 0.400000
v -0.098734 0.435573 0.400000
v 0.107168 0.038291 0.500000
v 0.101244 0.438534 0.500000
v 0.107168 0.038291 0.400000
v 0.101244 0.438534 0.400000
v -0.079414 1.036014 -0.320000
v -0.079274 1.026015 -0.500000
v 0.060572 1.037978 -0.320000
v 0.060712 1.027979 -0.500000
v -0.077310 0.886029 -0.320000
v -0.077310 0.886029 -0.500000
v 0.062676 0.887993 -0.320000
v 0.062676 0.887993 -0.500000
v -0.048716 0.986440 -0.600000
v 0.031276 0.987562 -0.600000
v -0.047594 0.906448 -0.600000
v 0.032399 0.907570 -0.600000
v -0.028168 0.947562 -0.700000
v 0.011828 0.948123 -0.700000
v -0.027736 0.916727 -0.700000
v 0.012260 0.917288 -0.700000
v 0.100000 -0.500134 -0.194339
v 0.048498 0.177462 0.145306
v 0.090000 -0.500134 -0.274339
v 0.049149 0.193325 -0.054063
v 0.200000 -0.500134 -0.194339
v 0.248497 0.177063 0.145927
v 0.210000 -0.500134 -0.274339
v 0.249148 0.192926 -0.053441
v -0.200000 -0.343892 0.185041
v -0.250899 0.277667 0.107968
v -0.210000 -0.405547 0.134064
v -0.251457 0.107509 0.002869
v -0.100000 -0.343892 0.185041
v -0.050901 0.276757 0.108380
v -0.090000 -0.405547 0.134064
v -0.051460 0.106598 0.003281
v 0.098019 -0.187602 0.040490
v 0.098525 -0.160918 -0.055883
v 0.198524 -0.161005 -0.055381
v 0.198017 -0.187689 0.040992
v -0.202810 -0.006695 0.397518
v -0.202671 -0.039813 0.303161
v -0.102671 -0.039711 0.303272
v -0.102810 -0.006593 0.397629
v -0.093100 0.585753 -0.310000
v -0.093100 0.585753 -0.490000
v 0.086883 0.588278 -0.490000
v 0.086883 0.588278 -0.310000
v 0.374349 0.132103 0.273430
v 0.378777 0.432356 0.272858
v 0.274526 0.133586 0.279190
v 0.278954 0.433839 0.278617
v 0.346691 0.131597 -0.205772
v 0.351119 0.431850 -0.206345
v 0.246868 0.133080 -0.200012
v 0.251296 0.433333 -0.200585
v -0.278584 0.140015 0.278700
v -0.274155 0.440268 0.279273
v -0.378407 0.141498 0.272940
v -0.373978 0.441751 0.273513
v -0.250926 0.140521 -0.200502
v -0.246498 0.440774 -0.199930
v -0.350749 0.142004 -0.206262
v -0.346320 0.442257 -0.205689
v 0.100103 -0.463003 -0.272447
v 0.200103 -0.462966 -0.272111
v 0.199769 -0.468551 -0.172268
v 0.099770 -0.468588 -0.172604
v -0.200044 -0.361197 0.109413
v -0.100045 -0.360845 0.109441
v -0.100222 -0.317953 0.199776
v -0.200221 -0.318306 0.199748
v 0.060000 -0.465387 -0.361172
v 0.050000 -0.500134 -0.381172
v 0.250000 -0.500134 -0.381172
v 0.240000 -0.465387 -0.361172
v -0.240000 -0.450327 0.051954
v -0.250000 -0.487882 0.065989
v -0.050000 -0.487882 0.065989
v -0.060000 -0.450327 0.051954
vt 1.000000 0.002344
vt 1.000000 0.127321
vt 0.750046 0.127321
vt 0.750046 0.002344
vt 0.749862 0.155577
vt 0.624885 0.155577
vt 0.624885 0.002480
vt 0.749862 0.002480
vt 0.750046 0.002480
vt 0.750046 0.127457
vt 1.000000 0.127457
vt 1.000000 0.002480
vt 0.249954 0.002480
vt 0.374931 0.002480
vt 0.374931 0.155577
vt 0.249954 0.155577
vt 0.000000 0.155577
vt 0.000000 0.002481
vt 0.550225 0.832363
vt 0.506554 0.967370
vt 0.458446 0.956670
vt 0.475293 0.820672
vt 0.409645 0.954647
vt 0.402595 0.819777
vt 0.361369 0.961168
vt 0.330478 0.829348
vt 0.315626 0.976594
vt 0.257413 0.849837
vt 0.044996 0.806560
vt 0.044996 0.954579
vt 0.008018 0.954579
vt 0.008018 0.806560
vt 0.229887 0.806560
vt 0.229887 0.954579
vt 0.155931 0.954579
vt 0.155931 0.806560
vt 0.118952 0.954579
vt 0.118953 0.806560
vt 0.044996 0.769582
vt 0.118953 0.769582
vt 0.118952 0.991557
vt 0.044996 0.991557
vt 0.774379 0.345289
vt 0.774379 0.465813
vt 0.619181 0.465813
vt 0.619181 0.345289
vt 0.524955 0.573802
vt 0.524955 0.496323
vt 0.585216 0.496323
vt 0.585216 0.573802
vt 0.645058 0.313196
vt 0.645058 0.184063
vt 0.800017 0.184063
vt 0.800017 0.304587
vt 0.800017 0.304587
vt 0.800017 0.184063
vt 0.645058 0.184063
vt 0.645058 0.313196
vt 0.490048 0.465813
vt 0.490048 0.345289
vt 0.889896 0.270151
vt 0.889896 0.201280
vt 0.977690 0.236437
vt 0.977690 0.209889
vt 0.572303 0.617699
vt 0.537868 0.617699
vt 0.867100 0.371115
vt 0.867100 0.439986
vt 0.889897 0.201281
vt 0.889897 0.270151
vt 0.959554 0.388333
vt 0.986102 0.388333
vt 0.986102 0.422768
vt 0.959554 0.422768
vt 0.563694 0.660958
vt 0.546477 0.660958
vt 0.977690 0.209889
vt 0.977690 0.236437
vt 0.056947 0.502763
vt 0.031342 0.678742
vt 0.105364 0.679798
vt 0.113551 0.493295
vt 0.181247 0.679800
vt 0.172072 0.486316
vt 0.258096 0.678847
vt 0.228924 0.489689
vt 0.350833 0.653486
vt 0.278396 0.479726
vt 0.260664 0.232791
vt 0.198888 0.232721
vt 0.203989 0.273911
vt 0.255469 0.273969
vt 0.231797 0.491804
vt 0.259470 0.675650
vt 0.185342 0.676596
vt 0.174632 0.486937
vt 0.108143 0.676596
vt 0.115699 0.484082
vt 0.031342 0.675155
vt 0.058725 0.492177
vt 0.281442 0.481753
vt 0.353399 0.650288
vt 0.212076 0.231900
vt 0.272063 0.233967
vt 0.265687 0.273786
vt 0.215697 0.272064
vt 0.201809 0.294807
vt 0.255678 0.294648
vt 0.155095 0.254535
vt 0.091592 0.258712
vt 0.058515 0.304298
vt 0.264991 0.294002
vt 0.212481 0.291941
vt 0.106345 0.252865
vt 0.068530 0.296121
vt 0.169828 0.248696
vt 0.309271 0.694987
vt 0.222196 0.713314
vt 0.396937 0.686350
vt 0.484080 0.687634
vt 0.569074 0.696753
vt 0.637826 0.750046
vt 0.637826 0.937556
vt 0.575382 0.937556
vt 0.575382 0.750046
vt 0.637826 0.687602
vt 0.637826 0.500092
vt 0.937556 0.500092
vt 0.937556 0.687602
vt 1.000000 0.750046
vt 1.000000 0.937556
vt 0.937556 0.937556
vt 0.937556 0.750046
vt 0.937556 1.000000
vt 0.637826 1.000000
vt 1.000000 0.750046
vt 1.000000 0.937556
vt 0.937556 0.937556
vt 0.937556 0.750046
vt 0.637826 0.937556
vt 0.637826 0.750046
vt 0.575382 0.937556
vt 0.575382 0.750046
vt 0.637826 0.687602
vt 0.637826 0.500092
vt 0.937556 0.500092
vt 0.937556 0.687602
vt 0.937556 1.000000
vt 0.637826 1.000000
vt 0.051395 0.289109
vt 0.069292 0.255431
vt 0.084240 0.246065
vt 0.076987 0.187016
vt 0.096428 0.196312
vt 0.176155 0.244039
vt 0.191735 0.241627
vt 0.156383 0.196685
vt 0.069733 0.210295
vt 0.062349 0.279584
vt 0.193920 0.177806
vt 0.293899 0.181250
vt 0.051183 0.206234
vt 0.184607 0.197084
vt 0.174184 0.184472
vt 0.281319 0.177816
vt 0.178358 0.177699
vt 0.202337 0.190319
vt 0.061887 0.191752
vt 0.158165 0.176629
vt 0.189678 0.177487
vt 0.091701 0.176629
vt 0.398221 0.599207
vt 0.485364 0.600491
vn -0.9999 0.0148 0.0000
vn 0.0000 0.0000 -1.0000
vn 0.9999 -0.0148 0.0000
vn 0.0000 0.0000 1.0000
vn -0.0148 -0.9999 0.0000
vn 0.0148 0.9999 0.0000
vn -0.9958 0.0917 0.0000
vn -0.0015 0.1056 -0.9944
vn 0.9928 0.1196 0.0000
vn -0.0015 0.1056 0.9944
vn -0.9999 -0.0148 0.0000
vn 0.9999 0.0148 0.0000
vn 0.0148 -0.9999 0.0000
vn -0.0148 0.9999 0.0000
vn -0.0140 0.9984 -0.0555
vn 0.0140 -0.9999 0.0000
vn 0.9999 0.0140 -0.0000
vn -0.9999 -0.0140 0.0000
vn -0.9577 -0.0134 -0.2873
vn -0.9805 -0.0138 -0.1961
vn 0.0138 -0.9805 -0.1961
vn -0.0130 0.9284 -0.3714
vn 0.9577 0.0134 -0.2873
vn 0.0140 -0.9949 -0.0995
vn 0.9805 0.0138 -0.1961
vn -0.0131 0.9311 -0.3647
vn -0.9909 -0.1328 -0.0230
vn 0.0038 0.0053 -1.0000
vn 0.9904 -0.1370 -0.0158
vn -0.0040 -0.2762 0.9611
vn 0.0000 -1.0000 0.0000
vn -0.9912 -0.0918 0.0956
vn -0.0017 -0.8983 -0.4394
vn 0.9899 -0.1003 0.1001
vn 0.0007 0.7139 0.7002
vn 0.0000 -0.6372 0.7707
vn -0.0035 -0.6045 0.7966
vn 1.0000 0.0023 0.0047
vn 0.0035 0.5829 -0.8126
vn -1.0000 -0.0023 -0.0047
vn 0.0006 -0.5361 0.8442
vn 1.0000 0.0096 -0.0023
vn -0.0006 0.5165 -0.8563
vn -1.0000 -0.0096 0.0023
vn -0.0004 0.0312 0.9995
vn 0.9990 0.0452 0.0000
vn -0.0004 0.0312 -0.9995
vn -0.9999 0.0172 0.0000
vn 0.0576 0.0011 0.9983
vn -0.9982 0.0148 0.0576
vn -0.0576 -0.0011 -0.9983
vn 0.9982 -0.0148 -0.0576
vn -0.0147 -0.9999 0.0019
vn 0.0147 0.9999 -0.0019
vn -0.0576 -0.0011 0.9983
vn -0.9982 0.0148 -0.0576
vn 0.0576 0.0011 -0.9983
vn 0.9982 -0.0148 0.0576
vn -0.0147 -0.9999 -0.0019
vn 0.0147 0.9999 0.0019
vn -0.9908 0.1228 0.0571
vn 0.9351 0.3092 0.1730
vn 0.9904 0.1244 0.0608
vn -0.0013 -0.5701 0.8216
vn -0.9906 0.1336 -0.0300
vn -0.0001 0.9996 -0.0270
vn 0.9897 0.1394 -0.0318
vn 0.0008 -0.4961 0.8683
vn -0.9165 0.1425 0.3737
vn -0.0006 0.5412 -0.8409
vn 0.9176 0.1387 0.3725
vn -0.9351 0.3095 0.1729
vn 0.0000 0.4989 -0.8667
vn 0.0000 -0.3501 -0.9367
usemtl Material
s off
f 1/1/1 2/2/1 4/3/1 3/4/1
f 3/5/2 4/6/2 8/7/2 7/8/2
f 7/9/3 8/10/3 6/11/3 5/12/3
f 5/13/4 6/14/4 2/15/4 1/16/4
f 3/17/5 7/18/5 5/13/5 1/16/5
f 8/7/6 4/6/6 2/15/6 6/14/6
f 65/19/7 10/20/7 12/21/7 66/22/7
f 66/22/8 12/21/8 16/23/8 67/24/8
f 67/24/9 16/23/9 14/25/9 68/26/9
f 68/26/10 14/25/10 10/27/10 65/28/10
f 17/29/11 18/30/11 20/31/11 19/32/11
f 19/33/2 20/34/2 24/35/2 23/36/2
f 23/36/12 24/35/12 22/37/12 21/38/12
f 21/38/4 22/37/4 18/30/4 17/29/4
f 19/39/13 23/40/13 21/38/13 17/29/13
f 24/41/14 20/42/14 18/30/14 22/37/14
f 28/43/15 26/44/15 25/45/15 27/46/15
f 32/47/16 31/48/16 29/49/16 30/50/16
f 27/51/17 31/52/17 32/53/17 28/54/17
f 26/55/18 30/56/18 29/57/18 25/58/18
f 25/45/4 29/59/4 31/60/4 27/46/4
f 26/55/19 33/61/19 35/62/19 30/56/19
f 33/61/20 37/63/20 39/64/20 35/62/20
f 30/50/21 35/65/21 36/66/21 32/47/21
f 28/43/22 34/67/22 33/68/22 26/44/22
f 32/53/23 36/69/23 34/70/23 28/54/23
f 38/71/2 40/72/2 39/73/2 37/74/2
f 35/65/24 39/75/24 40/76/24 36/66/24
f 36/69/25 40/77/25 38/78/25 34/70/25
f 34/67/26 38/71/26 37/74/26 33/68/26
f 57/79/27 42/80/27 44/81/27 58/82/27
f 58/82/28 44/81/28 48/83/28 59/84/28
f 59/84/29 48/83/29 46/85/29 60/86/29
f 60/86/30 46/85/30 42/87/30 57/88/30
f 43/89/31 47/90/31 45/91/31 41/92/31
f 61/93/32 50/94/32 52/95/32 62/96/32
f 62/96/33 52/95/33 56/97/33 63/98/33
f 63/98/34 56/97/34 54/99/34 64/100/34
f 64/101/35 54/102/35 50/94/35 61/93/35
f 51/103/36 55/104/36 53/105/36 49/106/36
f 87/107/37 60/86/37 57/88/37 88/108/37
f 86/109/38 59/84/38 60/86/38 87/107/38
f 85/110/39 58/82/39 59/84/39 86/109/39
f 88/111/40 57/79/40 58/82/40 85/110/40
f 91/112/41 64/101/41 61/93/41 92/113/41
f 90/114/42 63/98/42 64/100/42 91/115/42
f 89/116/43 62/96/43 63/98/43 90/114/43
f 92/113/44 61/93/44 62/96/44 89/116/44
f 13/117/45 68/26/45 65/28/45 9/118/45
f 15/119/46 67/24/46 68/26/46 13/117/46
f 11/120/47 66/22/47 67/24/47 15/119/47
f 9/121/48 65/19/48 66/22/48 11/120/48
f 69/122/49 70/123/49 72/124/49 71/125/49
f 71/126/50 72/127/50 76/128/50 75/129/50
f 75/130/51 76/131/51 74/132/51 73/133/51
f 73/133/52 74/132/52 70/123/52 69/122/52
f 71/126/53 75/129/53 73/133/53 69/122/53
f 76/134/54 72/135/54 70/123/54 74/132/54
f 77/136/55 78/137/55 80/138/55 79/139/55
f 79/139/56 80/138/56 84/140/56 83/141/56
f 83/141/57 84/140/57 82/142/57 81/143/57
f 81/144/58 82/145/58 78/146/58 77/147/58
f 79/139/59 83/141/59 81/144/59 77/147/59
f 84/140/60 80/138/60 78/148/60 82/149/60
f 41/150/61 88/111/61 85/110/61 43/151/61
f 90/114/62 55/152/62 99/153/62 100/154/62
f 47/155/63 86/109/63 87/107/63 45/91/63
f 45/91/64 87/107/64 88/108/64 41/92/64
f 49/106/65 92/113/65 89/116/65 51/156/65
f 85/110/66 86/109/66 96/157/66 93/158/66
f 55/152/67 90/114/67 91/115/67 53/159/67
f 53/105/68 91/112/68 92/113/68 49/106/68
f 55/104/36 51/103/36 98/160/36 99/161/36
f 43/151/69 85/110/69 93/158/69 94/162/69
f 89/116/70 90/114/70 100/154/70 97/163/70
f 86/109/71 47/155/71 95/164/71 96/157/71
f 47/90/31 43/89/31 94/165/31 95/166/31
f 51/156/72 89/116/72 97/163/72 98/167/72
f 94/168/73 93/158/73 96/157/73 95/169/73
f 98/170/74 97/163/74 100/154/74 99/171/74
f 11/120/16 15/119/16 13/172/16 9/173/16
