# Blender v2.82 (sub 7) OBJ File: 'Ostrich.blend'
# www.blender.org
mtllib Ostrich_000077.mtl
o Cube_Cube.001
v 0.250000 0.264690 -0.441638
v 0.250000 0.634547 -0.289304
v 0.250000 -0.039978 0.298077
v 0.250000 0.329880 0.450411
v -0.250000 0.264690 -0.441638
v -0.250000 0.634547 -0.289304
v -0.250000 -0.039978 0.298077
v -0.250000 0.329880 0.450411
v 0.100000 0.156356 0.275227
v 0.056000 0.748715 0.442400
v 0.100000 0.094081 0.465284
v 0.056000 0.745962 0.554366
v -0.100000 0.156356 0.275227
v -0.056000 0.748715 0.442400
v -0.100000 0.094081 0.465284
v -0.056000 0.745962 0.554366
v 0.100000 0.346460 -0.634774
v 0.100000 0.648689 -0.372311
v 0.100000 0.280891 -0.559271
v 0.100000 0.583120 -0.296808
v -0.100000 0.346460 -0.634774
v -0.100000 0.648689 -0.372311
v -0.100000 0.280891 -0.559271
v -0.100000 0.583120 -0.296808
v 0.070000 0.884567 0.435284
v 0.070000 0.853441 0.612854
v -0.070000 0.884567 0.435284
v -0.070000 0.853441 0.612854
v 0.070000 0.735610 0.417621
v 0.070000 0.714415 0.596369
v -0.070000 0.735610 0.417621
v -0.070000 0.714415 0.596369
v 0.040000 0.801944 0.707449
v -0.040000 0.801944 0.707449
v 0.040000 0.722501 0.698029
v -0.040000 0.722501 0.698029
v 0.020000 0.751279 0.802142
v -0.020000 0.751279 0.802142
v 0.020000 0.720656 0.798510
v -0.020000 0.720656 0.798510
v -0.100000 0.183611 -0.776970
v -0.050000 0.326838 -0.047303
v -0.090000 0.103657 -0.774245
v -0.050000 0.141186 -0.121688
v -0.200000 0.183611 -0.776970
v -0.250000 0.326838 -0.047303
v -0.210000 0.103657 -0.774245
v -0.250000 0.141186 -0.121688
v 0.050271 -0.500134 0.000000
v 0.246673 0.216184 -0.175371
v 0.060271 -0.500134 0.080000
v 0.246455 0.193331 0.023319
v -0.049729 -0.500134 0.000000
v 0.050089 0.252775 -0.171377
v -0.059729 -0.500134 0.080000
v 0.049872 0.229922 0.027312
v -0.100000 0.394994 -0.431447
v -0.100000 0.294994 -0.431438
v -0.200000 0.294994 -0.431438
v -0.200000 0.394994 -0.431447
v 0.130325 -0.145234 -0.140436
v 0.130960 -0.141462 -0.040510
v 0.032866 -0.122028 -0.040620
v 0.032232 -0.125801 -0.140547
v 0.090000 0.442899 0.391446
v 0.090000 0.412338 0.568832
v -0.090000 0.412338 0.568832
v -0.090000 0.442899 0.391446
v -0.514556 0.259541 -0.247524
v -0.485442 0.537628 -0.138019
v -0.420006 0.262415 -0.279960
v -0.390893 0.540502 -0.170455
v -0.365342 0.078945 0.171427
v -0.336228 0.357032 0.280932
v -0.270792 0.081819 0.138991
v -0.241678 0.359906 0.248496
v 0.420551 0.262702 -0.283204
v 0.391438 0.540790 -0.173698
v 0.515101 0.259828 -0.250768
v 0.485987 0.537916 -0.141262
v 0.271337 0.082106 0.135747
v 0.242223 0.360194 0.245253
v 0.365887 0.079232 0.168184
v 0.336773 0.357320 0.277689
v -0.100000 0.104820 -0.739149
v -0.200000 0.104820 -0.739149
v -0.200000 0.204765 -0.742463
v -0.100000 0.204765 -0.742463
v 0.052884 -0.473393 0.083426
v -0.046555 -0.462901 0.082029
v -0.044336 -0.455148 -0.017646
v 0.055102 -0.465640 -0.016248
v -0.060000 0.018059 -0.736559
v -0.050000 -0.003114 -0.770605
v -0.250000 -0.003114 -0.770605
v -0.240000 0.018059 -0.736559
v 0.090271 -0.465387 0.166833
v 0.100271 -0.500134 0.186833
v -0.099729 -0.500134 0.186833
v -0.089729 -0.465387 0.166833
vt 1.000000 0.002344
vt 1.000000 0.127321
vt 0.750046 0.127321
vt 0.750046 0.002344
vt 0.749862 0.155577
vt 0.624885 0.155577
vt 0.624885 0.002480
vt 0.749862 0.002480
vt 0.750046 0.002480
vt 0.750046 0.127457
vt 1.000000 0.127457
vt 1.000000 0.002480
vt 0.249954 0.002480
vt 0.374931 0.002480
vt 0.374931 0.155577
vt 0.249954 0.155577
vt 0.000000 0.155577
vt 0.000000 0.002481
vt 0.550225 0.832363
vt 0.506554 0.967370
vt 0.458446 0.956670
vt 0.475293 0.820672
vt 0.409645 0.954647
vt 0.402595 0.819777
vt 0.361369 0.961168
vt 0.330478 0.829348
vt 0.315626 0.976594
vt 0.257413 0.849837
vt 0.044996 0.806560
vt 0.044996 0.954579
vt 0.008018 0.954579
vt 0.008018 0.806560
vt 0.229887 0.806560
vt 0.229887 0.954579
vt 0.155931 0.954579
vt 0.155931 0.806560
vt 0.118952 0.954579
vt 0.118953 0.806560
vt 0.044996 0.769582
vt 0.118953 0.769582
vt 0.118952 0.991557
vt 0.044996 0.991557
vt 0.774379 0.345289
vt 0.774379 0.465813
vt 0.619181 0.465813
vt 0.619181 0.345289
vt 0.524955 0.573802
vt 0.524955 0.496323
vt 0.585216 0.496323
vt 0.585216 0.573802
vt 0.645058 0.313196
vt 0.645058 0.184063
vt 0.800017 0.184063
vt 0.800017 0.304587
vt 0.800017 0.304587
vt 0.800017 0.184063
vt 0.645058 0.184063
vt 0.645058 0.313196
vt 0.490048 0.465813
vt 0.490048 0.345289
vt 0.889896 0.270151
vt 0.889896 0.201280
vt 0.977690 0.236437
vt 0.977690 0.209889
vt 0.572303 0.617699
vt 0.537868 0.617699
vt 0.867100 0.371115
vt 0.867100 0.439986
vt 0.889897 0.201281
vt 0.889897 0.270151
vt 0.959554 0.388333
vt 0.986102 0.388333
vt 0.986102 0.422768
vt 0.959554 0.422768
vt 0.563694 0.660958
vt 0.546477 0.660958
vt 0.977690 0.209889
vt 0.977690 0.236437
vt 0.056947 0.502763
vt 0.031342 0.678742
vt 0.105364 0.679798
vt 0.113551 0.493295
vt 0.181247 0.679800
vt 0.172072 0.486316
vt 0.258096 0.678847
vt 0.228924 0.489689
vt 0.350833 0.653486
vt 0.278396 0.479726
vt 0.260664 0.232791
vt 0.198888 0.232721
vt 0.203989 0.273911
vt 0.255469 0.273969
vt 0.231797 0.491804
vt 0.259470 0.675650
vt 0.185342 0.676596
vt 0.174632 0.486937
vt 0.108143 0.676596
vt 0.115699 0.484082
vt 0.031342 0.675155
vt 0.058725 0.492177
vt 0.281442 0.481753
vt 0.353399 0.650288
vt 0.212076 0.231900
vt 0.272063 0.233967
vt 0.265687 0.273786
vt 0.215697 0.272064
vt 0.201809 0.294807
vt 0.255678 0.294648
vt 0.155095 0.254535
vt 0.091592 0.258712
vt 0.058515 0.304298
vt 0.264991 0.294002
vt 0.212481 0.291941
vt 0.106345 0.252865
vt 0.068530 0.296121
vt 0.169828 0.248696
vt 0.309271 0.694987
vt 0.222196 0.713314
vt 0.396937 0.686350
vt 0.484080 0.687634
vt 0.569074 0.696753
vt 0.637826 0.750046
vt 0.637826 0.937556
vt 0.575382 0.937556
vt 0.575382 0.750046
vt 0.637826 0.687602
vt 0.637826 0.500092
vt 0.937556 0.500092
vt 0.937556 0.687602
vt 1.000000 0.750046
vt 1.000000 0.937556
vt 0.937556 0.937556
vt 0.937556 0.750046
vt 0.937556 1.000000
vt 0.637826 1.000000
vt 1.000000 0.750046
vt 1.000000 0.937556
vt 0.937556 0.937556
vt 0.937556 0.750046
vt 0.637826 0.937556
vt 0.637826 0.750046
vt 0.575382 0.937556
vt 0.575382 0.750046
vt 0.637826 0.687602
vt 0.637826 0.500092
vt 0.937556 0.500092
vt 0.937556 0.687602
vt 0.937556 1.000000
vt 0.637826 1.000000
vt 0.051395 0.289109
vt 0.069292 0.255431
vt 0.084240 0.246065
vt 0.076987 0.187016
vt 0.096428 0.196312
vt 0.176155 0.244039
vt 0.191735 0.241627
vt 0.156383 0.196685
vt 0.069733 0.210295
vt 0.062349 0.279584
vt 0.193920 0.177806
vt 0.293899 0.181250
vt 0.051183 0.206234
vt 0.184607 0.197084
vt 0.174184 0.184472
vt 0.281319 0.177816
vt 0.178358 0.177699
vt 0.202337 0.190319
vt 0.061887 0.191752
vt 0.158165 0.176629
vt 0.189678 0.177487
vt 0.091701 0.176629
vt 0.398221 0.599207
vt 0.485364 0.600491
vn 1.0000 0.0000 -0.0000
vn 0.0000 -0.3808 0.9246
vn -1.0000 0.0000 0.0000
vn -0.0000 0.3808 -0.9246
vn -0.0000 -0.9246 -0.3808
vn 0.0000 0.9246 0.3808
vn 0.9944 0.1051 0.0121
vn 0.0000 0.0433 0.9991
vn -0.9944 0.1051 0.0121
vn 0.0000 0.1644 -0.9864
vn 0.0000 -0.6557 0.7550
vn 0.0000 0.6557 -0.7550
vn 0.0000 -0.7550 -0.6557
vn 0.0000 0.7550 0.6557
vn 0.0000 0.9850 0.1727
vn 0.0000 -0.9930 -0.1178
vn 0.0000 0.1178 -0.9930
vn 0.9578 -0.0338 0.2853
vn 0.9806 -0.0231 0.1948
vn 0.0000 -0.9969 0.0793
vn 0.0000 0.8783 0.4781
vn -0.9578 -0.0338 0.2853
vn 0.0000 -0.1178 0.9930
vn 0.0000 -0.9998 -0.0184
vn -0.9806 -0.0231 0.1948
vn 0.0000 0.8817 0.4718
vn 0.9907 0.0343 -0.1318
vn -0.0000 -0.8957 -0.4447
vn -0.9907 0.0343 -0.1318
vn 0.0000 0.9846 0.1747
vn 0.0000 -0.0341 -0.9994
vn 0.9488 -0.3151 -0.0215
vn -0.0221 -0.1843 0.9826
vn -0.9989 0.0474 0.0044
vn -0.0290 -0.0833 -0.9961
vn 0.0000 -1.0000 0.0000
vn -0.0000 0.8531 -0.5218
vn 0.0000 -0.8507 0.5257
vn -0.0452 -0.3458 -0.9372
vn -0.9742 0.2256 -0.0032
vn 0.0435 0.3348 0.9413
vn 0.9737 -0.2276 0.0032
vn 0.0000 0.3759 -0.9267
vn -0.9995 0.0303 0.0076
vn 0.0000 -0.3094 0.9509
vn 0.9995 0.0303 0.0076
vn -0.3109 0.3762 -0.8728
vn 0.9455 0.0287 -0.3244
vn 0.3109 -0.3762 0.8728
vn -0.9455 -0.0287 0.3244
vn -0.0970 -0.9261 -0.3647
vn 0.0970 0.9261 0.3647
vn 0.3109 0.3762 -0.8728
vn 0.9455 -0.0287 0.3244
vn -0.3109 -0.3762 0.8728
vn -0.9455 0.0287 -0.3244
vn 0.0970 -0.9261 -0.3647
vn -0.0970 0.9261 0.3647
vn 0.9906 0.0592 0.1233
vn -0.9010 0.1931 -0.3885
vn -0.9906 0.0592 0.1233
vn 0.0000 0.8526 -0.5226
vn 0.9986 0.0329 -0.0418
vn 0.0000 0.0298 0.9996
vn -0.9761 0.2096 -0.0573
vn -0.0141 -0.3907 -0.9204
vn 0.9133 0.3821 0.1408
vn 0.0377 0.9988 -0.0315
vn -0.9133 0.3821 0.1408
vn 0.9126 0.1562 -0.3778
vn 0.0000 -0.8492 0.5281
vn 0.0000 0.4989 0.8667
vn -0.0000 -0.9503 -0.3114
usemtl Material
s off
f 1/1/1 2/2/1 4/3/1 3/4/1
f 3/5/2 4/6/2 8/7/2 7/8/2
f 7/9/3 8/10/3 6/11/3 5/12/3
f 5/13/4 6/14/4 2/15/4 1/16/4
f 3/17/5 7/18/5 5/13/5 1/16/5
f 8/7/6 4/6/6 2/15/6 6/14/6
f 65/19/7 10/20/7 12/21/7 66/22/7
f 66/22/8 12/21/8 16/23/8 67/24/8
f 67/24/9 16/23/9 14/25/9 68/26/9
f 68/26/10 14/25/10 10/27/10 65/28/10
f 17/29/1 18/30/1 20/31/1 19/32/1
f 19/33/11 20/34/11 24/35/11 23/36/11
f 23/36/3 24/35/3 22/37/3 21/38/3
f 21/38/12 22/37/12 18/30/12 17/29/12
f 19/39/13 23/40/13 21/38/13 17/29/13
f 24/41/14 20/42/14 18/30/14 22/37/14
f 28/43/15 26/44/15 25/45/15 27/46/15
f 32/47/16 31/48/16 29/49/16 30/50/16
f 27/51/3 31/52/3 32/53/3 28/54/3
f 26/55/1 30/56/1 29/57/1 25/58/1
f 25/45/17 29/59/17 31/60/17 27/46/17
f 26/55/18 33/61/18 35/62/18 30/56/18
f 33/61/19 37/63/19 39/64/19 35/62/19
f 30/50/20 35/65/20 36/66/20 32/47/20
f 28/43/21 34/67/21 33/68/21 26/44/21
f 32/53/22 36/69/22 34/70/22 28/54/22
f 38/71/23 40/72/23 39/73/23 37/74/23
f 35/65/24 39/75/24 40/76/24 36/66/24
f 36/69/25 40/77/25 38/78/25 34/70/25
f 34/67/26 38/71/26 37/74/26 33/68/26
f 57/79/27 42/80/27 44/81/27 58/82/27
f 58/82/28 44/81/28 48/83/28 59/84/28
f 59/84/29 48/83/29 46/85/29 60/86/29
f 60/86/30 46/85/30 42/87/30 57/88/30
f 43/89/31 47/90/31 45/91/31 41/92/31
f 61/93/32 50/94/32 52/95/32 62/96/32
f 62/96/33 52/95/33 56/97/33 63/98/33
f 63/98/34 56/97/34 54/99/34 64/100/34
f 64/101/35 54/102/35 50/94/35 61/93/35
f 51/103/36 55/104/36 53/105/36 49/106/36
f 87/107/37 60/86/37 57/88/37 88/108/37
f 86/109/3 59/84/3 60/86/3 87/107/3
f 85/110/38 58/82/38 59/84/38 86/109/38
f 88/111/1 57/79/1 58/82/1 85/110/1
f 91/112/39 64/101/39 61/93/39 92/113/39
f 90/114/40 63/98/40 64/100/40 91/115/40
f 89/116/41 62/96/41 63/98/41 90/114/41
f 92/113/42 61/93/42 62/96/42 89/116/42
f 13/117/43 68/26/43 65/28/43 9/118/43
f 15/119/44 67/24/44 68/26/44 13/117/44
f 11/120/45 66/22/45 67/24/45 15/119/45
f 9/121/46 65/19/46 66/22/46 11/120/46
f 69/122/47 70/123/47 72/124/47 71/125/47
f 71/126/48 72/127/48 76/128/48 75/129/48
f 75/130/49 76/131/49 74/132/49 73/133/49
f 73/133/50 74/132/50 70/123/50 69/122/50
f 71/126/51 75/129/51 73/133/51 69/122/51
f 76/134/52 72/135/52 70/123/52 74/132/52
f 77/136/53 78/137/53 80/138/53 79/139/53
f 79/139/54 80/138/54 84/140/54 83/141/54
f 83/141/55 84/140/55 82/142/55 81/143/55
f 81/144/56 82/145/56 78/146/56 77/147/56
f 79/139/57 83/141/57 81/144/57 77/147/57
f 84/140/58 80/138/58 78/148/58 82/149/58
f 41/150/59 88/111/59 85/110/59 43/151/59
f 90/114/60 55/152/60 99/153/60 100/154/60
f 47/155/61 86/109/61 87/107/61 45/91/61
f 45/91/62 87/107/62 88/108/62 41/92/62
f 49/106/63 92/113/63 89/116/63 51/156/63
f 85/110/64 86/109/64 96/157/64 93/158/64
f 55/152/65 90/114/65 91/115/65 53/159/65
f 53/105/66 91/112/66 92/113/66 49/106/66
f 55/104/36 51/103/36 98/160/36 99/161/36
f 43/151/67 85/110/67 93/158/67 94/162/67
f 89/116/68 90/114/68 100/154/68 97/163/68
f 86/109/69 47/155/69 95/164/69 96/157/69
f 47/90/31 43/89/31 94/165/31 95/166/31
f 51/156/70 89/116/70 97/163/70 98/167/70
f 94/168/71 93/158/71 96/157/71 95/169/71
f 98/170/72 97/163/72 100/154/72 99/171/72
f 11/120/73 15/119/73 13/172/73 9/173/73
