# Blender v2.82 (sub 7) OBJ File: 'Ostrich.blend'
# www.blender.org
mtllib Ostrich_000225.mtl
o Cube_Cube.001
v -0.248009 0.077376 0.400000
v -0.252225 0.477353 0.400000
v -0.248009 0.077376 -0.400000
v -0.252225 0.477353 -0.400000
v 0.251963 0.082645 0.400000
v 0.247747 0.482623 0.400000
v 0.251963 0.082645 -0.400000
v 0.247747 0.482623 -0.400000
v -0.101043 0.261366 -0.300000
v -0.049828 0.900878 -0.344000
v -0.101043 0.261366 -0.500000
v -0.049828 0.900878 -0.456000
v 0.098944 0.259110 -0.300000
v 0.062165 0.899615 -0.344000
v 0.098944 0.259110 -0.500000
v 0.062165 0.899615 -0.456000
v -0.105106 0.031067 0.500000
v -0.100888 0.431331 0.500000
v -0.105106 0.031067 0.400000
v -0.100888 0.431331 0.400000
v 0.094883 0.028960 0.500000
v 0.099101 0.429223 0.500000
v 0.094883 0.028960 0.400000
v 0.099101 0.429223 0.400000
v -0.062361 1.031027 -0.320000
v -0.062474 1.021028 -0.500000
v 0.077630 1.029449 -0.320000
v 0.077517 1.019449 -0.500000
v -0.064053 0.881037 -0.320000
v -0.064053 0.881037 -0.500000
v 0.075938 0.879458 -0.320000
v 0.075938 0.879458 -0.500000
v -0.032927 0.980692 -0.600000
v 0.047068 0.979790 -0.600000
v -0.033829 0.900697 -0.600000
v 0.046166 0.899795 -0.600000
v -0.013370 0.941307 -0.700000
v 0.026628 0.940856 -0.700000
v -0.013718 0.910471 -0.700000
v 0.026280 0.910020 -0.700000
v 0.100000 -0.270501 -0.059127
v 0.050783 0.247657 0.129401
v 0.090000 -0.325779 -0.116958
v 0.050927 0.117432 -0.022393
v 0.200000 -0.270501 -0.059127
v 0.250781 0.248422 0.128935
v 0.210000 -0.325779 -0.116958
v 0.250925 0.118197 -0.022859
v -0.200000 -0.500134 0.100000
v -0.249212 0.234071 0.135736
v -0.210000 -0.500134 0.020000
v -0.249092 0.124052 -0.031285
v -0.100000 -0.500134 0.100000
v -0.049213 0.234469 0.135618
v -0.090000 -0.500134 0.020000
v -0.049092 0.124450 -0.031403
v 0.102622 -0.118062 0.317790
v 0.102309 -0.106947 0.218410
v 0.202309 -0.106926 0.218098
v 0.202621 -0.118041 0.317478
v -0.198352 -0.131568 0.279591
v -0.198492 -0.146048 0.180645
v -0.098492 -0.146115 0.180513
v -0.098352 -0.131635 0.279459
v -0.087435 0.581257 -0.310000
v -0.087435 0.581257 -0.490000
v 0.092554 0.579227 -0.490000
v 0.092554 0.579227 -0.310000
v 0.361124 0.133375 0.277324
v 0.357962 0.433645 0.277601
v 0.261151 0.132321 0.279430
v 0.257989 0.432590 0.279706
v 0.351013 0.133710 -0.202569
v 0.347851 0.433980 -0.202293
v 0.251041 0.132656 -0.200463
v 0.247879 0.432925 -0.200187
v -0.258260 0.127695 0.280154
v -0.261421 0.427964 0.279878
v -0.358232 0.126640 0.278049
v -0.361394 0.426909 0.277773
v -0.248149 0.127360 -0.199739
v -0.251311 0.427629 -0.200015
v -0.348121 0.126305 -0.201844
v -0.351283 0.426575 -0.202121
v 0.099984 -0.268328 -0.129639
v 0.199983 -0.268557 -0.129866
v 0.200230 -0.259566 -0.030272
v 0.100230 -0.259337 -0.030045
v -0.199988 -0.465973 0.019048
v -0.099988 -0.466135 0.018931
v -0.099867 -0.463274 0.118890
v -0.199867 -0.463113 0.119007
v 0.060000 -0.360660 -0.203737
v 0.050000 -0.399597 -0.194185
v 0.250000 -0.399597 -0.194185
v 0.240000 -0.360660 -0.203737
v -0.240000 -0.465387 -0.066833
v -0.250000 -0.500134 -0.086833
v -0.050000 -0.500134 -0.086833
v -0.060000 -0.465387 -0.066833
vt 1.000000 0.002344
vt 1.000000 0.127321
vt 0.750046 0.127321
vt 0.750046 0.002344
vt 0.749862 0.155577
vt 0.624885 0.155577
vt 0.624885 0.002480
vt 0.749862 0.002480
vt 0.750046 0.002480
vt 0.750046 0.127457
vt 1.000000 0.127457
vt 1.000000 0.002480
vt 0.249954 0.002480
vt 0.374931 0.002480
vt 0.374931 0.155577
vt 0.249954 0.155577
vt 0.000000 0.155577
vt 0.000000 0.002481
vt 0.550225 0.832363
vt 0.506554 0.967370
vt 0.458446 0.956670
vt 0.475293 0.820672
vt 0.409645 0.954647
vt 0.402595 0.819777
vt 0.361369 0.961168
vt 0.330478 0.829348
vt 0.315626 0.976594
vt 0.257413 0.849837
vt 0.044996 0.806560
vt 0.044996 0.954579
vt 0.008018 0.954579
vt 0.008018 0.806560
vt 0.229887 0.806560
vt 0.229887 0.954579
vt 0.155931 0.954579
vt 0.155931 0.806560
vt 0.118952 0.954579
vt 0.118953 0.806560
vt 0.044996 0.769582
vt 0.118953 0.769582
vt 0.118952 0.991557
vt 0.044996 0.991557
vt 0.774379 0.345289
vt 0.774379 0.465813
vt 0.619181 0.465813
vt 0.619181 0.345289
vt 0.524955 0.573802
vt 0.524955 0.496323
vt 0.585216 0.496323
vt 0.585216 0.573802
vt 0.645058 0.313196
vt 0.645058 0.184063
vt 0.800017 0.184063
vt 0.800017 0.304587
vt 0.800017 0.304587
vt 0.800017 0.184063
vt 0.645058 0.184063
vt 0.645058 0.313196
vt 0.490048 0.465813
vt 0.490048 0.345289
vt 0.889896 0.270151
vt 0.889896 0.201280
vt 0.977690 0.236437
vt 0.977690 0.209889
vt 0.572303 0.617699
vt 0.537868 0.617699
vt 0.867100 0.371115
vt 0.867100 0.439986
vt 0.889897 0.201281
vt 0.889897 0.270151
vt 0.959554 0.388333
vt 0.986102 0.388333
vt 0.986102 0.422768
vt 0.959554 0.422768
vt 0.563694 0.660958
vt 0.546477 0.660958
vt 0.977690 0.209889
vt 0.977690 0.236437
vt 0.056947 0.502763
vt 0.031342 0.678742
vt 0.105364 0.679798
vt 0.113551 0.493295
vt 0.181247 0.679800
vt 0.172072 0.486316
vt 0.258096 0.678847
vt 0.228924 0.489689
vt 0.350833 0.653486
vt 0.278396 0.479726
vt 0.260664 0.232791
vt 0.198888 0.232721
vt 0.203989 0.273911
vt 0.255469 0.273969
vt 0.231797 0.491804
vt 0.259470 0.675650
vt 0.185342 0.676596
vt 0.174632 0.486937
vt 0.108143 0.676596
vt 0.115699 0.484082
vt 0.031342 0.675155
vt 0.058725 0.492177
vt 0.281442 0.481753
vt 0.353399 0.650288
vt 0.212076 0.231900
vt 0.272063 0.233967
vt 0.265687 0.273786
vt 0.215697 0.272064
vt 0.201809 0.294807
vt 0.255678 0.294648
vt 0.155095 0.254535
vt 0.091592 0.258712
vt 0.058515 0.304298
vt 0.264991 0.294002
vt 0.212481 0.291941
vt 0.106345 0.252865
vt 0.068530 0.296121
vt 0.169828 0.248696
vt 0.309271 0.694987
vt 0.222196 0.713314
vt 0.396937 0.686350
vt 0.484080 0.687634
vt 0.569074 0.696753
vt 0.637826 0.750046
vt 0.637826 0.937556
vt 0.575382 0.937556
vt 0.575382 0.750046
vt 0.637826 0.687602
vt 0.637826 0.500092
vt 0.937556 0.500092
vt 0.937556 0.687602
vt 1.000000 0.750046
vt 1.000000 0.937556
vt 0.937556 0.937556
vt 0.937556 0.750046
vt 0.937556 1.000000
vt 0.637826 1.000000
vt 1.000000 0.750046
vt 1.000000 0.937556
vt 0.937556 0.937556
vt 0.937556 0.750046
vt 0.637826 0.937556
vt 0.637826 0.750046
vt 0.575382 0.937556
vt 0.575382 0.750046
vt 0.637826 0.687602
vt 0.637826 0.500092
vt 0.937556 0.500092
vt 0.937556 0.687602
vt 0.937556 1.000000
vt 0.637826 1.000000
vt 0.051395 0.289109
vt 0.069292 0.255431
vt 0.084240 0.246065
vt 0.076987 0.187016
vt 0.096428 0.196312
vt 0.176155 0.244039
vt 0.191735 0.241627
vt 0.156383 0.196685
vt 0.069733 0.210295
vt 0.062349 0.279584
vt 0.193920 0.177806
vt 0.293899 0.181250
vt 0.051183 0.206234
vt 0.184607 0.197084
vt 0.174184 0.184472
vt 0.281319 0.177816
vt 0.178358 0.177699
vt 0.202337 0.190319
vt 0.061887 0.191752
vt 0.158165 0.176629
vt 0.189678 0.177487
vt 0.091701 0.176629
vt 0.398221 0.599207
vt 0.485364 0.600491
vn -0.9999 -0.0105 0.0000
vn 0.0000 0.0000 -1.0000
vn 0.9999 0.0105 0.0000
vn 0.0000 0.0000 1.0000
vn 0.0105 -0.9999 0.0000
vn -0.0105 0.9999 0.0000
vn -0.9931 0.1169 0.0000
vn 0.0012 0.1056 -0.9944
vn 0.9955 0.0944 0.0000
vn 0.0012 0.1056 0.9944
vn -0.9999 0.0105 0.0000
vn 0.9999 -0.0105 0.0000
vn -0.0105 -0.9999 0.0000
vn 0.0105 0.9999 0.0000
vn 0.0113 0.9984 -0.0555
vn -0.0113 -0.9999 0.0000
vn 0.9999 -0.0113 -0.0000
vn -0.9999 0.0113 -0.0000
vn -0.9578 0.0108 -0.2873
vn -0.9805 0.0111 -0.1961
vn -0.0111 -0.9805 -0.1961
vn 0.0105 0.9284 -0.3714
vn 0.9578 -0.0108 -0.2873
vn -0.0112 -0.9950 -0.0995
vn 0.9805 -0.0111 -0.1961
vn 0.0105 0.9311 -0.3647
vn -0.9898 -0.1284 0.0615
vn 0.0001 -0.7312 -0.6822
vn 0.9910 -0.1210 0.0567
vn 0.0011 0.4577 0.8891
vn 0.0000 -0.7229 0.6910
vn -0.9904 -0.1252 0.0587
vn 0.0000 -0.6170 -0.7870
vn 0.9909 -0.1216 0.0569
vn 0.0004 0.3659 0.9307
vn 0.0000 -1.0000 0.0000
vn 0.0000 -0.9264 0.3766
vn 1.0000 -0.0089 -0.0029
vn -0.0002 0.9071 -0.4210
vn -1.0000 0.0089 0.0029
vn 0.0006 -0.4358 0.9000
vn 1.0000 -0.0042 -0.0010
vn -0.0006 0.4508 -0.8926
vn -1.0000 0.0042 0.0010
vn 0.0004 0.0312 0.9995
vn 0.9998 0.0200 0.0000
vn 0.0004 0.0312 -0.9995
vn -0.9991 0.0425 0.0000
vn 0.0211 -0.0007 0.9998
vn -0.9997 -0.0105 0.0211
vn -0.0211 0.0007 -0.9998
vn 0.9997 0.0105 -0.0211
vn 0.0105 -0.9999 -0.0009
vn -0.0105 0.9999 0.0009
vn -0.0211 0.0007 0.9998
vn -0.9997 -0.0105 -0.0211
vn 0.0211 -0.0007 -0.9998
vn 0.9997 0.0105 0.0211
vn 0.0105 -0.9999 0.0009
vn -0.0105 0.9999 -0.0009
vn -0.9893 0.1461 0.0047
vn 0.9113 0.1606 0.3791
vn 0.9900 0.1413 0.0036
vn -0.0007 -0.9343 0.3564
vn -0.9904 0.1275 0.0537
vn -0.0001 0.6258 -0.7800
vn 0.9908 0.1246 0.0524
vn 0.0001 -0.4564 0.8898
vn -0.9421 0.2475 0.2262
vn 0.0006 1.0000 0.0078
vn 0.9419 0.2488 0.2256
vn -0.9115 0.1600 0.3789
vn 0.0000 -0.2382 -0.9712
vn 0.0000 0.4989 -0.8667
usemtl Material
s off
f 1/1/1 2/2/1 4/3/1 3/4/1
f 3/5/2 4/6/2 8/7/2 7/8/2
f 7/9/3 8/10/3 6/11/3 5/12/3
f 5/13/4 6/14/4 2/15/4 1/16/4
f 3/17/5 7/18/5 5/13/5 1/16/5
f 8/7/6 4/6/6 2/15/6 6/14/6
f 65/19/7 10/20/7 12/21/7 66/22/7
f 66/22/8 12/21/8 16/23/8 67/24/8
f 67/24/9 16/23/9 14/25/9 68/26/9
f 68/26/10 14/25/10 10/27/10 65/28/10
f 17/29/11 18/30/11 20/31/11 19/32/11
f 19/33/2 20/34/2 24/35/2 23/36/2
f 23/36/12 24/35/12 22/37/12 21/38/12
f 21/38/4 22/37/4 18/30/4 17/29/4
f 19/39/13 23/40/13 21/38/13 17/29/13
f 24/41/14 20/42/14 18/30/14 22/37/14
f 28/43/15 26/44/15 25/45/15 27/46/15
f 32/47/16 31/48/16 29/49/16 30/50/16
f 27/51/17 31/52/17 32/53/17 28/54/17
f 26/55/18 30/56/18 29/57/18 25/58/18
f 25/45/4 29/59/4 31/60/4 27/46/4
f 26/55/19 33/61/19 35/62/19 30/56/19
f 33/61/20 37/63/20 39/64/20 35/62/20
f 30/50/21 35/65/21 36/66/21 32/47/21
f 28/43/22 34/67/22 33/68/22 26/44/22
f 32/53/23 36/69/23 34/70/23 28/54/23
f 38/71/2 40/72/2 39/73/2 37/74/2
f 35/65/24 39/75/24 40/76/24 36/66/24
f 36/69/25 40/77/25 38/78/25 34/70/25
f 34/67/26 38/71/26 37/74/26 33/68/26
f 57/79/27 42/80/27 44/81/27 58/82/27
f 58/82/28 44/81/28 48/83/28 59/84/28
f 59/84/29 48/83/29 46/85/29 60/86/29
f 60/86/30 46/85/30 42/87/30 57/88/30
f 43/89/31 47/90/31 45/91/31 41/92/31
f 61/93/32 50/94/32 52/95/32 62/96/32
f 62/96/33 52/95/33 56/97/33 63/98/33
f 63/98/34 56/97/34 54/99/34 64/100/34
f 64/101/35 54/102/35 50/94/35 61/93/35
f 51/103/36 55/104/36 53/105/36 49/106/36
f 87/107/37 60/86/37 57/88/37 88/108/37
f 86/109/38 59/84/38 60/86/38 87/107/38
f 85/110/39 58/82/39 59/84/39 86/109/39
f 88/111/40 57/79/40 58/82/40 85/110/40
f 91/112/41 64/101/41 61/93/41 92/113/41
f 90/114/42 63/98/42 64/100/42 91/115/42
f 89/116/43 62/96/43 63/98/43 90/114/43
f 92/113/44 61/93/44 62/96/44 89/116/44
f 13/117/45 68/26/45 65/28/45 9/118/45
f 15/119/46 67/24/46 68/26/46 13/117/46
f 11/120/47 66/22/47 67/24/47 15/119/47
f 9/121/48 65/19/48 66/22/48 11/120/48
f 69/122/49 70/123/49 72/124/49 71/125/49
f 71/126/50 72/127/50 76/128/50 75/129/50
f 75/130/51 76/131/51 74/132/51 73/133/51
f 73/133/52 74/132/52 70/123/52 69/122/52
f 71/126/53 75/129/53 73/133/53 69/122/53
f 76/134/54 72/135/54 70/123/54 74/132/54
f 77/136/55 78/137/55 80/138/55 79/139/55
f 79/139/56 80/138/56 84/140/56 83/141/56
f 83/141/57 84/140/57 82/142/57 81/143/57
f 81/144/58 82/145/58 78/146/58 77/147/58
f 79/139/59 83/141/59 81/144/59 77/147/59
f 84/140/60 80/138/60 78/148/60 82/149/60
f 41/150/61 88/111/61 85/110/61 43/151/61
f 90/114/62 55/152/62 99/153/62 100/154/62
f 47/155/63 86/109/63 87/107/63 45/91/63
f 45/91/64 87/107/64 88/108/64 41/92/64
f 49/106/65 92/113/65 89/116/65 51/156/65
f 85/110/66 86/109/66 96/157/66 93/158/66
f 55/152/67 90/114/67 91/115/67 53/159/67
f 53/105/68 91/112/68 92/113/68 49/106/68
f 55/104/36 51/103/36 98/160/36 99/161/36
f 43/151/69 85/110/69 93/158/69 94/162/69
f 89/116/70 90/114/70 100/154/70 97/163/70
f 86/109/71 47/155/71 95/164/71 96/157/71
f 47/90/31 43/89/31 94/165/31 95/166/31
f 51/156/72 89/116/72 97/163/72 98/167/72
f 94/168/73 93/158/73 96/157/73 95/169/73
f 98/170/74 97/163/74 100/154/74 99/171/74
f 11/120/16 15/119/16 13/172/16 9/173/16
