# Blender v2.82 (sub 7) OBJ File: 'Ostrich.blend'
# www.blender.org
mtllib Ostrich_000074.mtl
o Cube_Cube.001
v 0.269534 0.218032 -0.424898
v 0.264464 0.602074 -0.313159
v 0.234726 -0.005676 0.342398
v 0.229655 0.378366 0.454137
v -0.229952 0.218030 -0.447558
v -0.235023 0.602073 -0.335819
v -0.264761 -0.005678 0.319738
v -0.269831 0.378365 0.431477
v 0.086861 0.187081 0.291903
v 0.037744 0.796891 0.403682
v 0.077995 0.145516 0.487335
v 0.032672 0.801087 0.515488
v -0.112933 0.187081 0.282839
v -0.074141 0.796891 0.398606
v -0.121799 0.145516 0.478271
v -0.079213 0.801087 0.510412
v 0.127781 0.253621 -0.610040
v 0.118785 0.601254 -0.411798
v 0.123845 0.204045 -0.523284
v 0.114850 0.551678 -0.325042
v -0.072014 0.253621 -0.619105
v -0.081009 0.601253 -0.420863
v -0.075949 0.204045 -0.532348
v -0.084945 0.551677 -0.334106
v 0.052528 0.931170 0.386704
v 0.044397 0.913715 0.565950
v -0.087328 0.931170 0.380359
v -0.095460 0.913715 0.559605
v 0.052810 0.781299 0.380491
v 0.044660 0.773835 0.560151
v -0.087046 0.781299 0.374146
v -0.095197 0.773835 0.553806
v 0.009974 0.869603 0.662745
v -0.069943 0.869602 0.659119
v 0.010125 0.789671 0.659431
v -0.069793 0.789671 0.655806
v -0.014460 0.826328 0.760028
v -0.054418 0.826328 0.758215
v -0.014402 0.795516 0.758750
v -0.054361 0.795516 0.756938
v -0.074097 0.003382 -0.573163
v -0.048233 0.318649 -0.040106
v -0.065687 -0.068625 -0.537888
v -0.044584 0.135568 -0.120530
v -0.173994 0.003382 -0.577696
v -0.248027 0.318649 -0.049170
v -0.185564 -0.068625 -0.543327
v -0.244378 0.135568 -0.129593
v 0.091322 -0.500134 0.004143
v 0.257397 0.224143 -0.155504
v 0.097686 -0.500134 0.084514
v 0.244398 0.182262 0.039629
v -0.008575 -0.500134 -0.000389
v 0.059121 0.249142 -0.163347
v -0.022190 -0.500134 0.079075
v 0.046121 0.207261 0.031786
v -0.079971 0.394322 -0.443702
v -0.081481 0.300032 -0.410428
v -0.181378 0.300032 -0.414960
v -0.179868 0.394322 -0.448234
v 0.160818 -0.149957 -0.162896
v 0.155730 -0.147003 -0.063069
v 0.056889 -0.132839 -0.068526
v 0.061976 -0.135793 -0.168353
v 0.073090 0.486446 0.374775
v 0.064963 0.470996 0.553926
v -0.114852 0.470996 0.545769
v -0.106725 0.486446 0.366618
v -0.478486 0.233442 -0.278581
v -0.457421 0.521683 -0.197062
v -0.381235 0.232919 -0.301860
v -0.360170 0.521160 -0.220341
v -0.371907 0.098879 0.169676
v -0.350843 0.387120 0.251195
v -0.274656 0.098356 0.146396
v -0.253592 0.386597 0.227915
v 0.407517 0.232867 -0.268846
v 0.379158 0.521107 -0.189570
v 0.502261 0.233390 -0.236856
v 0.473901 0.521630 -0.157580
v 0.260788 0.098304 0.167918
v 0.232428 0.386544 0.247195
v 0.355531 0.098827 0.199908
v 0.327172 0.387067 0.279185
v -0.077201 -0.046063 -0.504700
v -0.177098 -0.046063 -0.509233
v -0.174548 0.036606 -0.565441
v -0.074650 0.036606 -0.560908
v 0.089676 -0.470544 0.086208
v -0.009833 -0.462552 0.080367
v -0.003669 -0.458695 -0.019368
v 0.095840 -0.466687 -0.013527
v -0.038850 -0.131642 -0.467490
v -0.027838 -0.164783 -0.489574
v -0.227632 -0.164783 -0.498639
v -0.218665 -0.131642 -0.475648
v 0.123720 -0.465387 0.172617
v 0.132804 -0.500134 0.193050
v -0.066991 -0.500134 0.183986
v -0.056095 -0.465387 0.164460
vt 1.000000 0.002344
vt 1.000000 0.127321
vt 0.750046 0.127321
vt 0.750046 0.002344
vt 0.749862 0.155577
vt 0.624885 0.155577
vt 0.624885 0.002480
vt 0.749862 0.002480
vt 0.750046 0.002480
vt 0.750046 0.127457
vt 1.000000 0.127457
vt 1.000000 0.002480
vt 0.249954 0.002480
vt 0.374931 0.002480
vt 0.374931 0.155577
vt 0.249954 0.155577
vt 0.000000 0.155577
vt 0.000000 0.002481
vt 0.550225 0.832363
vt 0.506554 0.967370
vt 0.458446 0.956670
vt 0.475293 0.820672
vt 0.409645 0.954647
vt 0.402595 0.819777
vt 0.361369 0.961168
vt 0.330478 0.829348
vt 0.315626 0.976594
vt 0.257413 0.849837
vt 0.044996 0.806560
vt 0.044996 0.954579
vt 0.008018 0.954579
vt 0.008018 0.806560
vt 0.229887 0.806560
vt 0.229887 0.954579
vt 0.155931 0.954579
vt 0.155931 0.806560
vt 0.118952 0.954579
vt 0.118953 0.806560
vt 0.044996 0.769582
vt 0.118953 0.769582
vt 0.118952 0.991557
vt 0.044996 0.991557
vt 0.774379 0.345289
vt 0.774379 0.465813
vt 0.619181 0.465813
vt 0.619181 0.345289
vt 0.524955 0.573802
vt 0.524955 0.496323
vt 0.585216 0.496323
vt 0.585216 0.573802
vt 0.645058 0.313196
vt 0.645058 0.184063
vt 0.800017 0.184063
vt 0.800017 0.304587
vt 0.800017 0.304587
vt 0.800017 0.184063
vt 0.645058 0.184063
vt 0.645058 0.313196
vt 0.490048 0.465813
vt 0.490048 0.345289
vt 0.889896 0.270151
vt 0.889896 0.201280
vt 0.977690 0.236437
vt 0.977690 0.209889
vt 0.572303 0.617699
vt 0.537868 0.617699
vt 0.867100 0.371115
vt 0.867100 0.439986
vt 0.889897 0.201281
vt 0.889897 0.270151
vt 0.959554 0.388333
vt 0.986102 0.388333
vt 0.986102 0.422768
vt 0.959554 0.422768
vt 0.563694 0.660958
vt 0.546477 0.660958
vt 0.977690 0.209889
vt 0.977690 0.236437
vt 0.056947 0.502763
vt 0.031342 0.678742
vt 0.105364 0.679798
vt 0.113551 0.493295
vt 0.181247 0.679800
vt 0.172072 0.486316
vt 0.258096 0.678847
vt 0.228924 0.489689
vt 0.350833 0.653486
vt 0.278396 0.479726
vt 0.260664 0.232791
vt 0.198888 0.232721
vt 0.203989 0.273911
vt 0.255469 0.273969
vt 0.231797 0.491804
vt 0.259470 0.675650
vt 0.185342 0.676596
vt 0.174632 0.486937
vt 0.108143 0.676596
vt 0.115699 0.484082
vt 0.031342 0.675155
vt 0.058725 0.492177
vt 0.281442 0.481753
vt 0.353399 0.650288
vt 0.212076 0.231900
vt 0.272063 0.233967
vt 0.265687 0.273786
vt 0.215697 0.272064
vt 0.201809 0.294807
vt 0.255678 0.294648
vt 0.155095 0.254535
vt 0.091592 0.258712
vt 0.058515 0.304298
vt 0.264991 0.294002
vt 0.212481 0.291941
vt 0.106345 0.252865
vt 0.068530 0.296121
vt 0.169828 0.248696
vt 0.309271 0.694987
vt 0.222196 0.713314
vt 0.396937 0.686350
vt 0.484080 0.687634
vt 0.569074 0.696753
vt 0.637826 0.750046
vt 0.637826 0.937556
vt 0.575382 0.937556
vt 0.575382 0.750046
vt 0.637826 0.687602
vt 0.637826 0.500092
vt 0.937556 0.500092
vt 0.937556 0.687602
vt 1.000000 0.750046
vt 1.000000 0.937556
vt 0.937556 0.937556
vt 0.937556 0.750046
vt 0.937556 1.000000
vt 0.637826 1.000000
vt 1.000000 0.750046
vt 1.000000 0.937556
vt 0.937556 0.937556
vt 0.937556 0.750046
vt 0.637826 0.937556
vt 0.637826 0.750046
vt 0.575382 0.937556
vt 0.575382 0.750046
vt 0.637826 0.687602
vt 0.637826 0.500092
vt 0.937556 0.500092
vt 0.937556 0.687602
vt 0.937556 1.000000
vt 0.637826 1.000000
vt 0.051395 0.289109
vt 0.069292 0.255431
vt 0.084240 0.246065
vt 0.076987 0.187016
vt 0.096428 0.196312
vt 0.176155 0.244039
vt 0.191735 0.241627
vt 0.156383 0.196685
vt 0.069733 0.210295
vt 0.062349 0.279584
vt 0.193920 0.177806
vt 0.293899 0.181250
vt 0.051183 0.206234
vt 0.184607 0.197084
vt 0.174184 0.184472
vt 0.281319 0.177816
vt 0.178358 0.177699
vt 0.202337 0.190319
vt 0.061887 0.191752
vt 0.158165 0.176629
vt 0.189678 0.177487
vt 0.091701 0.176629
vt 0.398221 0.599207
vt 0.485364 0.600491
vn 0.9990 0.0000 0.0453
vn -0.0435 -0.2796 0.9591
vn -0.9990 -0.0000 -0.0453
vn 0.0435 0.2796 -0.9591
vn 0.0127 -0.9601 -0.2793
vn -0.0127 0.9601 0.2793
vn 0.9932 0.1056 0.0491
vn -0.0450 0.1112 0.9928
vn -0.9936 0.1056 -0.0410
vn 0.0451 0.0977 -0.9942
vn -0.0394 -0.4958 0.8676
vn 0.0394 0.4958 -0.8676
vn 0.0225 -0.8685 -0.4953
vn -0.0225 0.8685 0.4953
vn -0.0044 0.9953 0.0967
vn 0.0019 -0.9991 -0.0414
vn 0.0453 0.0415 -0.9981
vn 0.9438 -0.0119 0.3302
vn 0.9707 -0.0081 0.2402
vn -0.0070 -0.9879 0.1551
vn -0.0186 0.9123 0.4091
vn -0.9699 -0.0119 0.2434
vn -0.0453 -0.0415 0.9981
vn -0.0026 -0.9983 0.0581
vn -0.9885 -0.0081 0.1513
vn -0.0183 0.9152 0.4025
vn 0.9956 0.0231 -0.0905
vn 0.0225 -0.8683 -0.4955
vn -0.9833 0.0231 -0.1803
vn -0.0084 0.9827 0.1849
vn 0.0408 -0.4357 -0.8992
vn 0.9657 -0.2583 0.0251
vn -0.0798 -0.2808 0.9564
vn -0.9980 -0.0097 -0.0625
vn 0.0461 0.0106 -0.9989
vn 0.0000 -1.0000 0.0000
vn 0.0431 0.3117 -0.9492
vn -0.0437 -0.2631 0.9638
vn 0.0043 -0.4234 -0.9059
vn -0.9831 0.1745 -0.0546
vn -0.0053 0.4161 0.9093
vn 0.9829 -0.1757 0.0546
vn 0.0437 0.2684 -0.9623
vn -0.9987 0.0309 -0.0406
vn -0.0444 -0.2020 0.9784
vn 0.9983 0.0309 0.0500
vn -0.2220 0.2803 -0.9339
vn 0.9725 -0.0052 -0.2328
vn 0.2220 -0.2803 0.9339
vn -0.9725 0.0052 0.2328
vn -0.0701 -0.9599 -0.2715
vn 0.0701 0.9599 0.2715
vn 0.3057 0.2803 -0.9099
vn 0.9474 0.0052 0.3199
vn -0.3057 -0.2803 0.9099
vn -0.9474 -0.0052 -0.3199
vn 0.0944 -0.9599 -0.2640
vn -0.0944 0.9599 0.2640
vn 0.9859 0.1113 0.1251
vn -0.8875 0.1782 -0.4249
vn -0.9931 0.1114 0.0354
vn 0.0425 0.3464 -0.9371
vn 0.9985 0.0553 0.0001
vn -0.0419 0.3826 0.9230
vn -0.9763 0.1901 -0.1037
vn 0.0289 -0.4423 -0.8964
vn 0.9237 0.3829 -0.0094
vn 0.0292 0.9995 -0.0115
vn -0.9191 0.3829 -0.0930
vn 0.9305 0.1499 -0.3341
vn -0.0375 -0.5627 0.8258
vn -0.0393 0.4989 0.8658
vn 0.0094 -0.9782 -0.2076
usemtl Material
s off
f 1/1/1 2/2/1 4/3/1 3/4/1
f 3/5/2 4/6/2 8/7/2 7/8/2
f 7/9/3 8/10/3 6/11/3 5/12/3
f 5/13/4 6/14/4 2/15/4 1/16/4
f 3/17/5 7/18/5 5/13/5 1/16/5
f 8/7/6 4/6/6 2/15/6 6/14/6
f 65/19/7 10/20/7 12/21/7 66/22/7
f 66/22/8 12/21/8 16/23/8 67/24/8
f 67/24/9 16/23/9 14/25/9 68/26/9
f 68/26/10 14/25/10 10/27/10 65/28/10
f 17/29/1 18/30/1 20/31/1 19/32/1
f 19/33/11 20/34/11 24/35/11 23/36/11
f 23/36/3 24/35/3 22/37/3 21/38/3
f 21/38/12 22/37/12 18/30/12 17/29/12
f 19/39/13 23/40/13 21/38/13 17/29/13
f 24/41/14 20/42/14 18/30/14 22/37/14
f 28/43/15 26/44/15 25/45/15 27/46/15
f 32/47/16 31/48/16 29/49/16 30/50/16
f 27/51/3 31/52/3 32/53/3 28/54/3
f 26/55/1 30/56/1 29/57/1 25/58/1
f 25/45/17 29/59/17 31/60/17 27/46/17
f 26/55/18 33/61/18 35/62/18 30/56/18
f 33/61/19 37/63/19 39/64/19 35/62/19
f 30/50/20 35/65/20 36/66/20 32/47/20
f 28/43/21 34/67/21 33/68/21 26/44/21
f 32/53/22 36/69/22 34/70/22 28/54/22
f 38/71/23 40/72/23 39/73/23 37/74/23
f 35/65/24 39/75/24 40/76/24 36/66/24
f 36/69/25 40/77/25 38/78/25 34/70/25
f 34/67/26 38/71/26 37/74/26 33/68/26
f 57/79/27 42/80/27 44/81/27 58/82/27
f 58/82/28 44/81/28 48/83/28 59/84/28
f 59/84/29 48/83/29 46/85/29 60/86/29
f 60/86/30 46/85/30 42/87/30 57/88/30
f 43/89/31 47/90/31 45/91/31 41/92/31
f 61/93/32 50/94/32 52/95/32 62/96/32
f 62/96/33 52/95/33 56/97/33 63/98/33
f 63/98/34 56/97/34 54/99/34 64/100/34
f 64/101/35 54/102/35 50/94/35 61/93/35
f 51/103/36 55/104/36 53/105/36 49/106/36
f 87/107/37 60/86/37 57/88/37 88/108/37
f 86/109/3 59/84/3 60/86/3 87/107/3
f 85/110/38 58/82/38 59/84/38 86/109/38
f 88/111/1 57/79/1 58/82/1 85/110/1
f 91/112/39 64/101/39 61/93/39 92/113/39
f 90/114/40 63/98/40 64/100/40 91/115/40
f 89/116/41 62/96/41 63/98/41 90/114/41
f 92/113/42 61/93/42 62/96/42 89/116/42
f 13/117/43 68/26/43 65/28/43 9/118/43
f 15/119/44 67/24/44 68/26/44 13/117/44
f 11/120/45 66/22/45 67/24/45 15/119/45
f 9/121/46 65/19/46 66/22/46 11/120/46
f 69/122/47 70/123/47 72/124/47 71/125/47
f 71/126/48 72/127/48 76/128/48 75/129/48
f 75/130/49 76/131/49 74/132/49 73/133/49
f 73/133/50 74/132/50 70/123/50 69/122/50
f 71/126/51 75/129/51 73/133/51 69/122/51
f 76/134/52 72/135/52 70/123/52 74/132/52
f 77/136/53 78/137/53 80/138/53 79/139/53
f 79/139/54 80/138/54 84/140/54 83/141/54
f 83/141/55 84/140/55 82/142/55 81/143/55
f 81/144/56 82/145/56 78/146/56 77/147/56
f 79/139/57 83/141/57 81/144/57 77/147/57
f 84/140/58 80/138/58 78/148/58 82/149/58
f 41/150/59 88/111/59 85/110/59 43/151/59
f 90/114/60 55/152/60 99/153/60 100/154/60
f 47/155/61 86/109/61 87/107/61 45/91/61
f 45/91/62 87/107/62 88/108/62 41/92/62
f 49/106/63 92/113/63 89/116/63 51/156/63
f 85/110/64 86/109/64 96/157/64 93/158/64
f 55/152/65 90/114/65 91/115/65 53/159/65
f 53/105/66 91/112/66 92/113/66 49/106/66
f 55/104/36 51/103/36 98/160/36 99/161/36
f 43/151/67 85/110/67 93/158/67 94/162/67
f 89/116/68 90/114/68 100/154/68 97/163/68
f 86/109/69 47/155/69 95/164/69 96/157/69
f 47/90/31 43/89/31 94/165/31 95/166/31
f 51/156/70 89/116/70 97/163/70 98/167/70
f 94/168/71 93/158/71 96/157/71 95/169/71
f 98/170/72 97/163/72 100/154/72 99/171/72
f 11/120/73 15/119/73 13/172/73 9/173/73
