# Blender v2.82 (sub 7) OBJ File: 'Ostrich.blend'
# www.blender.org
mtllib Ostrich_000229.mtl
o Cube_Cube.001
v -0.249920 0.099006 0.400000
v -0.250091 0.499006 0.400000
v -0.249920 0.099006 -0.400000
v -0.250091 0.499006 -0.400000
v 0.250080 0.099220 0.400000
v 0.249909 0.499220 0.400000
v 0.250080 0.099220 -0.400000
v 0.249909 0.499220 -0.400000
v -0.100047 0.279404 -0.300000
v -0.055702 0.919429 -0.344000
v -0.100047 0.279404 -0.500000
v -0.055702 0.919429 -0.456000
v 0.099953 0.279296 -0.300000
v 0.056298 0.919369 -0.344000
v 0.099953 0.279296 -0.500000
v 0.056298 0.919369 -0.456000
v -0.100208 0.049156 0.500000
v -0.100036 0.449442 0.500000
v -0.100208 0.049156 0.400000
v -0.100036 0.449442 0.400000
v 0.099792 0.049071 0.500000
v 0.099964 0.449357 0.500000
v 0.099792 0.049071 0.400000
v 0.099964 0.449357 0.400000
v -0.069632 1.049437 -0.320000
v -0.069637 1.039437 -0.500000
v 0.070368 1.049361 -0.320000
v 0.070363 1.039361 -0.500000
v -0.069713 0.899437 -0.320000
v -0.069713 0.899437 -0.500000
v 0.070287 0.899361 -0.320000
v 0.070287 0.899361 -0.500000
v -0.039659 0.999421 -0.600000
v 0.040341 0.999378 -0.600000
v -0.039702 0.919421 -0.600000
v 0.040298 0.919378 -0.600000
v -0.019680 0.960248 -0.700000
v 0.020320 0.960226 -0.700000
v -0.019697 0.929410 -0.700000
v 0.020303 0.929388 -0.700000
v 0.100000 -0.479885 -0.191551
v 0.050043 0.194432 0.146045
v 0.090000 -0.484467 -0.271419
v 0.050024 0.205009 -0.053675
v 0.200000 -0.479885 -0.191551
v 0.250043 0.194445 0.146028
v 0.210000 -0.484467 -0.271419
v 0.250024 0.205022 -0.053692
v -0.200000 -0.500134 0.194339
v -0.249970 0.258049 0.133928
v -0.210000 -0.500134 0.114339
v -0.249962 0.141973 -0.028941
v -0.100000 -0.500134 0.194339
v -0.049970 0.258063 0.133928
v -0.090000 -0.500134 0.114339
v -0.049962 0.141987 -0.028941
v 0.100060 -0.174346 0.050415
v 0.100046 -0.147964 -0.046042
v 0.200046 -0.147962 -0.046057
v 0.200060 -0.174344 0.050400
v -0.199943 -0.097302 0.290476
v -0.199946 -0.124155 0.194149
v -0.099946 -0.124158 0.194147
v -0.099943 -0.097305 0.290474
v -0.089874 0.599423 -0.310000
v -0.089874 0.599423 -0.490000
v 0.090126 0.599326 -0.490000
v 0.090126 0.599326 -0.310000
v 0.350454 0.149246 0.279895
v 0.350325 0.449532 0.279906
v 0.250454 0.149203 0.279981
v 0.250325 0.449489 0.279992
v 0.350043 0.149264 -0.200105
v 0.349914 0.449550 -0.200093
v 0.250043 0.149221 -0.200019
v 0.249914 0.449507 -0.200008
v -0.250336 0.149023 0.280010
v -0.250465 0.449309 0.279999
v -0.350336 0.148980 0.279925
v -0.350465 0.449266 0.279913
v -0.249925 0.149006 -0.199990
v -0.250054 0.449292 -0.200001
v -0.349925 0.148963 -0.200075
v -0.350054 0.449249 -0.200086
v 0.099997 -0.445857 -0.270070
v 0.199997 -0.445859 -0.270080
v 0.200007 -0.449592 -0.170150
v 0.100007 -0.449591 -0.170140
v -0.199999 -0.470340 0.109795
v -0.099999 -0.470347 0.109793
v -0.099996 -0.456709 0.208858
v -0.199996 -0.456703 0.208861
v 0.060000 -0.454749 -0.360100
v 0.050000 -0.490584 -0.378077
v 0.250000 -0.490584 -0.378077
v 0.240000 -0.454749 -0.360100
v -0.240000 -0.465387 0.027506
v -0.250000 -0.500134 0.007506
v -0.050000 -0.500134 0.007506
v -0.060000 -0.465387 0.027506
vt 1.000000 0.002344
vt 1.000000 0.127321
vt 0.750046 0.127321
vt 0.750046 0.002344
vt 0.749862 0.155577
vt 0.624885 0.155577
vt 0.624885 0.002480
vt 0.749862 0.002480
vt 0.750046 0.002480
vt 0.750046 0.127457
vt 1.000000 0.127457
vt 1.000000 0.002480
vt 0.249954 0.002480
vt 0.374931 0.002480
vt 0.374931 0.155577
vt 0.249954 0.155577
vt 0.000000 0.155577
vt 0.000000 0.002481
vt 0.550225 0.832363
vt 0.506554 0.967370
vt 0.458446 0.956670
vt 0.475293 0.820672
vt 0.409645 0.954647
vt 0.402595 0.819777
vt 0.361369 0.961168
vt 0.330478 0.829348
vt 0.315626 0.976594
vt 0.257413 0.849837
vt 0.044996 0.806560
vt 0.044996 0.954579
vt 0.008018 0.954579
vt 0.008018 0.806560
vt 0.229887 0.806560
vt 0.229887 0.954579
vt 0.155931 0.954579
vt 0.155931 0.806560
vt 0.118952 0.954579
vt 0.118953 0.806560
vt 0.044996 0.769582
vt 0.118953 0.769582
vt 0.118952 0.991557
vt 0.044996 0.991557
vt 0.774379 0.345289
vt 0.774379 0.465813
vt 0.619181 0.465813
vt 0.619181 0.345289
vt 0.524955 0.573802
vt 0.524955 0.496323
vt 0.585216 0.496323
vt 0.585216 0.573802
vt 0.645058 0.313196
vt 0.645058 0.184063
vt 0.800017 0.184063
vt 0.800017 0.304587
vt 0.800017 0.304587
vt 0.800017 0.184063
vt 0.645058 0.184063
vt 0.645058 0.313196
vt 0.490048 0.465813
vt 0.490048 0.345289
vt 0.889896 0.270151
vt 0.889896 0.201280
vt 0.977690 0.236437
vt 0.977690 0.209889
vt 0.572303 0.617699
vt 0.537868 0.617699
vt 0.867100 0.371115
vt 0.867100 0.439986
vt 0.889897 0.201281
vt 0.889897 0.270151
vt 0.959554 0.388333
vt 0.986102 0.388333
vt 0.986102 0.422768
vt 0.959554 0.422768
vt 0.563694 0.660958
vt 0.546477 0.660958
vt 0.977690 0.209889
vt 0.977690 0.236437
vt 0.056947 0.502763
vt 0.031342 0.678742
vt 0.105364 0.679798
vt 0.113551 0.493295
vt 0.181247 0.679800
vt 0.172072 0.486316
vt 0.258096 0.678847
vt 0.228924 0.489689
vt 0.350833 0.653486
vt 0.278396 0.479726
vt 0.260664 0.232791
vt 0.198888 0.232721
vt 0.203989 0.273911
vt 0.255469 0.273969
vt 0.231797 0.491804
vt 0.259470 0.675650
vt 0.185342 0.676596
vt 0.174632 0.486937
vt 0.108143 0.676596
vt 0.115699 0.484082
vt 0.031342 0.675155
vt 0.058725 0.492177
vt 0.281442 0.481753
vt 0.353399 0.650288
vt 0.212076 0.231900
vt 0.272063 0.233967
vt 0.265687 0.273786
vt 0.215697 0.272064
vt 0.201809 0.294807
vt 0.255678 0.294648
vt 0.155095 0.254535
vt 0.091592 0.258712
vt 0.058515 0.304298
vt 0.264991 0.294002
vt 0.212481 0.291941
vt 0.106345 0.252865
vt 0.068530 0.296121
vt 0.169828 0.248696
vt 0.309271 0.694987
vt 0.222196 0.713314
vt 0.396937 0.686350
vt 0.484080 0.687634
vt 0.569074 0.696753
vt 0.637826 0.750046
vt 0.637826 0.937556
vt 0.575382 0.937556
vt 0.575382 0.750046
vt 0.637826 0.687602
vt 0.637826 0.500092
vt 0.937556 0.500092
vt 0.937556 0.687602
vt 1.000000 0.750046
vt 1.000000 0.937556
vt 0.937556 0.937556
vt 0.937556 0.750046
vt 0.937556 1.000000
vt 0.637826 1.000000
vt 1.000000 0.750046
vt 1.000000 0.937556
vt 0.937556 0.937556
vt 0.937556 0.750046
vt 0.637826 0.937556
vt 0.637826 0.750046
vt 0.575382 0.937556
vt 0.575382 0.750046
vt 0.637826 0.687602
vt 0.637826 0.500092
vt 0.937556 0.500092
vt 0.937556 0.687602
vt 0.937556 1.000000
vt 0.637826 1.000000
vt 0.051395 0.289109
vt 0.069292 0.255431
vt 0.084240 0.246065
vt 0.076987 0.187016
vt 0.096428 0.196312
vt 0.176155 0.244039
vt 0.191735 0.241627
vt 0.156383 0.196685
vt 0.069733 0.210295
vt 0.062349 0.279584
vt 0.193920 0.177806
vt 0.293899 0.181250
vt 0.051183 0.206234
vt 0.184607 0.197084
vt 0.174184 0.184472
vt 0.281319 0.177816
vt 0.178358 0.177699
vt 0.202337 0.190319
vt 0.061887 0.191752
vt 0.158165 0.176629
vt 0.189678 0.177487
vt 0.091701 0.176629
vt 0.398221 0.599207
vt 0.485364 0.600491
vn -1.0000 -0.0004 0.0000
vn 0.0000 0.0000 -1.0000
vn 1.0000 0.0004 0.0000
vn 0.0000 0.0000 1.0000
vn 0.0004 -1.0000 0.0000
vn -0.0004 1.0000 0.0000
vn -0.9943 0.1062 0.0000
vn 0.0001 0.1056 -0.9944
vn 0.9945 0.1051 0.0000
vn 0.0001 0.1056 0.9944
vn -1.0000 0.0004 0.0000
vn 1.0000 -0.0004 0.0000
vn -0.0004 -1.0000 0.0000
vn 0.0004 1.0000 0.0000
vn 0.0005 0.9985 -0.0555
vn -0.0005 -1.0000 0.0000
vn 1.0000 -0.0005 0.0000
vn -1.0000 0.0005 -0.0000
vn -0.9578 0.0005 -0.2873
vn -0.9806 0.0005 -0.1961
vn -0.0005 -0.9806 -0.1961
vn 0.0005 0.9285 -0.3714
vn 0.9578 -0.0005 -0.2873
vn -0.0005 -0.9950 -0.0995
vn 0.9806 -0.0005 -0.1961
vn 0.0005 0.9311 -0.3647
vn -0.9907 -0.1353 -0.0168
vn -0.0001 -0.0216 -0.9998
vn 0.9907 -0.1351 -0.0170
vn 0.0001 -0.2510 0.9680
vn 0.0000 -0.9984 0.0573
vn -0.9907 -0.1193 0.0658
vn 0.0000 -0.6424 -0.7664
vn 0.9907 -0.1192 0.0657
vn -0.0000 0.4031 0.9151
vn 0.0000 -1.0000 0.0000
vn 0.0001 -0.6253 0.7804
vn 1.0000 -0.0001 -0.0001
vn -0.0001 0.6010 -0.7992
vn -1.0000 0.0001 0.0001
vn 0.0000 -0.2214 0.9752
vn 1.0000 -0.0001 -0.0000
vn -0.0000 0.2367 -0.9716
vn -1.0000 0.0001 0.0000
vn 0.0000 0.0312 0.9995
vn 0.9995 0.0307 0.0000
vn 0.0000 0.0312 -0.9995
vn -0.9995 0.0318 0.0000
vn 0.0009 -0.0000 1.0000
vn -1.0000 -0.0004 0.0009
vn -0.0009 0.0000 -1.0000
vn 1.0000 0.0004 -0.0009
vn -0.0009 0.0000 1.0000
vn -1.0000 -0.0004 -0.0009
vn 0.0009 -0.0000 -1.0000
vn 1.0000 0.0004 0.0009
vn -0.9906 0.1258 0.0546
vn 0.9029 0.1872 0.3869
vn 0.9906 0.1257 0.0544
vn 0.0000 -0.5771 0.8167
vn -0.9906 0.1292 0.0455
vn 0.0000 0.9952 -0.0983
vn 0.9906 0.1290 0.0455
vn 0.0000 -0.3171 0.9484
vn -0.9194 0.1529 0.3623
vn 0.0000 0.9982 0.0601
vn 0.9194 0.1530 0.3623
vn -0.9029 0.1872 0.3869
vn 0.0000 0.4484 -0.8938
vn 0.0000 0.4989 -0.8667
usemtl Material
s off
f 1/1/1 2/2/1 4/3/1 3/4/1
f 3/5/2 4/6/2 8/7/2 7/8/2
f 7/9/3 8/10/3 6/11/3 5/12/3
f 5/13/4 6/14/4 2/15/4 1/16/4
f 3/17/5 7/18/5 5/13/5 1/16/5
f 8/7/6 4/6/6 2/15/6 6/14/6
f 65/19/7 10/20/7 12/21/7 66/22/7
f 66/22/8 12/21/8 16/23/8 67/24/8
f 67/24/9 16/23/9 14/25/9 68/26/9
f 68/26/10 14/25/10 10/27/10 65/28/10
f 17/29/11 18/30/11 20/31/11 19/32/11
f 19/33/2 20/34/2 24/35/2 23/36/2
f 23/36/12 24/35/12 22/37/12 21/38/12
f 21/38/4 22/37/4 18/30/4 17/29/4
f 19/39/13 23/40/13 21/38/13 17/29/13
f 24/41/14 20/42/14 18/30/14 22/37/14
f 28/43/15 26/44/15 25/45/15 27/46/15
f 32/47/16 31/48/16 29/49/16 30/50/16
f 27/51/17 31/52/17 32/53/17 28/54/17
f 26/55/18 30/56/18 29/57/18 25/58/18
f 25/45/4 29/59/4 31/60/4 27/46/4
f 26/55/19 33/61/19 35/62/19 30/56/19
f 33/61/20 37/63/20 39/64/20 35/62/20
f 30/50/21 35/65/21 36/66/21 32/47/21
f 28/43/22 34/67/22 33/68/22 26/44/22
f 32/53/23 36/69/23 34/70/23 28/54/23
f 38/71/2 40/72/2 39/73/2 37/74/2
f 35/65/24 39/75/24 40/76/24 36/66/24
f 36/69/25 40/77/25 38/78/25 34/70/25
f 34/67/26 38/71/26 37/74/26 33/68/26
f 57/79/27 42/80/27 44/81/27 58/82/27
f 58/82/28 44/81/28 48/83/28 59/84/28
f 59/84/29 48/83/29 46/85/29 60/86/29
f 60/86/30 46/85/30 42/87/30 57/88/30
f 43/89/31 47/90/31 45/91/31 41/92/31
f 61/93/32 50/94/32 52/95/32 62/96/32
f 62/96/33 52/95/33 56/97/33 63/98/33
f 63/98/34 56/97/34 54/99/34 64/100/34
f 64/101/35 54/102/35 50/94/35 61/93/35
f 51/103/36 55/104/36 53/105/36 49/106/36
f 87/107/37 60/86/37 57/88/37 88/108/37
f 86/109/38 59/84/38 60/86/38 87/107/38
f 85/110/39 58/82/39 59/84/39 86/109/39
f 88/111/40 57/79/40 58/82/40 85/110/40
f 91/112/41 64/101/41 61/93/41 92/113/41
f 90/114/42 63/98/42 64/100/42 91/115/42
f 89/116/43 62/96/43 63/98/43 90/114/43
f 92/113/44 61/93/44 62/96/44 89/116/44
f 13/117/45 68/26/45 65/28/45 9/118/45
f 15/119/46 67/24/46 68/26/46 13/117/46
f 11/120/47 66/22/47 67/24/47 15/119/47
f 9/121/48 65/19/48 66/22/48 11/120/48
f 69/122/49 70/123/49 72/124/49 71/125/49
f 71/126/50 72/127/50 76/128/50 75/129/50
f 75/130/51 76/131/51 74/132/51 73/133/51
f 73/133/52 74/132/52 70/123/52 69/122/52
f 71/126/5 75/129/5 73/133/5 69/122/5
f 76/134/6 72/135/6 70/123/6 74/132/6
f 77/136/53 78/137/53 80/138/53 79/139/53
f 79/139/54 80/138/54 84/140/54 83/141/54
f 83/141/55 84/140/55 82/142/55 81/143/55
f 81/144/56 82/145/56 78/146/56 77/147/56
f 79/139/5 83/141/5 81/144/5 77/147/5
f 84/140/6 80/138/6 78/148/6 82/149/6
f 41/150/57 88/111/57 85/110/57 43/151/57
f 90/114/58 55/152/58 99/153/58 100/154/58
f 47/155/59 86/109/59 87/107/59 45/91/59
f 45/91/60 87/107/60 88/108/60 41/92/60
f 49/106/61 92/113/61 89/116/61 51/156/61
f 85/110/62 86/109/62 96/157/62 93/158/62
f 55/152/63 90/114/63 91/115/63 53/159/63
f 53/105/64 91/112/64 92/113/64 49/106/64
f 55/104/36 51/103/36 98/160/36 99/161/36
f 43/151/65 85/110/65 93/158/65 94/162/65
f 89/116/66 90/114/66 100/154/66 97/163/66
f 86/109/67 47/155/67 95/164/67 96/157/67
f 47/90/31 43/89/31 94/165/31 95/166/31
f 51/156/68 89/116/68 97/163/68 98/167/68
f 94/168/69 93/158/69 96/157/69 95/169/69
f 98/170/70 97/163/70 100/154/70 99/171/70
f 11/120/16 15/119/16 13/172/16 9/173/16
