# Blender v2.82 (sub 7) OBJ File: 'Ostrich.blend'
# www.blender.org
mtllib Ostrich_000073.mtl
o Cube_Cube.001
v 0.328987 0.198387 -0.376567
v 0.310778 0.587134 -0.284133
v 0.178711 0.009967 0.386267
v 0.160502 0.398714 0.478700
v -0.161584 0.198387 -0.473208
v -0.179793 0.587134 -0.380774
v -0.311860 0.009967 0.289626
v -0.330069 0.398714 0.382059
v 0.041686 0.200528 0.305770
v -0.019077 0.816321 0.386573
v 0.003546 0.167934 0.499376
v -0.040683 0.823302 0.496247
v -0.154543 0.200528 0.267114
v -0.128965 0.816321 0.364925
v -0.192682 0.167934 0.460719
v -0.150571 0.823302 0.474599
v 0.214558 0.216243 -0.571766
v 0.181942 0.579220 -0.406198
v 0.197031 0.174086 -0.482796
v 0.164415 0.537063 -0.317228
v 0.018330 0.216243 -0.610422
v -0.014287 0.579220 -0.444854
v 0.000803 0.174086 -0.521453
v -0.031814 0.537063 -0.355885
v -0.001105 0.949687 0.367776
v -0.035875 0.937898 0.544275
v -0.138465 0.949687 0.340716
v -0.173235 0.937898 0.517216
v -0.000817 0.799694 0.366312
v -0.035606 0.797904 0.542909
v -0.138177 0.799694 0.339253
v -0.172966 0.797904 0.515850
v -0.084560 0.896905 0.636196
v -0.163051 0.896905 0.620733
v -0.084406 0.816909 0.635415
v -0.162898 0.816909 0.619953
v -0.123435 0.856751 0.730058
v -0.162681 0.856751 0.722326
v -0.123376 0.825914 0.729757
v -0.162621 0.825914 0.722025
v -0.005206 -0.075411 -0.490950
v -0.039721 0.319180 -0.057057
v -0.004600 -0.139689 -0.442287
v -0.029250 0.126658 -0.110211
v -0.103320 -0.075411 -0.510278
v -0.235950 0.319180 -0.095713
v -0.122338 -0.139689 -0.465481
v -0.225479 0.126657 -0.148867
v 0.106813 -0.500134 0.021042
v 0.277630 0.226470 -0.111732
v 0.101162 -0.500134 0.101466
v 0.235567 0.178641 0.077854
v 0.008698 -0.500134 0.001714
v 0.082377 0.247004 -0.149872
v -0.016576 -0.500134 0.078272
v 0.040314 0.199175 0.039715
v -0.009277 0.335989 -0.470290
v -0.019281 0.250427 -0.419505
v -0.117396 0.250427 -0.438833
v -0.107391 0.335989 -0.489618
v 0.193547 -0.150847 -0.143489
v 0.173398 -0.148303 -0.045574
v 0.076209 -0.136396 -0.065882
v 0.096358 -0.138940 -0.163798
v 0.018545 0.504297 0.371503
v -0.016201 0.495181 0.547882
v -0.192807 0.495181 0.513091
v -0.158061 0.504297 0.336712
v -0.420175 0.221627 -0.347406
v -0.411003 0.513277 -0.276496
v -0.320379 0.219989 -0.353575
v -0.311207 0.511638 -0.282666
v -0.393272 0.107606 0.118078
v -0.384100 0.399256 0.188988
v -0.293476 0.105968 0.111909
v -0.284304 0.397617 0.182818
v 0.431355 0.219825 -0.208070
v 0.395974 0.511474 -0.145936
v 0.521355 0.221463 -0.164511
v 0.485974 0.513113 -0.102378
v 0.229916 0.105804 0.212432
v 0.194535 0.397453 0.274565
v 0.319916 0.107442 0.255990
v 0.284535 0.399092 0.318123
v -0.019995 -0.109153 -0.415880
v -0.118110 -0.109153 -0.435208
v -0.103905 -0.041336 -0.507312
v -0.005791 -0.041336 -0.487984
v 0.092781 -0.469516 0.101481
v -0.004855 -0.462695 0.080973
v 0.015878 -0.459920 -0.016814
v 0.113515 -0.466741 0.003694
v 0.009446 -0.188770 -0.358376
v 0.022352 -0.225526 -0.372152
v -0.173877 -0.225526 -0.410809
v -0.167160 -0.188770 -0.393167
v 0.113813 -0.465387 0.192460
v 0.119758 -0.500134 0.214016
v -0.076470 -0.500134 0.175359
v -0.062793 -0.465387 0.157669
vt 1.000000 0.002344
vt 1.000000 0.127321
vt 0.750046 0.127321
vt 0.750046 0.002344
vt 0.749862 0.155577
vt 0.624885 0.155577
vt 0.624885 0.002480
vt 0.749862 0.002480
vt 0.750046 0.002480
vt 0.750046 0.127457
vt 1.000000 0.127457
vt 1.000000 0.002480
vt 0.249954 0.002480
vt 0.374931 0.002480
vt 0.374931 0.155577
vt 0.249954 0.155577
vt 0.000000 0.155577
vt 0.000000 0.002481
vt 0.550225 0.832363
vt 0.506554 0.967370
vt 0.458446 0.956670
vt 0.475293 0.820672
vt 0.409645 0.954647
vt 0.402595 0.819777
vt 0.361369 0.961168
vt 0.330478 0.829348
vt 0.315626 0.976594
vt 0.257413 0.849837
vt 0.044996 0.806560
vt 0.044996 0.954579
vt 0.008018 0.954579
vt 0.008018 0.806560
vt 0.229887 0.806560
vt 0.229887 0.954579
vt 0.155931 0.954579
vt 0.155931 0.806560
vt 0.118952 0.954579
vt 0.118953 0.806560
vt 0.044996 0.769582
vt 0.118953 0.769582
vt 0.118952 0.991557
vt 0.044996 0.991557
vt 0.774379 0.345289
vt 0.774379 0.465813
vt 0.619181 0.465813
vt 0.619181 0.345289
vt 0.524955 0.573802
vt 0.524955 0.496323
vt 0.585216 0.496323
vt 0.585216 0.573802
vt 0.645058 0.313196
vt 0.645058 0.184063
vt 0.800017 0.184063
vt 0.800017 0.304587
vt 0.800017 0.304587
vt 0.800017 0.184063
vt 0.645058 0.184063
vt 0.645058 0.313196
vt 0.490048 0.465813
vt 0.490048 0.345289
vt 0.889896 0.270151
vt 0.889896 0.201280
vt 0.977690 0.236437
vt 0.977690 0.209889
vt 0.572303 0.617699
vt 0.537868 0.617699
vt 0.867100 0.371115
vt 0.867100 0.439986
vt 0.889897 0.201281
vt 0.889897 0.270151
vt 0.959554 0.388333
vt 0.986102 0.388333
vt 0.986102 0.422768
vt 0.959554 0.422768
vt 0.563694 0.660958
vt 0.546477 0.660958
vt 0.977690 0.209889
vt 0.977690 0.236437
vt 0.056947 0.502763
vt 0.031342 0.678742
vt 0.105364 0.679798
vt 0.113551 0.493295
vt 0.181247 0.679800
vt 0.172072 0.486316
vt 0.258096 0.678847
vt 0.228924 0.489689
vt 0.350833 0.653486
vt 0.278396 0.479726
vt 0.260664 0.232791
vt 0.198888 0.232721
vt 0.203989 0.273911
vt 0.255469 0.273969
vt 0.231797 0.491804
vt 0.259470 0.675650
vt 0.185342 0.676596
vt 0.174632 0.486937
vt 0.108143 0.676596
vt 0.115699 0.484082
vt 0.031342 0.675155
vt 0.058725 0.492177
vt 0.281442 0.481753
vt 0.353399 0.650288
vt 0.212076 0.231900
vt 0.272063 0.233967
vt 0.265687 0.273786
vt 0.215697 0.272064
vt 0.201809 0.294807
vt 0.255678 0.294648
vt 0.155095 0.254535
vt 0.091592 0.258712
vt 0.058515 0.304298
vt 0.264991 0.294002
vt 0.212481 0.291941
vt 0.106345 0.252865
vt 0.068530 0.296121
vt 0.169828 0.248696
vt 0.309271 0.694987
vt 0.222196 0.713314
vt 0.396937 0.686350
vt 0.484080 0.687634
vt 0.569074 0.696753
vt 0.637826 0.750046
vt 0.637826 0.937556
vt 0.575382 0.937556
vt 0.575382 0.750046
vt 0.637826 0.687602
vt 0.637826 0.500092
vt 0.937556 0.500092
vt 0.937556 0.687602
vt 1.000000 0.750046
vt 1.000000 0.937556
vt 0.937556 0.937556
vt 0.937556 0.750046
vt 0.937556 1.000000
vt 0.637826 1.000000
vt 1.000000 0.750046
vt 1.000000 0.937556
vt 0.937556 0.937556
vt 0.937556 0.750046
vt 0.637826 0.937556
vt 0.637826 0.750046
vt 0.575382 0.937556
vt 0.575382 0.750046
vt 0.637826 0.687602
vt 0.637826 0.500092
vt 0.937556 0.500092
vt 0.937556 0.687602
vt 0.937556 1.000000
vt 0.637826 1.000000
vt 0.051395 0.289109
vt 0.069292 0.255431
vt 0.084240 0.246065
vt 0.076987 0.187016
vt 0.096428 0.196312
vt 0.176155 0.244039
vt 0.191735 0.241627
vt 0.156383 0.196685
vt 0.069733 0.210295
vt 0.062349 0.279584
vt 0.193920 0.177806
vt 0.293899 0.181250
vt 0.051183 0.206234
vt 0.184607 0.197084
vt 0.174184 0.184472
vt 0.281319 0.177816
vt 0.178358 0.177699
vt 0.202337 0.190319
vt 0.061887 0.191752
vt 0.158165 0.176629
vt 0.189678 0.177487
vt 0.091701 0.176629
vt 0.398221 0.599207
vt 0.485364 0.600491
vn 0.9811 0.0000 0.1933
vn -0.1878 -0.2355 0.9535
vn -0.9811 -0.0000 -0.1933
vn 0.1878 0.2355 -0.9535
vn 0.0455 -0.9719 -0.2311
vn -0.0455 0.9719 0.2311
vn 0.9755 0.1057 0.1930
vn -0.1914 0.1386 0.9717
vn -0.9758 0.1057 -0.1914
vn 0.1928 0.0705 -0.9787
vn -0.1753 -0.4216 0.8897
vn 0.1753 0.4216 -0.8897
vn 0.0815 -0.9068 -0.4136
vn -0.0815 0.9068 0.4136
vn -0.0126 0.9979 0.0642
vn 0.0019 -1.0000 -0.0098
vn 0.1933 0.0099 -0.9811
vn 0.8842 -0.0029 0.4670
vn 0.9242 -0.0020 0.3819
vn -0.0360 -0.9825 0.1828
vn -0.0736 0.9247 0.3734
vn -0.9953 -0.0029 0.0968
vn -0.1933 -0.0099 0.9811
vn -0.0173 -0.9960 0.0879
vn -1.0000 -0.0020 0.0029
vn -0.0723 0.9275 0.3668
vn 0.9984 0.0012 0.0561
vn 0.0726 -0.9268 -0.3685
vn -0.9451 0.0012 -0.3268
vn -0.0079 0.9992 0.0401
vn 0.1553 -0.5953 -0.7883
vn 0.9568 -0.2361 0.1698
vn -0.2193 -0.3110 0.9248
vn -0.9758 -0.0317 -0.2161
vn 0.2001 0.0402 -0.9789
vn 0.0000 -1.0000 0.0000
vn 0.1931 0.0477 -0.9800
vn -0.1933 0.0103 0.9811
vn 0.1426 -0.4444 -0.8844
vn -0.9679 0.1498 -0.2020
vn -0.1437 0.4386 0.8871
vn 0.9677 -0.1507 0.2020
vn 0.1885 0.2214 -0.9568
vn -0.9813 0.0310 -0.1898
vn -0.1909 -0.1552 0.9693
vn 0.9800 0.0310 0.1966
vn -0.0560 0.2375 -0.9698
vn 0.9980 -0.0164 -0.0617
vn 0.0560 -0.2375 0.9698
vn -0.9980 0.0164 0.0617
vn -0.0305 -0.9712 -0.2361
vn 0.0305 0.9712 0.2361
vn 0.4197 0.2375 -0.8760
vn 0.9000 0.0164 0.4356
vn -0.4197 -0.2375 0.8760
vn -0.9000 -0.0164 -0.4356
vn 0.1178 -0.9712 -0.2069
vn -0.1178 0.9712 0.2069
vn 0.9611 0.1259 0.2459
vn -0.8165 0.1729 -0.5509
vn -0.9825 0.1259 -0.1370
vn 0.1925 0.0884 -0.9773
vn 0.9869 0.0657 0.1471
vn -0.1630 0.5374 0.8275
vn -0.9516 0.1810 -0.2482
vn 0.1621 -0.4569 -0.8746
vn 0.9316 0.3594 0.0543
vn 0.0255 0.9997 -0.0030
vn -0.8826 0.3594 -0.3031
vn 0.9700 0.1494 -0.1919
vn -0.1772 -0.3994 0.8995
vn -0.1675 0.4989 0.8503
vn 0.0315 -0.9866 -0.1599
usemtl Material
s off
f 1/1/1 2/2/1 4/3/1 3/4/1
f 3/5/2 4/6/2 8/7/2 7/8/2
f 7/9/3 8/10/3 6/11/3 5/12/3
f 5/13/4 6/14/4 2/15/4 1/16/4
f 3/17/5 7/18/5 5/13/5 1/16/5
f 8/7/6 4/6/6 2/15/6 6/14/6
f 65/19/7 10/20/7 12/21/7 66/22/7
f 66/22/8 12/21/8 16/23/8 67/24/8
f 67/24/9 16/23/9 14/25/9 68/26/9
f 68/26/10 14/25/10 10/27/10 65/28/10
f 17/29/1 18/30/1 20/31/1 19/32/1
f 19/33/11 20/34/11 24/35/11 23/36/11
f 23/36/3 24/35/3 22/37/3 21/38/3
f 21/38/12 22/37/12 18/30/12 17/29/12
f 19/39/13 23/40/13 21/38/13 17/29/13
f 24/41/14 20/42/14 18/30/14 22/37/14
f 28/43/15 26/44/15 25/45/15 27/46/15
f 32/47/16 31/48/16 29/49/16 30/50/16
f 27/51/3 31/52/3 32/53/3 28/54/3
f 26/55/1 30/56/1 29/57/1 25/58/1
f 25/45/17 29/59/17 31/60/17 27/46/17
f 26/55/18 33/61/18 35/62/18 30/56/18
f 33/61/19 37/63/19 39/64/19 35/62/19
f 30/50/20 35/65/20 36/66/20 32/47/20
f 28/43/21 34/67/21 33/68/21 26/44/21
f 32/53/22 36/69/22 34/70/22 28/54/22
f 38/71/23 40/72/23 39/73/23 37/74/23
f 35/65/24 39/75/24 40/76/24 36/66/24
f 36/69/25 40/77/25 38/78/25 34/70/25
f 34/67/26 38/71/26 37/74/26 33/68/26
f 57/79/27 42/80/27 44/81/27 58/82/27
f 58/82/28 44/81/28 48/83/28 59/84/28
f 59/84/29 48/83/29 46/85/29 60/86/29
f 60/86/30 46/85/30 42/87/30 57/88/30
f 43/89/31 47/90/31 45/91/31 41/92/31
f 61/93/32 50/94/32 52/95/32 62/96/32
f 62/96/33 52/95/33 56/97/33 63/98/33
f 63/98/34 56/97/34 54/99/34 64/100/34
f 64/101/35 54/102/35 50/94/35 61/93/35
f 51/103/36 55/104/36 53/105/36 49/106/36
f 87/107/37 60/86/37 57/88/37 88/108/37
f 86/109/3 59/84/3 60/86/3 87/107/3
f 85/110/38 58/82/38 59/84/38 86/109/38
f 88/111/1 57/79/1 58/82/1 85/110/1
f 91/112/39 64/101/39 61/93/39 92/113/39
f 90/114/40 63/98/40 64/100/40 91/115/40
f 89/116/41 62/96/41 63/98/41 90/114/41
f 92/113/42 61/93/42 62/96/42 89/116/42
f 13/117/43 68/26/43 65/28/43 9/118/43
f 15/119/44 67/24/44 68/26/44 13/117/44
f 11/120/45 66/22/45 67/24/45 15/119/45
f 9/121/46 65/19/46 66/22/46 11/120/46
f 69/122/47 70/123/47 72/124/47 71/125/47
f 71/126/48 72/127/48 76/128/48 75/129/48
f 75/130/49 76/131/49 74/132/49 73/133/49
f 73/133/50 74/132/50 70/123/50 69/122/50
f 71/126/51 75/129/51 73/133/51 69/122/51
f 76/134/52 72/135/52 70/123/52 74/132/52
f 77/136/53 78/137/53 80/138/53 79/139/53
f 79/139/54 80/138/54 84/140/54 83/141/54
f 83/141/55 84/140/55 82/142/55 81/143/55
f 81/144/56 82/145/56 78/146/56 77/147/56
f 79/139/57 83/141/57 81/144/57 77/147/57
f 84/140/58 80/138/58 78/148/58 82/149/58
f 41/150/59 88/111/59 85/110/59 43/151/59
f 90/114/60 55/152/60 99/153/60 100/154/60
f 47/155/61 86/109/61 87/107/61 45/91/61
f 45/91/62 87/107/62 88/108/62 41/92/62
f 49/106/63 92/113/63 89/116/63 51/156/63
f 85/110/64 86/109/64 96/157/64 93/158/64
f 55/152/65 90/114/65 91/115/65 53/159/65
f 53/105/66 91/112/66 92/113/66 49/106/66
f 55/104/36 51/103/36 98/160/36 99/161/36
f 43/151/67 85/110/67 93/158/67 94/162/67
f 89/116/68 90/114/68 100/154/68 97/163/68
f 86/109/69 47/155/69 95/164/69 96/157/69
f 47/90/31 43/89/31 94/165/31 95/166/31
f 51/156/70 89/116/70 97/163/70 98/167/70
f 94/168/71 93/158/71 96/157/71 95/169/71
f 98/170/72 97/163/72 100/154/72 99/171/72
f 11/120/73 15/119/73 13/172/73 9/173/73
