# Blender v2.82 (sub 7) OBJ File: 'Ostrich.blend'
# www.blender.org
mtllib Ostrich_000089.mtl
o Cube_Cube.001
v -0.220506 0.103738 0.418666
v -0.220777 0.503720 0.414903
v -0.277949 0.096191 -0.379233
v -0.278220 0.496173 -0.382997
v 0.278203 0.103738 0.382763
v 0.277932 0.503720 0.378999
v 0.220760 0.096191 -0.415136
v 0.220490 0.496173 -0.418900
v -0.121284 0.277195 -0.292046
v -0.080793 0.916547 -0.342376
v -0.135645 0.275637 -0.491523
v -0.088836 0.916435 -0.454087
v 0.078200 0.277195 -0.306407
v 0.030918 0.916547 -0.350418
v 0.063839 0.275637 -0.505885
v 0.022875 0.916435 -0.462129
v -0.063476 0.055539 0.510921
v -0.063973 0.455765 0.504021
v -0.070656 0.053811 0.411194
v -0.071153 0.454037 0.404294
v 0.136007 0.055539 0.496560
v 0.135510 0.455765 0.489659
v 0.128828 0.053811 0.396833
v 0.128331 0.454037 0.389932
v -0.093065 1.046716 -0.317872
v -0.105988 1.036144 -0.497375
v 0.046573 1.046716 -0.327925
v 0.033650 1.036144 -0.507428
v -0.093031 0.896717 -0.317396
v -0.105956 0.896144 -0.496930
v 0.046607 0.896717 -0.327449
v 0.033682 0.896144 -0.506983
v -0.083237 0.995825 -0.599143
v -0.003444 0.995825 -0.604888
v -0.083219 0.915826 -0.598889
v -0.003425 0.915826 -0.604634
v -0.070460 0.956345 -0.700197
v -0.030564 0.956345 -0.703069
v -0.070453 0.925508 -0.700099
v -0.030557 0.925508 -0.702971
v 0.101170 -0.483100 0.012658
v 0.060086 0.242922 0.138297
v 0.085455 -0.485751 -0.066374
v 0.047057 0.158773 -0.042670
v 0.200912 -0.483100 0.005477
v 0.259569 0.242922 0.123936
v 0.205145 -0.485751 -0.074990
v 0.246541 0.158773 -0.057032
v -0.195850 -0.500134 0.014100
v -0.239101 0.234248 0.162312
v -0.211569 -0.500134 -0.064976
v -0.252261 0.166389 -0.025363
v -0.096108 -0.500134 0.006919
v -0.039612 0.235015 0.148046
v -0.091878 -0.500134 -0.073592
v -0.052772 0.167156 -0.039629
v 0.116304 -0.138478 0.222872
v 0.109126 -0.141242 0.123169
v 0.208868 -0.141242 0.115988
v 0.216046 -0.138478 0.215692
v -0.183865 -0.150008 0.213405
v -0.190948 -0.149904 0.113656
v -0.091200 -0.149424 0.106574
v -0.084117 -0.149529 0.206323
v -0.112224 0.596844 -0.305463
v -0.125149 0.596053 -0.484997
v 0.054386 0.596053 -0.497922
v 0.067311 0.596844 -0.318388
v 0.373255 0.152852 0.254314
v 0.372365 0.453124 0.251540
v 0.273569 0.152630 0.262230
v 0.272679 0.452902 0.259456
v 0.335271 0.148321 -0.224160
v 0.334381 0.448593 -0.226933
v 0.235585 0.148098 -0.216244
v 0.234695 0.448370 -0.219017
v -0.233181 0.152608 0.298786
v -0.232698 0.452880 0.295913
v -0.332973 0.152830 0.305231
v -0.332489 0.453102 0.302358
v -0.264126 0.148076 -0.180194
v -0.263642 0.448348 -0.183067
v -0.363918 0.148298 -0.173749
v -0.363434 0.448570 -0.176622
v 0.095425 -0.449442 -0.067147
v 0.195167 -0.449442 -0.074327
v 0.202347 -0.449280 0.025414
v 0.102605 -0.449280 0.032595
v -0.201673 -0.465145 -0.065740
v -0.101927 -0.464857 -0.072847
v -0.094820 -0.464816 0.026901
v -0.194567 -0.465104 0.034007
v 0.049218 -0.453901 -0.151929
v 0.037891 -0.489291 -0.170000
v 0.237374 -0.489291 -0.184361
v 0.228753 -0.453901 -0.164854
v -0.247726 -0.465387 -0.149430
v -0.259137 -0.500134 -0.168661
v -0.059653 -0.500134 -0.183022
v -0.068191 -0.465387 -0.162356
vt 1.000000 0.002344
vt 1.000000 0.127321
vt 0.750046 0.127321
vt 0.750046 0.002344
vt 0.749862 0.155577
vt 0.624885 0.155577
vt 0.624885 0.002480
vt 0.749862 0.002480
vt 0.750046 0.002480
vt 0.750046 0.127457
vt 1.000000 0.127457
vt 1.000000 0.002480
vt 0.249954 0.002480
vt 0.374931 0.002480
vt 0.374931 0.155577
vt 0.249954 0.155577
vt 0.000000 0.155577
vt 0.000000 0.002481
vt 0.550225 0.832363
vt 0.506554 0.967370
vt 0.458446 0.956670
vt 0.475293 0.820672
vt 0.409645 0.954647
vt 0.402595 0.819777
vt 0.361369 0.961168
vt 0.330478 0.829348
vt 0.315626 0.976594
vt 0.257413 0.849837
vt 0.044996 0.806560
vt 0.044996 0.954579
vt 0.008018 0.954579
vt 0.008018 0.806560
vt 0.229887 0.806560
vt 0.229887 0.954579
vt 0.155931 0.954579
vt 0.155931 0.806560
vt 0.118952 0.954579
vt 0.118953 0.806560
vt 0.044996 0.769582
vt 0.118953 0.769582
vt 0.118952 0.991557
vt 0.044996 0.991557
vt 0.774379 0.345289
vt 0.774379 0.465813
vt 0.619181 0.465813
vt 0.619181 0.345289
vt 0.524955 0.573802
vt 0.524955 0.496323
vt 0.585216 0.496323
vt 0.585216 0.573802
vt 0.645058 0.313196
vt 0.645058 0.184063
vt 0.800017 0.184063
vt 0.800017 0.304587
vt 0.800017 0.304587
vt 0.800017 0.184063
vt 0.645058 0.184063
vt 0.645058 0.313196
vt 0.490048 0.465813
vt 0.490048 0.345289
vt 0.889896 0.270151
vt 0.889896 0.201280
vt 0.977690 0.236437
vt 0.977690 0.209889
vt 0.572303 0.617699
vt 0.537868 0.617699
vt 0.867100 0.371115
vt 0.867100 0.439986
vt 0.889897 0.201281
vt 0.889897 0.270151
vt 0.959554 0.388333
vt 0.986102 0.388333
vt 0.986102 0.422768
vt 0.959554 0.422768
vt 0.563694 0.660958
vt 0.546477 0.660958
vt 0.977690 0.209889
vt 0.977690 0.236437
vt 0.056947 0.502763
vt 0.031342 0.678742
vt 0.105364 0.679798
vt 0.113551 0.493295
vt 0.181247 0.679800
vt 0.172072 0.486316
vt 0.258096 0.678847
vt 0.228924 0.489689
vt 0.350833 0.653486
vt 0.278396 0.479726
vt 0.260664 0.232791
vt 0.198888 0.232721
vt 0.203989 0.273911
vt 0.255469 0.273969
vt 0.231797 0.491804
vt 0.259470 0.675650
vt 0.185342 0.676596
vt 0.174632 0.486937
vt 0.108143 0.676596
vt 0.115699 0.484082
vt 0.031342 0.675155
vt 0.058725 0.492177
vt 0.281442 0.481753
vt 0.353399 0.650288
vt 0.212076 0.231900
vt 0.272063 0.233967
vt 0.265687 0.273786
vt 0.215697 0.272064
vt 0.201809 0.294807
vt 0.255678 0.294648
vt 0.155095 0.254535
vt 0.091592 0.258712
vt 0.058515 0.304298
vt 0.264991 0.294002
vt 0.212481 0.291941
vt 0.106345 0.252865
vt 0.068530 0.296121
vt 0.169828 0.248696
vt 0.309271 0.694987
vt 0.222196 0.713314
vt 0.396937 0.686350
vt 0.484080 0.687634
vt 0.569074 0.696753
vt 0.637826 0.750046
vt 0.637826 0.937556
vt 0.575382 0.937556
vt 0.575382 0.750046
vt 0.637826 0.687602
vt 0.637826 0.500092
vt 0.937556 0.500092
vt 0.937556 0.687602
vt 1.000000 0.750046
vt 1.000000 0.937556
vt 0.937556 0.937556
vt 0.937556 0.750046
vt 0.937556 1.000000
vt 0.637826 1.000000
vt 1.000000 0.750046
vt 1.000000 0.937556
vt 0.937556 0.937556
vt 0.937556 0.750046
vt 0.637826 0.937556
vt 0.637826 0.750046
vt 0.575382 0.937556
vt 0.575382 0.750046
vt 0.637826 0.687602
vt 0.637826 0.500092
vt 0.937556 0.500092
vt 0.937556 0.687602
vt 0.937556 1.000000
vt 0.637826 1.000000
vt 0.051395 0.289109
vt 0.069292 0.255431
vt 0.084240 0.246065
vt 0.076987 0.187016
vt 0.096428 0.196312
vt 0.176155 0.244039
vt 0.191735 0.241627
vt 0.156383 0.196685
vt 0.069733 0.210295
vt 0.062349 0.279584
vt 0.193920 0.177806
vt 0.293899 0.181250
vt 0.051183 0.206234
vt 0.184607 0.197084
vt 0.174184 0.184472
vt 0.281319 0.177816
vt 0.178358 0.177699
vt 0.202337 0.190319
vt 0.061887 0.191752
vt 0.158165 0.176629
vt 0.189678 0.177487
vt 0.091701 0.176629
vt 0.398221 0.599207
vt 0.485364 0.600491
vn -0.9974 0.0000 0.0718
vn -0.0718 -0.0094 -0.9974
vn 0.9974 -0.0000 -0.0718
vn 0.0718 0.0094 0.9974
vn 0.0007 -1.0000 0.0094
vn -0.0007 1.0000 -0.0094
vn -0.9919 0.1056 0.0711
vn -0.0714 0.1038 -0.9920
vn 0.9918 0.1056 -0.0717
vn 0.0714 0.1075 0.9916
vn -0.0718 -0.0173 -0.9973
vn 0.0718 0.0173 0.9973
vn 0.0012 -0.9999 0.0172
vn -0.0012 0.9999 -0.0172
vn -0.0042 0.9983 -0.0585
vn 0.0002 -1.0000 0.0032
vn 0.0718 0.0032 0.9974
vn -0.9760 -0.0009 -0.2178
vn -0.9921 -0.0006 -0.1252
vn -0.0139 -0.9812 -0.1925
vn -0.0269 0.9273 -0.3734
vn 0.9347 -0.0009 -0.3554
vn -0.0718 -0.0032 -0.9974
vn -0.0069 -0.9953 -0.0961
vn 0.9640 -0.0006 -0.2660
vn -0.0264 0.9300 -0.3667
vn -0.9852 -0.1301 0.1112
vn -0.0625 -0.4927 -0.8680
vn 0.9910 -0.1302 -0.0310
vn 0.0700 0.2258 0.9717
vn 0.0024 -0.9995 0.0331
vn -0.9854 -0.1364 0.1016
vn -0.0631 -0.4120 -0.9090
vn 0.9909 -0.1287 -0.0394
vn 0.0699 0.1415 0.9875
vn 0.0000 -1.0000 0.0000
vn 0.0612 -0.5231 0.8501
vn -0.0611 0.5264 -0.8480
vn 0.0635 -0.4953 0.8664
vn 0.9975 0.0065 -0.0709
vn -0.0635 0.4951 -0.8665
vn -0.9975 -0.0065 0.0709
vn 0.0717 0.0398 0.9966
vn 0.9969 0.0312 -0.0720
vn -0.0718 0.0227 -0.9972
vn -0.9969 0.0312 0.0716
vn 0.0791 0.0094 0.9968
vn -0.9969 -0.0022 0.0792
vn -0.0791 -0.0094 -0.9968
vn 0.9969 0.0022 -0.0792
vn 0.0030 -1.0000 0.0092
vn -0.0030 1.0000 -0.0092
vn 0.0645 0.0094 0.9979
vn -0.9979 0.0022 0.0644
vn -0.0645 -0.0094 -0.9979
vn 0.9979 -0.0022 -0.0644
vn -0.0016 -1.0000 0.0096
vn 0.0016 1.0000 -0.0096
vn -0.9842 0.1262 0.1241
vn 0.9380 0.1540 0.3106
vn 0.9918 0.1262 -0.0182
vn 0.0618 -0.5088 0.8587
vn -0.9844 0.1228 0.1256
vn -0.0036 0.9987 -0.0505
vn 0.9917 0.1277 -0.0159
vn 0.0628 -0.4940 0.8672
vn -0.8866 0.1585 0.4345
vn -0.0013 1.0000 -0.0044
vn 0.9397 0.1585 0.3031
vn -0.8841 0.1532 0.4415
vn -0.0634 0.4699 -0.8805
vn -0.0622 0.4989 -0.8644
vn 0.0006 -1.0000 0.0078
usemtl Material
s off
f 1/1/1 2/2/1 4/3/1 3/4/1
f 3/5/2 4/6/2 8/7/2 7/8/2
f 7/9/3 8/10/3 6/11/3 5/12/3
f 5/13/4 6/14/4 2/15/4 1/16/4
f 3/17/5 7/18/5 5/13/5 1/16/5
f 8/7/6 4/6/6 2/15/6 6/14/6
f 65/19/7 10/20/7 12/21/7 66/22/7
f 66/22/8 12/21/8 16/23/8 67/24/8
f 67/24/9 16/23/9 14/25/9 68/26/9
f 68/26/10 14/25/10 10/27/10 65/28/10
f 17/29/1 18/30/1 20/31/1 19/32/1
f 19/33/11 20/34/11 24/35/11 23/36/11
f 23/36/3 24/35/3 22/37/3 21/38/3
f 21/38/12 22/37/12 18/30/12 17/29/12
f 19/39/13 23/40/13 21/38/13 17/29/13
f 24/41/14 20/42/14 18/30/14 22/37/14
f 28/43/15 26/44/15 25/45/15 27/46/15
f 32/47/16 31/48/16 29/49/16 30/50/16
f 27/51/3 31/52/3 32/53/3 28/54/3
f 26/55/1 30/56/1 29/57/1 25/58/1
f 25/45/17 29/59/17 31/60/17 27/46/17
f 26/55/18 33/61/18 35/62/18 30/56/18
f 33/61/19 37/63/19 39/64/19 35/62/19
f 30/50/20 35/65/20 36/66/20 32/47/20
f 28/43/21 34/67/21 33/68/21 26/44/21
f 32/53/22 36/69/22 34/70/22 28/54/22
f 38/71/23 40/72/23 39/73/23 37/74/23
f 35/65/24 39/75/24 40/76/24 36/66/24
f 36/69/25 40/77/25 38/78/25 34/70/25
f 34/67/26 38/71/26 37/74/26 33/68/26
f 57/79/27 42/80/27 44/81/27 58/82/27
f 58/82/28 44/81/28 48/83/28 59/84/28
f 59/84/29 48/83/29 46/85/29 60/86/29
f 60/86/30 46/85/30 42/87/30 57/88/30
f 43/89/31 47/90/31 45/91/31 41/92/31
f 61/93/32 50/94/32 52/95/32 62/96/32
f 62/96/33 52/95/33 56/97/33 63/98/33
f 63/98/34 56/97/34 54/99/34 64/100/34
f 64/101/35 54/102/35 50/94/35 61/93/35
f 51/103/36 55/104/36 53/105/36 49/106/36
f 87/107/37 60/86/37 57/88/37 88/108/37
f 86/109/3 59/84/3 60/86/3 87/107/3
f 85/110/38 58/82/38 59/84/38 86/109/38
f 88/111/1 57/79/1 58/82/1 85/110/1
f 91/112/39 64/101/39 61/93/39 92/113/39
f 90/114/40 63/98/40 64/100/40 91/115/40
f 89/116/41 62/96/41 63/98/41 90/114/41
f 92/113/42 61/93/42 62/96/42 89/116/42
f 13/117/43 68/26/43 65/28/43 9/118/43
f 15/119/44 67/24/44 68/26/44 13/117/44
f 11/120/45 66/22/45 67/24/45 15/119/45
f 9/121/46 65/19/46 66/22/46 11/120/46
f 69/122/47 70/123/47 72/124/47 71/125/47
f 71/126/48 72/127/48 76/128/48 75/129/48
f 75/130/49 76/131/49 74/132/49 73/133/49
f 73/133/50 74/132/50 70/123/50 69/122/50
f 71/126/51 75/129/51 73/133/51 69/122/51
f 76/134/52 72/135/52 70/123/52 74/132/52
f 77/136/53 78/137/53 80/138/53 79/139/53
f 79/139/54 80/138/54 84/140/54 83/141/54
f 83/141/55 84/140/55 82/142/55 81/143/55
f 81/144/56 82/145/56 78/146/56 77/147/56
f 79/139/57 83/141/57 81/144/57 77/147/57
f 84/140/58 80/138/58 78/148/58 82/149/58
f 41/150/59 88/111/59 85/110/59 43/151/59
f 90/114/60 55/152/60 99/153/60 100/154/60
f 47/155/61 86/109/61 87/107/61 45/91/61
f 45/91/62 87/107/62 88/108/62 41/92/62
f 49/106/63 92/113/63 89/116/63 51/156/63
f 85/110/64 86/109/64 96/157/64 93/158/64
f 55/152/65 90/114/65 91/115/65 53/159/65
f 53/105/66 91/112/66 92/113/66 49/106/66
f 55/104/36 51/103/36 98/160/36 99/161/36
f 43/151/67 85/110/67 93/158/67 94/162/67
f 89/116/68 90/114/68 100/154/68 97/163/68
f 86/109/69 47/155/69 95/164/69 96/157/69
f 47/90/31 43/89/31 94/165/31 95/166/31
f 51/156/70 89/116/70 97/163/70 98/167/70
f 94/168/71 93/158/71 96/157/71 95/169/71
f 98/170/72 97/163/72 100/154/72 99/171/72
f 11/120/73 15/119/73 13/172/73 9/173/73
