# Blender v2.82 (sub 7) OBJ File: 'Ostrich.blend'
# www.blender.org
mtllib Ostrich_000144.mtl
o Cube_Cube.001
v -0.250000 0.109937 0.440666
v -0.250000 0.484540 0.300408
v -0.250000 -0.170580 -0.308540
v -0.250000 0.204023 -0.448799
v 0.250000 0.109937 0.440666
v 0.250000 0.484540 0.300408
v 0.250000 -0.170580 -0.308540
v 0.250000 0.204023 -0.448799
v -0.100000 0.125243 -0.309425
v -0.056000 0.187303 -0.962851
v -0.100000 -0.063683 -0.375051
v -0.056000 0.075971 -0.950641
v 0.100000 0.125243 -0.309425
v 0.056000 0.187303 -0.962851
v 0.100000 -0.063683 -0.375051
v 0.056000 0.075971 -0.950641
v -0.100000 0.277349 0.683037
v -0.100000 0.507654 0.355640
v -0.100000 0.195559 0.625502
v -0.100000 0.425863 0.298105
v 0.100000 0.277349 0.683037
v 0.100000 0.507654 0.355640
v 0.100000 0.195559 0.625502
v 0.100000 0.425863 0.298105
v -0.070000 0.219140 -1.085101
v -0.070000 0.038874 -1.083135
v 0.070000 0.219140 -1.085101
v 0.070000 0.038874 -1.083135
v -0.070000 0.212454 -0.935250
v -0.070000 0.032633 -0.943274
v 0.070000 0.212454 -0.935250
v 0.070000 0.032633 -0.943274
v -0.040000 -0.062810 -1.047632
v 0.040000 -0.062810 -1.047632
v -0.040000 -0.066377 -0.967712
v 0.040000 -0.066377 -0.967712
v -0.020000 -0.164457 -1.012967
v 0.020000 -0.164457 -1.012967
v -0.020000 -0.165831 -0.982160
v 0.020000 -0.165831 -0.982160
v 0.100000 -0.500134 -0.330807
v 0.050000 0.054062 0.164943
v 0.090000 -0.500134 -0.410807
v 0.050000 0.108201 -0.027590
v 0.200000 -0.500134 -0.330807
v 0.250000 0.054062 0.164943
v 0.210000 -0.500134 -0.410807
v 0.250000 0.108201 -0.027590
v -0.200000 -0.500134 -0.000000
v -0.250000 0.137341 0.159223
v -0.210000 -0.500134 -0.080000
v -0.250000 0.024062 -0.005604
v -0.100000 -0.500134 -0.000000
v -0.050000 0.137341 0.159223
v -0.090000 -0.500134 -0.080000
v -0.050000 0.024062 -0.005604
v 0.100000 -0.286435 -0.010433
v 0.100000 -0.236337 -0.096979
v 0.200000 -0.236337 -0.096979
v 0.200000 -0.286435 -0.010433
v -0.200000 -0.237459 0.309746
v -0.200000 -0.232767 0.209856
v -0.100000 -0.232767 0.209856
v -0.100000 -0.237459 0.309746
v -0.090000 0.240259 -0.629767
v -0.090000 0.061398 -0.649983
v 0.090000 0.061398 -0.649983
v 0.090000 0.240259 -0.629767
v 0.349993 0.301172 0.313098
v 0.349977 0.529740 0.118346
v 0.249993 0.301164 0.313098
v 0.249977 0.529733 0.118346
v 0.350016 -0.010133 -0.052264
v 0.350000 0.218435 -0.247015
v 0.250016 -0.010141 -0.052264
v 0.250000 0.218428 -0.247015
v -0.250000 0.319551 0.309781
v -0.250000 0.541239 0.107232
v -0.350000 0.319551 0.309781
v -0.350000 0.541239 0.107232
v -0.250000 -0.004219 -0.044582
v -0.250000 0.217469 -0.247131
v -0.350000 -0.004219 -0.044582
v -0.350000 0.217469 -0.247131
v 0.100000 -0.458004 -0.402389
v 0.200000 -0.458004 -0.402389
v 0.200000 -0.479158 -0.304652
v 0.100000 -0.479158 -0.304652
v -0.200000 -0.459167 -0.073259
v -0.100000 -0.459167 -0.073259
v -0.100000 -0.476427 0.025240
v -0.200000 -0.476427 0.025240
v 0.060000 -0.465387 -0.497640
v 0.050000 -0.500134 -0.517640
v 0.250000 -0.500134 -0.517640
v 0.240000 -0.465387 -0.497640
v -0.240000 -0.465387 -0.166833
v -0.250000 -0.500134 -0.186833
v -0.050000 -0.500134 -0.186833
v -0.060000 -0.465387 -0.166833
vt 1.000000 0.002344
vt 1.000000 0.127321
vt 0.750046 0.127321
vt 0.750046 0.002344
vt 0.749862 0.155577
vt 0.624885 0.155577
vt 0.624885 0.002480
vt 0.749862 0.002480
vt 0.750046 0.002480
vt 0.750046 0.127457
vt 1.000000 0.127457
vt 1.000000 0.002480
vt 0.249954 0.002480
vt 0.374931 0.002480
vt 0.374931 0.155577
vt 0.249954 0.155577
vt 0.000000 0.155577
vt 0.000000 0.002481
vt 0.550225 0.832363
vt 0.506554 0.967370
vt 0.458446 0.956670
vt 0.475293 0.820672
vt 0.409645 0.954647
vt 0.402595 0.819777
vt 0.361369 0.961168
vt 0.330478 0.829348
vt 0.315626 0.976594
vt 0.257413 0.849837
vt 0.044996 0.806560
vt 0.044996 0.954579
vt 0.008018 0.954579
vt 0.008018 0.806560
vt 0.229887 0.806560
vt 0.229887 0.954579
vt 0.155931 0.954579
vt 0.155931 0.806560
vt 0.118952 0.954579
vt 0.118953 0.806560
vt 0.044996 0.769582
vt 0.118953 0.769582
vt 0.118952 0.991557
vt 0.044996 0.991557
vt 0.774379 0.345289
vt 0.774379 0.465813
vt 0.619181 0.465813
vt 0.619181 0.345289
vt 0.524955 0.573802
vt 0.524955 0.496323
vt 0.585216 0.496323
vt 0.585216 0.573802
vt 0.645058 0.313196
vt 0.645058 0.184063
vt 0.800017 0.184063
vt 0.800017 0.304587
vt 0.800017 0.304587
vt 0.800017 0.184063
vt 0.645058 0.184063
vt 0.645058 0.313196
vt 0.490048 0.465813
vt 0.490048 0.345289
vt 0.889896 0.270151
vt 0.889896 0.201280
vt 0.977690 0.236437
vt 0.977690 0.209889
vt 0.572303 0.617699
vt 0.537868 0.617699
vt 0.867100 0.371115
vt 0.867100 0.439986
vt 0.889897 0.201281
vt 0.889897 0.270151
vt 0.959554 0.388333
vt 0.986102 0.388333
vt 0.986102 0.422768
vt 0.959554 0.422768
vt 0.563694 0.660958
vt 0.546477 0.660958
vt 0.977690 0.209889
vt 0.977690 0.236437
vt 0.056947 0.502763
vt 0.031342 0.678742
vt 0.105364 0.679798
vt 0.113551 0.493295
vt 0.181247 0.679800
vt 0.172072 0.486316
vt 0.258096 0.678847
vt 0.228924 0.489689
vt 0.350833 0.653486
vt 0.278396 0.479726
vt 0.260664 0.232791
vt 0.198888 0.232721
vt 0.203989 0.273911
vt 0.255469 0.273969
vt 0.231797 0.491804
vt 0.259470 0.675650
vt 0.185342 0.676596
vt 0.174632 0.486937
vt 0.108143 0.676596
vt 0.115699 0.484082
vt 0.031342 0.675155
vt 0.058725 0.492177
vt 0.281442 0.481753
vt 0.353399 0.650288
vt 0.212076 0.231900
vt 0.272063 0.233967
vt 0.265687 0.273786
vt 0.215697 0.272064
vt 0.201809 0.294807
vt 0.255678 0.294648
vt 0.155095 0.254535
vt 0.091592 0.258712
vt 0.058515 0.304298
vt 0.264991 0.294002
vt 0.212481 0.291941
vt 0.106345 0.252865
vt 0.068530 0.296121
vt 0.169828 0.248696
vt 0.309271 0.694987
vt 0.222196 0.713314
vt 0.396937 0.686350
vt 0.484080 0.687634
vt 0.569074 0.696753
vt 0.637826 0.750046
vt 0.637826 0.937556
vt 0.575382 0.937556
vt 0.575382 0.750046
vt 0.637826 0.687602
vt 0.637826 0.500092
vt 0.937556 0.500092
vt 0.937556 0.687602
vt 1.000000 0.750046
vt 1.000000 0.937556
vt 0.937556 0.937556
vt 0.937556 0.750046
vt 0.937556 1.000000
vt 0.637826 1.000000
vt 1.000000 0.750046
vt 1.000000 0.937556
vt 0.937556 0.937556
vt 0.937556 0.750046
vt 0.637826 0.937556
vt 0.637826 0.750046
vt 0.575382 0.937556
vt 0.575382 0.750046
vt 0.637826 0.687602
vt 0.637826 0.500092
vt 0.937556 0.500092
vt 0.937556 0.687602
vt 0.937556 1.000000
vt 0.637826 1.000000
vt 0.051395 0.289109
vt 0.069292 0.255431
vt 0.084240 0.246065
vt 0.076987 0.187016
vt 0.096428 0.196312
vt 0.176155 0.244039
vt 0.191735 0.241627
vt 0.156383 0.196685
vt 0.069733 0.210295
vt 0.062349 0.279584
vt 0.193920 0.177806
vt 0.293899 0.181250
vt 0.051183 0.206234
vt 0.184607 0.197084
vt 0.174184 0.184472
vt 0.281319 0.177816
vt 0.178358 0.177699
vt 0.202337 0.190319
vt 0.061887 0.191752
vt 0.158165 0.176629
vt 0.189678 0.177487
vt 0.091701 0.176629
vt 0.398221 0.599207
vt 0.485364 0.600491
vn -1.0000 0.0000 0.0000
vn 0.0000 -0.3506 -0.9365
vn 1.0000 -0.0000 0.0000
vn 0.0000 0.3506 0.9365
vn 0.0000 -0.9365 0.3506
vn 0.0000 0.9365 -0.3506
vn -0.9943 0.0029 -0.1069
vn 0.0000 -0.9988 -0.0484
vn 0.9943 0.0029 -0.1069
vn 0.0000 0.9876 -0.1570
vn 0.0000 -0.8179 -0.5754
vn 0.0000 0.8179 0.5754
vn 0.0000 -0.5754 0.8179
vn 0.0000 0.5754 -0.8179
vn 0.0000 -0.0109 -0.9999
vn -0.0000 -0.0446 0.9990
vn 0.0000 0.9990 0.0446
vn -0.9578 -0.2871 -0.0128
vn -0.9806 -0.1959 -0.0087
vn 0.0000 -0.2396 0.9709
vn 0.0000 -0.3296 -0.9441
vn 0.9578 -0.2871 -0.0128
vn 0.0000 -0.9990 -0.0446
vn 0.0000 -0.1438 0.9896
vn 0.9806 -0.1959 -0.0087
vn 0.0000 -0.3228 -0.9465
vn -0.9907 -0.1276 -0.0477
vn 0.0000 0.1974 -0.9803
vn 0.9907 -0.1276 -0.0477
vn 0.0000 -0.4579 0.8890
vn 0.0000 -1.0000 0.0000
vn -0.9906 -0.1267 0.0520
vn 0.0000 -0.6427 -0.7661
vn 0.9906 -0.1267 0.0520
vn 0.0000 0.3727 0.9280
vn 0.0000 -0.8365 0.5479
vn 0.0000 0.8093 -0.5874
vn 0.0000 -0.7657 0.6432
vn 0.0000 0.7810 -0.6245
vn 0.0000 0.9412 0.3379
vn 0.9995 0.0072 -0.0307
vn 0.0000 -0.9102 -0.4141
vn -0.9995 0.0072 -0.0307
vn -0.0000 0.6486 0.7612
vn -1.0000 -0.0001 -0.0000
vn 0.0000 -0.6486 -0.7612
vn 1.0000 0.0001 0.0000
vn 0.0001 -0.7612 0.6486
vn -0.0001 0.7612 -0.6486
vn -0.0000 0.6745 0.7383
vn 0.0000 -0.6745 -0.7383
vn 0.0000 -0.7383 0.6745
vn -0.0000 0.7383 -0.6745
vn -0.9905 0.1187 0.0699
vn 0.9238 0.1150 0.3652
vn 0.9905 0.1187 0.0699
vn 0.0000 -0.7801 0.6256
vn -0.9905 0.1200 0.0671
vn 0.0000 0.9970 -0.0773
vn 0.9905 0.1200 0.0671
vn -0.0000 -0.7289 0.6846
vn -0.9258 0.1068 0.3626
vn 0.0000 0.9978 -0.0663
vn 0.9258 0.1068 0.3626
vn -0.9238 0.1150 0.3652
vn 0.0000 0.4989 -0.8667
vn 0.0000 -0.3281 0.9446
usemtl Material
s off
f 1/1/1 2/2/1 4/3/1 3/4/1
f 3/5/2 4/6/2 8/7/2 7/8/2
f 7/9/3 8/10/3 6/11/3 5/12/3
f 5/13/4 6/14/4 2/15/4 1/16/4
f 3/17/5 7/18/5 5/13/5 1/16/5
f 8/7/6 4/6/6 2/15/6 6/14/6
f 65/19/7 10/20/7 12/21/7 66/22/7
f 66/22/8 12/21/8 16/23/8 67/24/8
f 67/24/9 16/23/9 14/25/9 68/26/9
f 68/26/10 14/25/10 10/27/10 65/28/10
f 17/29/1 18/30/1 20/31/1 19/32/1
f 19/33/11 20/34/11 24/35/11 23/36/11
f 23/36/3 24/35/3 22/37/3 21/38/3
f 21/38/12 22/37/12 18/30/12 17/29/12
f 19/39/13 23/40/13 21/38/13 17/29/13
f 24/41/14 20/42/14 18/30/14 22/37/14
f 28/43/15 26/44/15 25/45/15 27/46/15
f 32/47/16 31/48/16 29/49/16 30/50/16
f 27/51/3 31/52/3 32/53/3 28/54/3
f 26/55/1 30/56/1 29/57/1 25/58/1
f 25/45/17 29/59/17 31/60/17 27/46/17
f 26/55/18 33/61/18 35/62/18 30/56/18
f 33/61/19 37/63/19 39/64/19 35/62/19
f 30/50/20 35/65/20 36/66/20 32/47/20
f 28/43/21 34/67/21 33/68/21 26/44/21
f 32/53/22 36/69/22 34/70/22 28/54/22
f 38/71/23 40/72/23 39/73/23 37/74/23
f 35/65/24 39/75/24 40/76/24 36/66/24
f 36/69/25 40/77/25 38/78/25 34/70/25
f 34/67/26 38/71/26 37/74/26 33/68/26
f 57/79/27 42/80/27 44/81/27 58/82/27
f 58/82/28 44/81/28 48/83/28 59/84/28
f 59/84/29 48/83/29 46/85/29 60/86/29
f 60/86/30 46/85/30 42/87/30 57/88/30
f 43/89/31 47/90/31 45/91/31 41/92/31
f 61/93/32 50/94/32 52/95/32 62/96/32
f 62/96/33 52/95/33 56/97/33 63/98/33
f 63/98/34 56/97/34 54/99/34 64/100/34
f 64/101/35 54/102/35 50/94/35 61/93/35
f 51/103/31 55/104/31 53/105/31 49/106/31
f 87/107/36 60/86/36 57/88/36 88/108/36
f 86/109/3 59/84/3 60/86/3 87/107/3
f 85/110/37 58/82/37 59/84/37 86/109/37
f 88/111/1 57/79/1 58/82/1 85/110/1
f 91/112/38 64/101/38 61/93/38 92/113/38
f 90/114/3 63/98/3 64/100/3 91/115/3
f 89/116/39 62/96/39 63/98/39 90/114/39
f 92/113/1 61/93/1 62/96/1 89/116/1
f 13/117/40 68/26/40 65/28/40 9/118/40
f 15/119/41 67/24/41 68/26/41 13/117/41
f 11/120/42 66/22/42 67/24/42 15/119/42
f 9/121/43 65/19/43 66/22/43 11/120/43
f 69/122/44 70/123/44 72/124/44 71/125/44
f 71/126/45 72/127/45 76/128/45 75/129/45
f 75/130/46 76/131/46 74/132/46 73/133/46
f 73/133/47 74/132/47 70/123/47 69/122/47
f 71/126/48 75/129/48 73/133/48 69/122/48
f 76/134/49 72/135/49 70/123/49 74/132/49
f 77/136/50 78/137/50 80/138/50 79/139/50
f 79/139/1 80/138/1 84/140/1 83/141/1
f 83/141/51 84/140/51 82/142/51 81/143/51
f 81/144/3 82/145/3 78/146/3 77/147/3
f 79/139/52 83/141/52 81/144/52 77/147/52
f 84/140/53 80/138/53 78/148/53 82/149/53
f 41/150/54 88/111/54 85/110/54 43/151/54
f 90/114/55 55/152/55 99/153/55 100/154/55
f 47/155/56 86/109/56 87/107/56 45/91/56
f 45/91/57 87/107/57 88/108/57 41/92/57
f 49/106/58 92/113/58 89/116/58 51/156/58
f 85/110/59 86/109/59 96/157/59 93/158/59
f 55/152/60 90/114/60 91/115/60 53/159/60
f 53/105/61 91/112/61 92/113/61 49/106/61
f 55/104/31 51/103/31 98/160/31 99/161/31
f 43/151/62 85/110/62 93/158/62 94/162/62
f 89/116/63 90/114/63 100/154/63 97/163/63
f 86/109/64 47/155/64 95/164/64 96/157/64
f 47/90/31 43/89/31 94/165/31 95/166/31
f 51/156/65 89/116/65 97/163/65 98/167/65
f 94/168/66 93/158/66 96/157/66 95/169/66
f 98/170/66 97/163/66 100/154/66 99/171/66
f 11/120/67 15/119/67 13/172/67 9/173/67
