# Blender v2.82 (sub 7) OBJ File: 'Ostrich.blend'
# www.blender.org
mtllib Ostrich_000039.mtl
o Cube_Cube.001
v -0.250000 0.080178 0.400000
v -0.250000 0.480178 0.400000
v -0.250000 0.080178 -0.400000
v -0.250000 0.480178 -0.400000
v 0.250000 0.080178 0.400000
v 0.250000 0.480178 0.400000
v 0.250000 0.080178 -0.400000
v 0.250000 0.480178 -0.400000
v -0.100000 0.253014 -0.304101
v -0.056000 0.885424 -0.273901
v -0.100000 0.267813 -0.503552
v -0.056000 0.906051 -0.383986
v 0.100000 0.253014 -0.304101
v 0.056000 0.885424 -0.273901
v 0.100000 0.267813 -0.503552
v 0.056000 0.906051 -0.383986
v -0.100000 0.030178 0.500000
v -0.100000 0.430464 0.500000
v -0.100000 0.030178 0.400000
v -0.100000 0.430464 0.400000
v 0.100000 0.030178 0.500000
v 0.100000 0.430464 0.500000
v 0.100000 0.030178 0.400000
v 0.100000 0.430464 0.400000
v -0.080495 1.017055 -0.249723
v -0.056380 1.022382 -0.428301
v 0.058243 1.017640 -0.230971
v 0.082357 1.022967 -0.409549
v -0.078169 0.867598 -0.262267
v -0.054209 0.882890 -0.440009
v 0.060568 0.868183 -0.243515
v 0.084528 0.883474 -0.421257
v -0.012720 0.991148 -0.526373
v 0.066559 0.991482 -0.515658
v -0.011479 0.911438 -0.533064
v 0.067799 0.911772 -0.522348
v 0.021018 0.960706 -0.625715
v 0.060657 0.960873 -0.620357
v 0.021496 0.929980 -0.628294
v 0.061135 0.930147 -0.622936
v 0.100000 -0.500134 -0.000000
v 0.050000 0.220776 0.142173
v 0.090000 -0.500134 -0.080000
v 0.050000 0.140356 -0.040947
v 0.200000 -0.500134 -0.000000
v 0.250000 0.220776 0.142173
v 0.210000 -0.500134 -0.080000
v 0.250000 0.140356 -0.040947
v -0.200000 -0.500134 -0.000000
v -0.250000 0.220776 0.142173
v -0.210000 -0.500134 -0.080000
v -0.250000 0.140356 -0.040947
v -0.100000 -0.500134 -0.000000
v -0.050000 0.220776 0.142173
v -0.090000 -0.500134 -0.080000
v -0.050000 0.140356 -0.040947
v 0.100000 -0.162756 0.222707
v 0.100000 -0.162751 0.122707
v 0.200000 -0.162751 0.122707
v 0.200000 -0.162756 0.222707
v -0.200000 -0.162756 0.222707
v -0.200000 -0.162751 0.122707
v -0.100000 -0.162751 0.122707
v -0.100000 -0.162756 0.222707
v -0.090000 0.568631 -0.294793
v -0.090000 0.591902 -0.473282
v 0.090000 0.591902 -0.473282
v 0.090000 0.568631 -0.294793
v 0.376653 0.104571 0.256036
v 0.376397 0.404358 0.273344
v 0.276820 0.104154 0.261785
v 0.276563 0.403940 0.279093
v 0.348988 0.132167 -0.222371
v 0.348731 0.431954 -0.205063
v 0.249154 0.131749 -0.216622
v 0.248898 0.431536 -0.199314
v -0.276836 0.104112 0.262360
v -0.276580 0.403899 0.279668
v -0.376670 0.104529 0.256611
v -0.376413 0.404316 0.273918
v -0.249171 0.131708 -0.216047
v -0.248914 0.431495 -0.198739
v -0.349004 0.132125 -0.221796
v -0.348748 0.431912 -0.204488
v 0.100000 -0.463811 -0.078819
v 0.200000 -0.463811 -0.078819
v 0.200000 -0.467052 0.021129
v 0.100000 -0.467052 0.021129
v -0.200000 -0.463811 -0.078819
v -0.100000 -0.463811 -0.078819
v -0.100000 -0.467052 0.021129
v -0.200000 -0.467052 0.021129
v 0.060000 -0.465387 -0.166833
v 0.050000 -0.500134 -0.186833
v 0.250000 -0.500134 -0.186833
v 0.240000 -0.465387 -0.166833
v -0.240000 -0.465387 -0.166833
v -0.250000 -0.500134 -0.186833
v -0.050000 -0.500134 -0.186833
v -0.060000 -0.465387 -0.166833
vt 1.000000 0.002344
vt 1.000000 0.127321
vt 0.750046 0.127321
vt 0.750046 0.002344
vt 0.749862 0.155577
vt 0.624885 0.155577
vt 0.624885 0.002480
vt 0.749862 0.002480
vt 0.750046 0.002480
vt 0.750046 0.127457
vt 1.000000 0.127457
vt 1.000000 0.002480
vt 0.249954 0.002480
vt 0.374931 0.002480
vt 0.374931 0.155577
vt 0.249954 0.155577
vt 0.000000 0.155577
vt 0.000000 0.002481
vt 0.550225 0.832363
vt 0.506554 0.967370
vt 0.458446 0.956670
vt 0.475293 0.820672
vt 0.409645 0.954647
vt 0.402595 0.819777
vt 0.361369 0.961168
vt 0.330478 0.829348
vt 0.315626 0.976594
vt 0.257413 0.849837
vt 0.044996 0.806560
vt 0.044996 0.954579
vt 0.008018 0.954579
vt 0.008018 0.806560
vt 0.229887 0.806560
vt 0.229887 0.954579
vt 0.155931 0.954579
vt 0.155931 0.806560
vt 0.118952 0.954579
vt 0.118953 0.806560
vt 0.044996 0.769582
vt 0.118953 0.769582
vt 0.118952 0.991557
vt 0.044996 0.991557
vt 0.774379 0.345289
vt 0.774379 0.465813
vt 0.619181 0.465813
vt 0.619181 0.345289
vt 0.524955 0.573802
vt 0.524955 0.496323
vt 0.585216 0.496323
vt 0.585216 0.573802
vt 0.645058 0.313196
vt 0.645058 0.184063
vt 0.800017 0.184063
vt 0.800017 0.304587
vt 0.800017 0.304587
vt 0.800017 0.184063
vt 0.645058 0.184063
vt 0.645058 0.313196
vt 0.490048 0.465813
vt 0.490048 0.345289
vt 0.889896 0.270151
vt 0.889896 0.201280
vt 0.977690 0.236437
vt 0.977690 0.209889
vt 0.572303 0.617699
vt 0.537868 0.617699
vt 0.867100 0.371115
vt 0.867100 0.439986
vt 0.889897 0.201281
vt 0.889897 0.270151
vt 0.959554 0.388333
vt 0.986102 0.388333
vt 0.986102 0.422768
vt 0.959554 0.422768
vt 0.563694 0.660958
vt 0.546477 0.660958
vt 0.977690 0.209889
vt 0.977690 0.236437
vt 0.056947 0.502763
vt 0.031342 0.678742
vt 0.105364 0.679798
vt 0.113551 0.493295
vt 0.181247 0.679800
vt 0.172072 0.486316
vt 0.258096 0.678847
vt 0.228924 0.489689
vt 0.350833 0.653486
vt 0.278396 0.479726
vt 0.260664 0.232791
vt 0.198888 0.232721
vt 0.203989 0.273911
vt 0.255469 0.273969
vt 0.231797 0.491804
vt 0.259470 0.675650
vt 0.185342 0.676596
vt 0.174632 0.486937
vt 0.108143 0.676596
vt 0.115699 0.484082
vt 0.031342 0.675155
vt 0.058725 0.492177
vt 0.281442 0.481753
vt 0.353399 0.650288
vt 0.212076 0.231900
vt 0.272063 0.233967
vt 0.265687 0.273786
vt 0.215697 0.272064
vt 0.201809 0.294807
vt 0.255678 0.294648
vt 0.155095 0.254535
vt 0.091592 0.258712
vt 0.058515 0.304298
vt 0.264991 0.294002
vt 0.212481 0.291941
vt 0.106345 0.252865
vt 0.068530 0.296121
vt 0.169828 0.248696
vt 0.309271 0.694987
vt 0.222196 0.713314
vt 0.396937 0.686350
vt 0.484080 0.687634
vt 0.569074 0.696753
vt 0.637826 0.750046
vt 0.637826 0.937556
vt 0.575382 0.937556
vt 0.575382 0.750046
vt 0.637826 0.687602
vt 0.637826 0.500092
vt 0.937556 0.500092
vt 0.937556 0.687602
vt 1.000000 0.750046
vt 1.000000 0.937556
vt 0.937556 0.937556
vt 0.937556 0.750046
vt 0.937556 1.000000
vt 0.637826 1.000000
vt 1.000000 0.750046
vt 1.000000 0.937556
vt 0.937556 0.937556
vt 0.937556 0.750046
vt 0.637826 0.937556
vt 0.637826 0.750046
vt 0.575382 0.937556
vt 0.575382 0.750046
vt 0.637826 0.687602
vt 0.637826 0.500092
vt 0.937556 0.500092
vt 0.937556 0.687602
vt 0.937556 1.000000
vt 0.637826 1.000000
vt 0.051395 0.289109
vt 0.069292 0.255431
vt 0.084240 0.246065
vt 0.076987 0.187016
vt 0.096428 0.196312
vt 0.176155 0.244039
vt 0.191735 0.241627
vt 0.156383 0.196685
vt 0.069733 0.210295
vt 0.062349 0.279584
vt 0.193920 0.177806
vt 0.293899 0.181250
vt 0.051183 0.206234
vt 0.184607 0.197084
vt 0.174184 0.184472
vt 0.281319 0.177816
vt 0.178358 0.177699
vt 0.202337 0.190319
vt 0.061887 0.191752
vt 0.158165 0.176629
vt 0.189678 0.177487
vt 0.091701 0.176629
vt 0.398221 0.599207
vt 0.485364 0.600491
vn -1.0000 0.0000 0.0000
vn 0.0000 0.0000 -1.0000
vn 1.0000 0.0000 0.0000
vn 0.0000 0.0000 1.0000
vn 0.0000 -1.0000 0.0000
vn 0.0000 1.0000 0.0000
vn -0.9944 0.1044 0.0159
vn 0.0000 0.2734 -0.9619
vn 0.9944 0.1044 0.0159
vn 0.0000 -0.0658 0.9978
vn -0.0081 0.9996 0.0287
vn 0.0155 -0.9964 -0.0836
vn 0.9910 0.0042 0.1339
vn -0.9910 -0.0042 -0.1339
vn -0.1331 -0.0850 0.9875
vn -0.9109 0.0204 -0.4120
vn -0.9456 0.0126 -0.3250
vn 0.0413 -0.9604 -0.2757
vn 0.0350 0.9567 -0.2891
vn 0.9874 0.0284 -0.1554
vn 0.1331 0.0850 -0.9875
vn 0.0287 -0.9830 -0.1815
vn 0.9978 0.0208 -0.0623
vn 0.0341 0.9587 -0.2822
vn -0.9907 -0.1310 0.0372
vn 0.0000 -0.4751 -0.8799
vn 0.9907 -0.1310 0.0372
vn 0.0000 0.2055 0.9787
vn 0.0000 -0.5523 0.8337
vn 0.0000 0.5563 -0.8310
vn 0.0000 -0.0295 0.9996
vn 0.9995 0.0311 0.0031
vn 0.0000 0.0930 -0.9957
vn -0.9995 0.0311 0.0031
vn 0.0576 -0.0575 0.9967
vn -0.9983 -0.0042 0.0575
vn -0.0576 0.0575 -0.9967
vn 0.9983 0.0042 -0.0575
vn 0.0009 -0.9983 -0.0576
vn -0.0009 0.9983 0.0576
vn -0.0576 -0.0575 0.9967
vn -0.9983 0.0042 -0.0575
vn 0.0576 0.0575 -0.9967
vn 0.9983 -0.0042 0.0575
vn -0.0009 -0.9983 -0.0576
vn 0.0009 0.9983 0.0576
vn -0.9906 0.1243 0.0573
vn 0.9156 0.1460 0.3747
vn 0.9906 0.1243 0.0573
vn -0.0000 -0.5383 0.8428
vn 0.0000 0.9998 -0.0179
vn -0.9156 0.1460 0.3747
vn 0.0000 0.4989 -0.8667
vn 0.0000 -0.9973 -0.0740
usemtl Material
s off
f 1/1/1 2/2/1 4/3/1 3/4/1
f 3/5/2 4/6/2 8/7/2 7/8/2
f 7/9/3 8/10/3 6/11/3 5/12/3
f 5/13/4 6/14/4 2/15/4 1/16/4
f 3/17/5 7/18/5 5/13/5 1/16/5
f 8/7/6 4/6/6 2/15/6 6/14/6
f 65/19/7 10/20/7 12/21/7 66/22/7
f 66/22/8 12/21/8 16/23/8 67/24/8
f 67/24/9 16/23/9 14/25/9 68/26/9
f 68/26/10 14/25/10 10/27/10 65/28/10
f 17/29/1 18/30/1 20/31/1 19/32/1
f 19/33/2 20/34/2 24/35/2 23/36/2
f 23/36/3 24/35/3 22/37/3 21/38/3
f 21/38/4 22/37/4 18/30/4 17/29/4
f 19/39/5 23/40/5 21/38/5 17/29/5
f 24/41/6 20/42/6 18/30/6 22/37/6
f 28/43/11 26/44/11 25/45/11 27/46/11
f 32/47/12 31/48/12 29/49/12 30/50/12
f 27/51/13 31/52/13 32/53/13 28/54/13
f 26/55/14 30/56/14 29/57/14 25/58/14
f 25/45/15 29/59/15 31/60/15 27/46/15
f 26/55/16 33/61/16 35/62/16 30/56/16
f 33/61/17 37/63/17 39/64/17 35/62/17
f 30/50/18 35/65/18 36/66/18 32/47/18
f 28/43/19 34/67/19 33/68/19 26/44/19
f 32/53/20 36/69/20 34/70/20 28/54/20
f 38/71/21 40/72/21 39/73/21 37/74/21
f 35/65/22 39/75/22 40/76/22 36/66/22
f 36/69/23 40/77/23 38/78/23 34/70/23
f 34/67/24 38/71/24 37/74/24 33/68/24
f 57/79/25 42/80/25 44/81/25 58/82/25
f 58/82/26 44/81/26 48/83/26 59/84/26
f 59/84/27 48/83/27 46/85/27 60/86/27
f 60/86/28 46/85/28 42/87/28 57/88/28
f 43/89/5 47/90/5 45/91/5 41/92/5
f 61/93/25 50/94/25 52/95/25 62/96/25
f 62/96/26 52/95/26 56/97/26 63/98/26
f 63/98/27 56/97/27 54/99/27 64/100/27
f 64/101/28 54/102/28 50/94/28 61/93/28
f 51/103/5 55/104/5 53/105/5 49/106/5
f 87/107/29 60/86/29 57/88/29 88/108/29
f 86/109/3 59/84/3 60/86/3 87/107/3
f 85/110/30 58/82/30 59/84/30 86/109/30
f 88/111/1 57/79/1 58/82/1 85/110/1
f 91/112/29 64/101/29 61/93/29 92/113/29
f 90/114/3 63/98/3 64/100/3 91/115/3
f 89/116/30 62/96/30 63/98/30 90/114/30
f 92/113/1 61/93/1 62/96/1 89/116/1
f 13/117/31 68/26/31 65/28/31 9/118/31
f 15/119/32 67/24/32 68/26/32 13/117/32
f 11/120/33 66/22/33 67/24/33 15/119/33
f 9/121/34 65/19/34 66/22/34 11/120/34
f 69/122/35 70/123/35 72/124/35 71/125/35
f 71/126/36 72/127/36 76/128/36 75/129/36
f 75/130/37 76/131/37 74/132/37 73/133/37
f 73/133/38 74/132/38 70/123/38 69/122/38
f 71/126/39 75/129/39 73/133/39 69/122/39
f 76/134/40 72/135/40 70/123/40 74/132/40
f 77/136/41 78/137/41 80/138/41 79/139/41
f 79/139/42 80/138/42 84/140/42 83/141/42
f 83/141/43 84/140/43 82/142/43 81/143/43
f 81/144/44 82/145/44 78/146/44 77/147/44
f 79/139/45 83/141/45 81/144/45 77/147/45
f 84/140/46 80/138/46 78/148/46 82/149/46
f 41/150/47 88/111/47 85/110/47 43/151/47
f 90/114/48 55/152/48 99/153/48 100/154/48
f 47/155/49 86/109/49 87/107/49 45/91/49
f 45/91/50 87/107/50 88/108/50 41/92/50
f 49/106/47 92/113/47 89/116/47 51/156/47
f 85/110/51 86/109/51 96/157/51 93/158/51
f 55/152/49 90/114/49 91/115/49 53/159/49
f 53/105/50 91/112/50 92/113/50 49/106/50
f 55/104/5 51/103/5 98/160/5 99/161/5
f 43/151/52 85/110/52 93/158/52 94/162/52
f 89/116/51 90/114/51 100/154/51 97/163/51
f 86/109/48 47/155/48 95/164/48 96/157/48
f 47/90/5 43/89/5 94/165/5 95/166/5
f 51/156/52 89/116/52 97/163/52 98/167/52
f 94/168/53 93/158/53 96/157/53 95/169/53
f 98/170/53 97/163/53 100/154/53 99/171/53
f 11/120/54 15/119/54 13/172/54 9/173/54
