# Blender v2.82 (sub 7) OBJ File: 'Ostrich.blend'
# www.blender.org
mtllib Ostrich_000122.mtl
o Cube_Cube.001
v -0.250000 0.108310 0.399973
v -0.250000 0.508272 0.394453
v -0.250000 0.097268 -0.399951
v -0.250000 0.497230 -0.405471
v 0.250000 0.108310 0.399973
v 0.250000 0.508272 0.394453
v 0.250000 0.097268 -0.399951
v 0.250000 0.497230 -0.405471
v -0.100000 0.279721 -0.302035
v -0.056000 0.919493 -0.365183
v -0.100000 0.275303 -0.501986
v -0.056000 0.914776 -0.477083
v 0.100000 0.279721 -0.302035
v 0.056000 0.919493 -0.365183
v 0.100000 0.275303 -0.501986
v 0.056000 0.914776 -0.477083
v -0.100000 0.069399 0.528623
v -0.100000 0.467972 0.491628
v -0.100000 0.060157 0.429051
v -0.100000 0.458729 0.392056
v 0.100000 0.069399 0.528623
v 0.100000 0.467972 0.491628
v 0.100000 0.060157 0.429051
v 0.100000 0.458729 0.392056
v -0.070000 1.049319 -0.344201
v -0.070000 1.034832 -0.523896
v 0.070000 1.049319 -0.344201
v 0.070000 1.034832 -0.523896
v -0.070000 0.899366 -0.340459
v -0.070000 0.894875 -0.520403
v 0.070000 0.899366 -0.340459
v 0.070000 0.894875 -0.520403
v -0.040000 0.992350 -0.622867
v 0.040000 0.992350 -0.622867
v -0.040000 0.912374 -0.620871
v 0.040000 0.912374 -0.620871
v -0.020000 0.950705 -0.721859
v 0.020000 0.950705 -0.721859
v -0.020000 0.919877 -0.721090
v 0.020000 0.919877 -0.721090
v 0.100000 -0.500134 -0.007795
v 0.050000 0.235615 0.143033
v 0.090000 -0.500134 -0.087795
v 0.050000 0.171804 -0.046515
v 0.200000 -0.500134 -0.007795
v 0.250000 0.235615 0.143033
v 0.210000 -0.500134 -0.087795
v 0.250000 0.171804 -0.046515
v -0.200000 -0.500134 0.012250
v -0.250000 0.239157 0.142136
v -0.210000 -0.500134 -0.067750
v -0.250000 0.168352 -0.044911
v -0.100000 -0.500134 0.012250
v -0.050000 0.239157 0.142136
v -0.090000 -0.500134 -0.067750
v -0.050000 0.168352 -0.044911
v 0.100000 -0.149121 0.189795
v 0.100000 -0.148234 0.089799
v 0.200000 -0.148234 0.089799
v 0.200000 -0.149121 0.189795
v -0.200000 -0.144080 0.203114
v -0.200000 -0.146006 0.103133
v -0.100000 -0.146006 0.103133
v -0.100000 -0.144080 0.203114
v -0.090000 0.600312 -0.318415
v -0.090000 0.594533 -0.498322
v 0.090000 0.594533 -0.498322
v 0.090000 0.600312 -0.318415
v 0.374595 0.156558 0.272730
v 0.374595 0.456816 0.268586
v 0.274739 0.156632 0.278094
v 0.274739 0.456890 0.273949
v 0.348848 0.149943 -0.206533
v 0.348848 0.450200 -0.210677
v 0.248992 0.150017 -0.201170
v 0.248992 0.450275 -0.205314
v -0.274754 0.156640 0.278630
v -0.274754 0.456897 0.274486
v -0.374610 0.156566 0.273266
v -0.374610 0.456823 0.269122
v -0.249006 0.150024 -0.200633
v -0.249006 0.450282 -0.204778
v -0.348862 0.149950 -0.205997
v -0.348862 0.450208 -0.210141
v 0.100000 -0.465108 -0.087914
v 0.200000 -0.465108 -0.087914
v 0.200000 -0.464778 0.012086
v 0.100000 -0.464778 0.012086
v -0.200000 -0.465463 -0.068208
v -0.100000 -0.465463 -0.068208
v -0.100000 -0.464177 0.031783
v -0.200000 -0.464177 0.031783
v 0.060000 -0.465387 -0.174628
v 0.050000 -0.500134 -0.194628
v 0.250000 -0.500134 -0.194628
v 0.240000 -0.465387 -0.174628
v -0.240000 -0.465387 -0.154583
v -0.250000 -0.500134 -0.174583
v -0.050000 -0.500134 -0.174583
v -0.060000 -0.465387 -0.154583
vt 1.000000 0.002344
vt 1.000000 0.127321
vt 0.750046 0.127321
vt 0.750046 0.002344
vt 0.749862 0.155577
vt 0.624885 0.155577
vt 0.624885 0.002480
vt 0.749862 0.002480
vt 0.750046 0.002480
vt 0.750046 0.127457
vt 1.000000 0.127457
vt 1.000000 0.002480
vt 0.249954 0.002480
vt 0.374931 0.002480
vt 0.374931 0.155577
vt 0.249954 0.155577
vt 0.000000 0.155577
vt 0.000000 0.002481
vt 0.550225 0.832363
vt 0.506554 0.967370
vt 0.458446 0.956670
vt 0.475293 0.820672
vt 0.409645 0.954647
vt 0.402595 0.819777
vt 0.361369 0.961168
vt 0.330478 0.829348
vt 0.315626 0.976594
vt 0.257413 0.849837
vt 0.044996 0.806560
vt 0.044996 0.954579
vt 0.008018 0.954579
vt 0.008018 0.806560
vt 0.229887 0.806560
vt 0.229887 0.954579
vt 0.155931 0.954579
vt 0.155931 0.806560
vt 0.118952 0.954579
vt 0.118953 0.806560
vt 0.044996 0.769582
vt 0.118953 0.769582
vt 0.118952 0.991557
vt 0.044996 0.991557
vt 0.774379 0.345289
vt 0.774379 0.465813
vt 0.619181 0.465813
vt 0.619181 0.345289
vt 0.524955 0.573802
vt 0.524955 0.496323
vt 0.585216 0.496323
vt 0.585216 0.573802
vt 0.645058 0.313196
vt 0.645058 0.184063
vt 0.800017 0.184063
vt 0.800017 0.304587
vt 0.800017 0.304587
vt 0.800017 0.184063
vt 0.645058 0.184063
vt 0.645058 0.313196
vt 0.490048 0.465813
vt 0.490048 0.345289
vt 0.889896 0.270151
vt 0.889896 0.201280
vt 0.977690 0.236437
vt 0.977690 0.209889
vt 0.572303 0.617699
vt 0.537868 0.617699
vt 0.867100 0.371115
vt 0.867100 0.439986
vt 0.889897 0.201281
vt 0.889897 0.270151
vt 0.959554 0.388333
vt 0.986102 0.388333
vt 0.986102 0.422768
vt 0.959554 0.422768
vt 0.563694 0.660958
vt 0.546477 0.660958
vt 0.977690 0.209889
vt 0.977690 0.236437
vt 0.056947 0.502763
vt 0.031342 0.678742
vt 0.105364 0.679798
vt 0.113551 0.493295
vt 0.181247 0.679800
vt 0.172072 0.486316
vt 0.258096 0.678847
vt 0.228924 0.489689
vt 0.350833 0.653486
vt 0.278396 0.479726
vt 0.260664 0.232791
vt 0.198888 0.232721
vt 0.203989 0.273911
vt 0.255469 0.273969
vt 0.231797 0.491804
vt 0.259470 0.675650
vt 0.185342 0.676596
vt 0.174632 0.486937
vt 0.108143 0.676596
vt 0.115699 0.484082
vt 0.031342 0.675155
vt 0.058725 0.492177
vt 0.281442 0.481753
vt 0.353399 0.650288
vt 0.212076 0.231900
vt 0.272063 0.233967
vt 0.265687 0.273786
vt 0.215697 0.272064
vt 0.201809 0.294807
vt 0.255678 0.294648
vt 0.155095 0.254535
vt 0.091592 0.258712
vt 0.058515 0.304298
vt 0.264991 0.294002
vt 0.212481 0.291941
vt 0.106345 0.252865
vt 0.068530 0.296121
vt 0.169828 0.248696
vt 0.309271 0.694987
vt 0.222196 0.713314
vt 0.396937 0.686350
vt 0.484080 0.687634
vt 0.569074 0.696753
vt 0.637826 0.750046
vt 0.637826 0.937556
vt 0.575382 0.937556
vt 0.575382 0.750046
vt 0.637826 0.687602
vt 0.637826 0.500092
vt 0.937556 0.500092
vt 0.937556 0.687602
vt 1.000000 0.750046
vt 1.000000 0.937556
vt 0.937556 0.937556
vt 0.937556 0.750046
vt 0.937556 1.000000
vt 0.637826 1.000000
vt 1.000000 0.750046
vt 1.000000 0.937556
vt 0.937556 0.937556
vt 0.937556 0.750046
vt 0.637826 0.937556
vt 0.637826 0.750046
vt 0.575382 0.937556
vt 0.575382 0.750046
vt 0.637826 0.687602
vt 0.637826 0.500092
vt 0.937556 0.500092
vt 0.937556 0.687602
vt 0.937556 1.000000
vt 0.637826 1.000000
vt 0.051395 0.289109
vt 0.069292 0.255431
vt 0.084240 0.246065
vt 0.076987 0.187016
vt 0.096428 0.196312
vt 0.176155 0.244039
vt 0.191735 0.241627
vt 0.156383 0.196685
vt 0.069733 0.210295
vt 0.062349 0.279584
vt 0.193920 0.177806
vt 0.293899 0.181250
vt 0.051183 0.206234
vt 0.184607 0.197084
vt 0.174184 0.184472
vt 0.281319 0.177816
vt 0.178358 0.177699
vt 0.202337 0.190319
vt 0.061887 0.191752
vt 0.158165 0.176629
vt 0.189678 0.177487
vt 0.091701 0.176629
vt 0.398221 0.599207
vt 0.485364 0.600491
vn -1.0000 0.0000 0.0000
vn 0.0000 -0.0138 -0.9999
vn 1.0000 0.0000 0.0000
vn 0.0000 0.0138 0.9999
vn 0.0000 -0.9999 0.0138
vn 0.0000 0.9999 -0.0138
vn -0.9944 0.1056 -0.0038
vn 0.0000 0.0662 -0.9978
vn 0.9944 0.1056 -0.0038
vn 0.0000 0.1450 0.9894
vn 0.0000 -0.0924 -0.9957
vn 0.0000 0.0924 0.9957
vn 0.0000 -0.9957 0.0924
vn 0.0000 0.9957 -0.0924
vn 0.0000 0.9968 -0.0804
vn 0.0000 -0.9997 0.0249
vn 0.0000 0.0249 0.9997
vn -0.9578 -0.0072 -0.2873
vn -0.9806 -0.0049 -0.1961
vn 0.0000 -0.9852 -0.1716
vn 0.0000 0.9189 -0.3944
vn 0.9578 -0.0072 -0.2873
vn 0.0000 -0.0249 -0.9997
vn 0.0000 -0.9972 -0.0747
vn 0.9806 -0.0049 -0.1961
vn 0.0000 0.9218 -0.3878
vn -0.9907 -0.1331 0.0289
vn 0.0000 -0.3919 -0.9200
vn 0.9907 -0.1331 0.0289
vn 0.0000 0.1207 0.9927
vn 0.0000 -1.0000 0.0000
vn -0.9907 -0.1320 0.0334
vn -0.0000 -0.4261 -0.9047
vn 0.9907 -0.1320 0.0334
vn 0.0000 0.1571 0.9876
vn 0.0000 -0.4906 0.8714
vn 0.0000 0.4892 -0.8722
vn 0.0000 -0.4719 0.8817
vn 0.0000 0.4727 -0.8812
vn 0.0000 0.0510 0.9987
vn 0.9995 0.0312 -0.0008
vn 0.0000 0.0115 -0.9999
vn -0.9995 0.0312 -0.0008
vn 0.0536 0.0138 0.9985
vn -0.9986 0.0007 0.0536
vn -0.0536 -0.0138 -0.9985
vn 0.9986 -0.0007 -0.0536
vn -0.0536 0.0138 0.9985
vn -0.9986 -0.0007 -0.0536
vn 0.0536 -0.0138 -0.9985
vn 0.9986 0.0007 0.0536
vn -0.9906 0.1254 0.0548
vn 0.9125 0.1565 0.3779
vn 0.9906 0.1254 0.0548
vn -0.0000 -0.4901 0.8716
vn -0.9906 0.1256 0.0541
vn 0.0000 1.0000 -0.0032
vn 0.9906 0.1256 0.0541
vn -0.0000 -0.4774 0.8787
vn -0.9132 0.1543 0.3772
vn 0.0000 1.0000 0.0009
vn 0.9132 0.1543 0.3772
vn -0.9125 0.1565 0.3779
vn 0.0000 0.4989 -0.8667
vn 0.0000 -0.9998 0.0221
usemtl Material
s off
f 1/1/1 2/2/1 4/3/1 3/4/1
f 3/5/2 4/6/2 8/7/2 7/8/2
f 7/9/3 8/10/3 6/11/3 5/12/3
f 5/13/4 6/14/4 2/15/4 1/16/4
f 3/17/5 7/18/5 5/13/5 1/16/5
f 8/7/6 4/6/6 2/15/6 6/14/6
f 65/19/7 10/20/7 12/21/7 66/22/7
f 66/22/8 12/21/8 16/23/8 67/24/8
f 67/24/9 16/23/9 14/25/9 68/26/9
f 68/26/10 14/25/10 10/27/10 65/28/10
f 17/29/1 18/30/1 20/31/1 19/32/1
f 19/33/11 20/34/11 24/35/11 23/36/11
f 23/36/3 24/35/3 22/37/3 21/38/3
f 21/38/12 22/37/12 18/30/12 17/29/12
f 19/39/13 23/40/13 21/38/13 17/29/13
f 24/41/14 20/42/14 18/30/14 22/37/14
f 28/43/15 26/44/15 25/45/15 27/46/15
f 32/47/16 31/48/16 29/49/16 30/50/16
f 27/51/3 31/52/3 32/53/3 28/54/3
f 26/55/1 30/56/1 29/57/1 25/58/1
f 25/45/17 29/59/17 31/60/17 27/46/17
f 26/55/18 33/61/18 35/62/18 30/56/18
f 33/61/19 37/63/19 39/64/19 35/62/19
f 30/50/20 35/65/20 36/66/20 32/47/20
f 28/43/21 34/67/21 33/68/21 26/44/21
f 32/53/22 36/69/22 34/70/22 28/54/22
f 38/71/23 40/72/23 39/73/23 37/74/23
f 35/65/24 39/75/24 40/76/24 36/66/24
f 36/69/25 40/77/25 38/78/25 34/70/25
f 34/67/26 38/71/26 37/74/26 33/68/26
f 57/79/27 42/80/27 44/81/27 58/82/27
f 58/82/28 44/81/28 48/83/28 59/84/28
f 59/84/29 48/83/29 46/85/29 60/86/29
f 60/86/30 46/85/30 42/87/30 57/88/30
f 43/89/31 47/90/31 45/91/31 41/92/31
f 61/93/32 50/94/32 52/95/32 62/96/32
f 62/96/33 52/95/33 56/97/33 63/98/33
f 63/98/34 56/97/34 54/99/34 64/100/34
f 64/101/35 54/102/35 50/94/35 61/93/35
f 51/103/31 55/104/31 53/105/31 49/106/31
f 87/107/36 60/86/36 57/88/36 88/108/36
f 86/109/3 59/84/3 60/86/3 87/107/3
f 85/110/37 58/82/37 59/84/37 86/109/37
f 88/111/1 57/79/1 58/82/1 85/110/1
f 91/112/38 64/101/38 61/93/38 92/113/38
f 90/114/3 63/98/3 64/100/3 91/115/3
f 89/116/39 62/96/39 63/98/39 90/114/39
f 92/113/1 61/93/1 62/96/1 89/116/1
f 13/117/40 68/26/40 65/28/40 9/118/40
f 15/119/41 67/24/41 68/26/41 13/117/41
f 11/120/42 66/22/42 67/24/42 15/119/42
f 9/121/43 65/19/43 66/22/43 11/120/43
f 69/122/44 70/123/44 72/124/44 71/125/44
f 71/126/45 72/127/45 76/128/45 75/129/45
f 75/130/46 76/131/46 74/132/46 73/133/46
f 73/133/47 74/132/47 70/123/47 69/122/47
f 71/126/5 75/129/5 73/133/5 69/122/5
f 76/134/6 72/135/6 70/123/6 74/132/6
f 77/136/48 78/137/48 80/138/48 79/139/48
f 79/139/49 80/138/49 84/140/49 83/141/49
f 83/141/50 84/140/50 82/142/50 81/143/50
f 81/144/51 82/145/51 78/146/51 77/147/51
f 79/139/5 83/141/5 81/144/5 77/147/5
f 84/140/6 80/138/6 78/148/6 82/149/6
f 41/150/52 88/111/52 85/110/52 43/151/52
f 90/114/53 55/152/53 99/153/53 100/154/53
f 47/155/54 86/109/54 87/107/54 45/91/54
f 45/91/55 87/107/55 88/108/55 41/92/55
f 49/106/56 92/113/56 89/116/56 51/156/56
f 85/110/57 86/109/57 96/157/57 93/158/57
f 55/152/58 90/114/58 91/115/58 53/159/58
f 53/105/59 91/112/59 92/113/59 49/106/59
f 55/104/31 51/103/31 98/160/31 99/161/31
f 43/151/60 85/110/60 93/158/60 94/162/60
f 89/116/61 90/114/61 100/154/61 97/163/61
f 86/109/62 47/155/62 95/164/62 96/157/62
f 47/90/31 43/89/31 94/165/31 95/166/31
f 51/156/63 89/116/63 97/163/63 98/167/63
f 94/168/64 93/158/64 96/157/64 95/169/64
f 98/170/64 97/163/64 100/154/64 99/171/64
f 11/120/65 15/119/65 13/172/65 9/173/65
