# Blender v2.82 (sub 7) OBJ File: 'Ostrich.blend'
# www.blender.org
mtllib Ostrich_000123.mtl
o Cube_Cube.001
v -0.250000 0.103688 0.399997
v -0.250000 0.503680 0.397544
v -0.250000 0.098782 -0.399988
v -0.250000 0.498775 -0.402441
v 0.250000 0.103688 0.399997
v 0.250000 0.503680 0.397544
v 0.250000 0.098782 -0.399988
v 0.250000 0.498775 -0.402441
v -0.100000 0.280006 -0.300908
v -0.056000 0.920010 -0.353411
v -0.100000 0.278043 -0.500898
v -0.056000 0.917914 -0.465392
v 0.100000 0.280006 -0.300908
v 0.056000 0.920010 -0.353411
v 0.100000 0.278043 -0.500898
v 0.056000 0.917914 -0.465392
v -0.100000 0.058227 0.512798
v -0.100000 0.458177 0.496404
v -0.100000 0.054132 0.412882
v -0.100000 0.454082 0.396488
v 0.100000 0.058227 0.512798
v 0.100000 0.458177 0.496404
v 0.100000 0.054132 0.412882
v 0.100000 0.454082 0.396488
v -0.070000 1.049941 -0.330757
v -0.070000 1.037946 -0.510635
v 0.070000 1.049941 -0.330757
v 0.070000 1.037946 -0.510635
v -0.070000 0.899950 -0.329094
v -0.070000 0.897955 -0.509083
v 0.070000 0.899950 -0.329094
v 0.070000 0.897955 -0.509083
v -0.040000 0.996840 -0.610185
v 0.040000 0.996840 -0.610185
v -0.040000 0.916845 -0.609299
v 0.040000 0.916845 -0.609299
v -0.020000 0.956572 -0.709745
v 0.020000 0.956572 -0.709745
v -0.020000 0.925736 -0.709403
v 0.020000 0.925736 -0.709403
v 0.100000 -0.500134 -0.003464
v 0.050000 0.234998 0.143559
v 0.090000 -0.500134 -0.083464
v 0.050000 0.168612 -0.045102
v 0.200000 -0.500134 -0.003464
v 0.250000 0.234998 0.143559
v 0.210000 -0.500134 -0.083464
v 0.250000 0.168612 -0.045102
v -0.200000 -0.500134 0.005444
v -0.250000 0.236577 0.143154
v -0.210000 -0.500134 -0.074556
v -0.250000 0.167075 -0.044381
v -0.100000 -0.500134 0.005444
v -0.050000 0.236577 0.143154
v -0.090000 -0.500134 -0.074556
v -0.050000 0.167075 -0.044381
v 0.100000 -0.149549 0.195507
v 0.100000 -0.149154 0.095508
v 0.200000 -0.149154 0.095508
v 0.200000 -0.149549 0.195507
v -0.200000 -0.147282 0.201446
v -0.200000 -0.148140 0.101450
v -0.100000 -0.148140 0.101450
v -0.100000 -0.147282 0.201446
v -0.090000 0.600297 -0.313737
v -0.090000 0.597729 -0.493719
v 0.090000 0.597729 -0.493719
v 0.090000 0.600297 -0.313737
v 0.360950 0.152934 0.276945
v 0.360950 0.453215 0.275103
v 0.260978 0.152949 0.279324
v 0.260978 0.453229 0.277483
v 0.349528 0.149992 -0.202910
v 0.349528 0.450272 -0.204752
v 0.249556 0.150006 -0.200531
v 0.249556 0.450287 -0.202372
v -0.260981 0.152950 0.279562
v -0.260981 0.453231 0.277721
v -0.360953 0.152936 0.277183
v -0.360953 0.453216 0.275341
v -0.249559 0.150008 -0.200293
v -0.249559 0.450288 -0.202134
v -0.349531 0.149993 -0.202672
v -0.349531 0.450274 -0.204514
v 0.100000 -0.465038 -0.083515
v 0.200000 -0.465038 -0.083515
v 0.200000 -0.464897 0.016485
v 0.100000 -0.464897 0.016485
v -0.200000 -0.465195 -0.074758
v -0.100000 -0.465195 -0.074758
v -0.100000 -0.464629 0.025240
v -0.200000 -0.464629 0.025240
v 0.060000 -0.465387 -0.170297
v 0.050000 -0.500134 -0.190297
v 0.250000 -0.500134 -0.190297
v 0.240000 -0.465387 -0.170297
v -0.240000 -0.465387 -0.161389
v -0.250000 -0.500134 -0.181389
v -0.050000 -0.500134 -0.181389
v -0.060000 -0.465387 -0.161389
vt 1.000000 0.002344
vt 1.000000 0.127321
vt 0.750046 0.127321
vt 0.750046 0.002344
vt 0.749862 0.155577
vt 0.624885 0.155577
vt 0.624885 0.002480
vt 0.749862 0.002480
vt 0.750046 0.002480
vt 0.750046 0.127457
vt 1.000000 0.127457
vt 1.000000 0.002480
vt 0.249954 0.002480
vt 0.374931 0.002480
vt 0.374931 0.155577
vt 0.249954 0.155577
vt 0.000000 0.155577
vt 0.000000 0.002481
vt 0.550225 0.832363
vt 0.506554 0.967370
vt 0.458446 0.956670
vt 0.475293 0.820672
vt 0.409645 0.954647
vt 0.402595 0.819777
vt 0.361369 0.961168
vt 0.330478 0.829348
vt 0.315626 0.976594
vt 0.257413 0.849837
vt 0.044996 0.806560
vt 0.044996 0.954579
vt 0.008018 0.954579
vt 0.008018 0.806560
vt 0.229887 0.806560
vt 0.229887 0.954579
vt 0.155931 0.954579
vt 0.155931 0.806560
vt 0.118952 0.954579
vt 0.118953 0.806560
vt 0.044996 0.769582
vt 0.118953 0.769582
vt 0.118952 0.991557
vt 0.044996 0.991557
vt 0.774379 0.345289
vt 0.774379 0.465813
vt 0.619181 0.465813
vt 0.619181 0.345289
vt 0.524955 0.573802
vt 0.524955 0.496323
vt 0.585216 0.496323
vt 0.585216 0.573802
vt 0.645058 0.313196
vt 0.645058 0.184063
vt 0.800017 0.184063
vt 0.800017 0.304587
vt 0.800017 0.304587
vt 0.800017 0.184063
vt 0.645058 0.184063
vt 0.645058 0.313196
vt 0.490048 0.465813
vt 0.490048 0.345289
vt 0.889896 0.270151
vt 0.889896 0.201280
vt 0.977690 0.236437
vt 0.977690 0.209889
vt 0.572303 0.617699
vt 0.537868 0.617699
vt 0.867100 0.371115
vt 0.867100 0.439986
vt 0.889897 0.201281
vt 0.889897 0.270151
vt 0.959554 0.388333
vt 0.986102 0.388333
vt 0.986102 0.422768
vt 0.959554 0.422768
vt 0.563694 0.660958
vt 0.546477 0.660958
vt 0.977690 0.209889
vt 0.977690 0.236437
vt 0.056947 0.502763
vt 0.031342 0.678742
vt 0.105364 0.679798
vt 0.113551 0.493295
vt 0.181247 0.679800
vt 0.172072 0.486316
vt 0.258096 0.678847
vt 0.228924 0.489689
vt 0.350833 0.653486
vt 0.278396 0.479726
vt 0.260664 0.232791
vt 0.198888 0.232721
vt 0.203989 0.273911
vt 0.255469 0.273969
vt 0.231797 0.491804
vt 0.259470 0.675650
vt 0.185342 0.676596
vt 0.174632 0.486937
vt 0.108143 0.676596
vt 0.115699 0.484082
vt 0.031342 0.675155
vt 0.058725 0.492177
vt 0.281442 0.481753
vt 0.353399 0.650288
vt 0.212076 0.231900
vt 0.272063 0.233967
vt 0.265687 0.273786
vt 0.215697 0.272064
vt 0.201809 0.294807
vt 0.255678 0.294648
vt 0.155095 0.254535
vt 0.091592 0.258712
vt 0.058515 0.304298
vt 0.264991 0.294002
vt 0.212481 0.291941
vt 0.106345 0.252865
vt 0.068530 0.296121
vt 0.169828 0.248696
vt 0.309271 0.694987
vt 0.222196 0.713314
vt 0.396937 0.686350
vt 0.484080 0.687634
vt 0.569074 0.696753
vt 0.637826 0.750046
vt 0.637826 0.937556
vt 0.575382 0.937556
vt 0.575382 0.750046
vt 0.637826 0.687602
vt 0.637826 0.500092
vt 0.937556 0.500092
vt 0.937556 0.687602
vt 1.000000 0.750046
vt 1.000000 0.937556
vt 0.937556 0.937556
vt 0.937556 0.750046
vt 0.937556 1.000000
vt 0.637826 1.000000
vt 1.000000 0.750046
vt 1.000000 0.937556
vt 0.937556 0.937556
vt 0.937556 0.750046
vt 0.637826 0.937556
vt 0.637826 0.750046
vt 0.575382 0.937556
vt 0.575382 0.750046
vt 0.637826 0.687602
vt 0.637826 0.500092
vt 0.937556 0.500092
vt 0.937556 0.687602
vt 0.937556 1.000000
vt 0.637826 1.000000
vt 0.051395 0.289109
vt 0.069292 0.255431
vt 0.084240 0.246065
vt 0.076987 0.187016
vt 0.096428 0.196312
vt 0.176155 0.244039
vt 0.191735 0.241627
vt 0.156383 0.196685
vt 0.069733 0.210295
vt 0.062349 0.279584
vt 0.193920 0.177806
vt 0.293899 0.181250
vt 0.051183 0.206234
vt 0.184607 0.197084
vt 0.174184 0.184472
vt 0.281319 0.177816
vt 0.178358 0.177699
vt 0.202337 0.190319
vt 0.061887 0.191752
vt 0.158165 0.176629
vt 0.189678 0.177487
vt 0.091701 0.176629
vt 0.398221 0.599207
vt 0.485364 0.600491
vn -1.0000 0.0000 0.0000
vn 0.0000 -0.0061 -1.0000
vn 1.0000 0.0000 0.0000
vn 0.0000 0.0061 1.0000
vn 0.0000 -1.0000 0.0061
vn 0.0000 1.0000 -0.0061
vn -0.9944 0.1056 -0.0017
vn 0.0000 0.0881 -0.9961
vn 0.9944 0.1056 -0.0017
vn 0.0000 0.1231 0.9924
vn 0.0000 -0.0410 -0.9992
vn 0.0000 0.0410 0.9992
vn 0.0000 -0.9992 0.0410
vn 0.0000 0.9992 -0.0410
vn 0.0000 0.9978 -0.0665
vn 0.0000 -0.9999 0.0111
vn 0.0000 0.0111 0.9999
vn -0.9578 -0.0032 -0.2873
vn -0.9806 -0.0022 -0.1961
vn 0.0000 -0.9827 -0.1852
vn 0.0000 0.9243 -0.3817
vn 0.9578 -0.0032 -0.2873
vn 0.0000 -0.0111 -0.9999
vn 0.0000 -0.9961 -0.0885
vn 0.9806 -0.0022 -0.1961
vn 0.0000 0.9270 -0.3750
vn -0.9907 -0.1327 0.0303
vn -0.0000 -0.4046 -0.9145
vn 0.9907 -0.1327 0.0303
vn 0.0000 0.1339 0.9910
vn 0.0000 -1.0000 0.0000
vn -0.9907 -0.1323 0.0324
vn 0.0000 -0.4199 -0.9076
vn 0.9907 -0.1323 0.0324
vn 0.0000 0.1501 0.9887
vn -0.0000 -0.4937 0.8696
vn 0.0000 0.4931 -0.8700
vn 0.0000 -0.4854 0.8743
vn 0.0000 0.4858 -0.8741
vn 0.0000 0.0400 0.9992
vn 0.9995 0.0312 -0.0004
vn 0.0000 0.0225 -0.9997
vn -0.9995 0.0312 -0.0004
vn 0.0238 0.0061 0.9997
vn -0.9997 0.0001 0.0238
vn -0.0238 -0.0061 -0.9997
vn 0.9997 -0.0001 -0.0238
vn -0.0238 0.0061 0.9997
vn -0.9997 -0.0001 -0.0238
vn 0.0238 -0.0061 -0.9997
vn 0.9997 0.0001 0.0238
vn -0.9906 0.1253 0.0549
vn 0.9130 0.1548 0.3774
vn 0.9906 0.1253 0.0549
vn -0.0000 -0.4927 0.8702
vn -0.9906 0.1254 0.0546
vn 0.0000 1.0000 -0.0040
vn 0.9906 0.1254 0.0546
vn -0.0000 -0.4870 0.8734
vn -0.9133 0.1538 0.3771
vn 0.0000 1.0000 -0.0022
vn 0.9133 0.1538 0.3771
vn -0.9130 0.1548 0.3774
vn 0.0000 0.4989 -0.8667
vn 0.0000 -1.0000 0.0098
usemtl Material
s off
f 1/1/1 2/2/1 4/3/1 3/4/1
f 3/5/2 4/6/2 8/7/2 7/8/2
f 7/9/3 8/10/3 6/11/3 5/12/3
f 5/13/4 6/14/4 2/15/4 1/16/4
f 3/17/5 7/18/5 5/13/5 1/16/5
f 8/7/6 4/6/6 2/15/6 6/14/6
f 65/19/7 10/20/7 12/21/7 66/22/7
f 66/22/8 12/21/8 16/23/8 67/24/8
f 67/24/9 16/23/9 14/25/9 68/26/9
f 68/26/10 14/25/10 10/27/10 65/28/10
f 17/29/1 18/30/1 20/31/1 19/32/1
f 19/33/11 20/34/11 24/35/11 23/36/11
f 23/36/3 24/35/3 22/37/3 21/38/3
f 21/38/12 22/37/12 18/30/12 17/29/12
f 19/39/13 23/40/13 21/38/13 17/29/13
f 24/41/14 20/42/14 18/30/14 22/37/14
f 28/43/15 26/44/15 25/45/15 27/46/15
f 32/47/16 31/48/16 29/49/16 30/50/16
f 27/51/3 31/52/3 32/53/3 28/54/3
f 26/55/1 30/56/1 29/57/1 25/58/1
f 25/45/17 29/59/17 31/60/17 27/46/17
f 26/55/18 33/61/18 35/62/18 30/56/18
f 33/61/19 37/63/19 39/64/19 35/62/19
f 30/50/20 35/65/20 36/66/20 32/47/20
f 28/43/21 34/67/21 33/68/21 26/44/21
f 32/53/22 36/69/22 34/70/22 28/54/22
f 38/71/23 40/72/23 39/73/23 37/74/23
f 35/65/24 39/75/24 40/76/24 36/66/24
f 36/69/25 40/77/25 38/78/25 34/70/25
f 34/67/26 38/71/26 37/74/26 33/68/26
f 57/79/27 42/80/27 44/81/27 58/82/27
f 58/82/28 44/81/28 48/83/28 59/84/28
f 59/84/29 48/83/29 46/85/29 60/86/29
f 60/86/30 46/85/30 42/87/30 57/88/30
f 43/89/31 47/90/31 45/91/31 41/92/31
f 61/93/32 50/94/32 52/95/32 62/96/32
f 62/96/33 52/95/33 56/97/33 63/98/33
f 63/98/34 56/97/34 54/99/34 64/100/34
f 64/101/35 54/102/35 50/94/35 61/93/35
f 51/103/31 55/104/31 53/105/31 49/106/31
f 87/107/36 60/86/36 57/88/36 88/108/36
f 86/109/3 59/84/3 60/86/3 87/107/3
f 85/110/37 58/82/37 59/84/37 86/109/37
f 88/111/1 57/79/1 58/82/1 85/110/1
f 91/112/38 64/101/38 61/93/38 92/113/38
f 90/114/3 63/98/3 64/100/3 91/115/3
f 89/116/39 62/96/39 63/98/39 90/114/39
f 92/113/1 61/93/1 62/96/1 89/116/1
f 13/117/40 68/26/40 65/28/40 9/118/40
f 15/119/41 67/24/41 68/26/41 13/117/41
f 11/120/42 66/22/42 67/24/42 15/119/42
f 9/121/43 65/19/43 66/22/43 11/120/43
f 69/122/44 70/123/44 72/124/44 71/125/44
f 71/126/45 72/127/45 76/128/45 75/129/45
f 75/130/46 76/131/46 74/132/46 73/133/46
f 73/133/47 74/132/47 70/123/47 69/122/47
f 71/126/5 75/129/5 73/133/5 69/122/5
f 76/134/6 72/135/6 70/123/6 74/132/6
f 77/136/48 78/137/48 80/138/48 79/139/48
f 79/139/49 80/138/49 84/140/49 83/141/49
f 83/141/50 84/140/50 82/142/50 81/143/50
f 81/144/51 82/145/51 78/146/51 77/147/51
f 79/139/5 83/141/5 81/144/5 77/147/5
f 84/140/6 80/138/6 78/148/6 82/149/6
f 41/150/52 88/111/52 85/110/52 43/151/52
f 90/114/53 55/152/53 99/153/53 100/154/53
f 47/155/54 86/109/54 87/107/54 45/91/54
f 45/91/55 87/107/55 88/108/55 41/92/55
f 49/106/56 92/113/56 89/116/56 51/156/56
f 85/110/57 86/109/57 96/157/57 93/158/57
f 55/152/58 90/114/58 91/115/58 53/159/58
f 53/105/59 91/112/59 92/113/59 49/106/59
f 55/104/31 51/103/31 98/160/31 99/161/31
f 43/151/60 85/110/60 93/158/60 94/162/60
f 89/116/61 90/114/61 100/154/61 97/163/61
f 86/109/62 47/155/62 95/164/62 96/157/62
f 47/90/31 43/89/31 94/165/31 95/166/31
f 51/156/63 89/116/63 97/163/63 98/167/63
f 94/168/64 93/158/64 96/157/64 95/169/64
f 98/170/64 97/163/64 100/154/64 99/171/64
f 11/120/65 15/119/65 13/172/65 9/173/65
