# Blender v2.82 (sub 7) OBJ File: 'Ostrich.blend'
# www.blender.org
mtllib Ostrich_000037.mtl
o Cube_Cube.001
v -0.250000 0.086637 0.400000
v -0.250000 0.486637 0.400000
v -0.250000 0.086637 -0.400000
v -0.250000 0.486637 -0.400000
v 0.250000 0.086637 0.400000
v 0.250000 0.486637 0.400000
v 0.250000 0.086637 -0.400000
v 0.250000 0.486637 -0.400000
v -0.100000 0.259473 -0.304101
v -0.056000 0.895188 -0.282497
v -0.100000 0.274272 -0.503552
v -0.056000 0.911813 -0.393257
v 0.100000 0.259473 -0.304101
v 0.056000 0.895188 -0.282497
v 0.100000 0.274272 -0.503552
v 0.056000 0.911813 -0.393257
v -0.100000 0.036637 0.500000
v -0.100000 0.436923 0.500000
v -0.100000 0.036637 0.400000
v -0.100000 0.436923 0.400000
v 0.100000 0.036637 0.500000
v 0.100000 0.436923 0.500000
v 0.100000 0.036637 0.400000
v 0.100000 0.436923 0.400000
v -0.078547 1.025396 -0.256289
v -0.059702 1.030104 -0.435517
v 0.060681 1.026145 -0.241630
v 0.079527 1.030852 -0.420858
v -0.076472 0.875898 -0.268367
v -0.057765 0.890572 -0.446790
v 0.062757 0.876646 -0.253708
v 0.081464 0.891320 -0.432131
v -0.018921 0.998550 -0.534721
v 0.060638 0.998978 -0.526344
v -0.017814 0.918818 -0.541162
v 0.061745 0.919245 -0.532786
v 0.011903 0.967779 -0.634904
v 0.051683 0.967992 -0.630715
v 0.012330 0.937044 -0.637387
v 0.052109 0.937258 -0.633198
v 0.100000 -0.500134 -0.000000
v 0.050000 0.225360 0.142769
v 0.090000 -0.500134 -0.080000
v 0.050000 0.148618 -0.041921
v 0.200000 -0.500134 -0.000000
v 0.250000 0.225360 0.142769
v 0.210000 -0.500134 -0.080000
v 0.250000 0.148618 -0.041921
v -0.200000 -0.500134 -0.000000
v -0.250000 0.225360 0.142769
v -0.210000 -0.500134 -0.080000
v -0.250000 0.148618 -0.041921
v -0.100000 -0.500134 -0.000000
v -0.050000 0.225360 0.142769
v -0.090000 -0.500134 -0.080000
v -0.050000 0.148618 -0.041921
v 0.100000 -0.158588 0.215743
v 0.100000 -0.158591 0.115743
v 0.200000 -0.158591 0.115743
v 0.200000 -0.158588 0.215743
v -0.200000 -0.158588 0.215743
v -0.200000 -0.158591 0.115743
v -0.100000 -0.158591 0.115743
v -0.100000 -0.158588 0.215743
v -0.090000 0.576455 -0.293333
v -0.090000 0.596488 -0.472214
v 0.090000 0.596488 -0.472214
v 0.090000 0.576455 -0.293333
v 0.368112 0.119215 0.264176
v 0.367830 0.419274 0.275845
v 0.268188 0.118970 0.268055
v 0.267905 0.419029 0.279724
v 0.349460 0.137836 -0.215100
v 0.349177 0.437895 -0.203431
v 0.249535 0.137591 -0.211220
v 0.249253 0.437650 -0.199551
v -0.268196 0.118946 0.268443
v -0.267913 0.419005 0.280112
v -0.368120 0.119191 0.264564
v -0.367837 0.419250 0.276233
v -0.249543 0.137567 -0.210832
v -0.249261 0.437626 -0.199163
v -0.349467 0.137812 -0.214712
v -0.349185 0.437871 -0.203043
v 0.100000 -0.464172 -0.079190
v 0.200000 -0.464172 -0.079190
v 0.200000 -0.466406 0.020785
v 0.100000 -0.466406 0.020785
v -0.200000 -0.464172 -0.079190
v -0.100000 -0.464172 -0.079190
v -0.100000 -0.466406 0.020785
v -0.200000 -0.466406 0.020785
v 0.060000 -0.465387 -0.166833
v 0.050000 -0.500134 -0.186833
v 0.250000 -0.500134 -0.186833
v 0.240000 -0.465387 -0.166833
v -0.240000 -0.465387 -0.166833
v -0.250000 -0.500134 -0.186833
v -0.050000 -0.500134 -0.186833
v -0.060000 -0.465387 -0.166833
vt 1.000000 0.002344
vt 1.000000 0.127321
vt 0.750046 0.127321
vt 0.750046 0.002344
vt 0.749862 0.155577
vt 0.624885 0.155577
vt 0.624885 0.002480
vt 0.749862 0.002480
vt 0.750046 0.002480
vt 0.750046 0.127457
vt 1.000000 0.127457
vt 1.000000 0.002480
vt 0.249954 0.002480
vt 0.374931 0.002480
vt 0.374931 0.155577
vt 0.249954 0.155577
vt 0.000000 0.155577
vt 0.000000 0.002481
vt 0.550225 0.832363
vt 0.506554 0.967370
vt 0.458446 0.956670
vt 0.475293 0.820672
vt 0.409645 0.954647
vt 0.402595 0.819777
vt 0.361369 0.961168
vt 0.330478 0.829348
vt 0.315626 0.976594
vt 0.257413 0.849837
vt 0.044996 0.806560
vt 0.044996 0.954579
vt 0.008018 0.954579
vt 0.008018 0.806560
vt 0.229887 0.806560
vt 0.229887 0.954579
vt 0.155931 0.954579
vt 0.155931 0.806560
vt 0.118952 0.954579
vt 0.118953 0.806560
vt 0.044996 0.769582
vt 0.118953 0.769582
vt 0.118952 0.991557
vt 0.044996 0.991557
vt 0.774379 0.345289
vt 0.774379 0.465813
vt 0.619181 0.465813
vt 0.619181 0.345289
vt 0.524955 0.573802
vt 0.524955 0.496323
vt 0.585216 0.496323
vt 0.585216 0.573802
vt 0.645058 0.313196
vt 0.645058 0.184063
vt 0.800017 0.184063
vt 0.800017 0.304587
vt 0.800017 0.304587
vt 0.800017 0.184063
vt 0.645058 0.184063
vt 0.645058 0.313196
vt 0.490048 0.465813
vt 0.490048 0.345289
vt 0.889896 0.270151
vt 0.889896 0.201280
vt 0.977690 0.236437
vt 0.977690 0.209889
vt 0.572303 0.617699
vt 0.537868 0.617699
vt 0.867100 0.371115
vt 0.867100 0.439986
vt 0.889897 0.201281
vt 0.889897 0.270151
vt 0.959554 0.388333
vt 0.986102 0.388333
vt 0.986102 0.422768
vt 0.959554 0.422768
vt 0.563694 0.660958
vt 0.546477 0.660958
vt 0.977690 0.209889
vt 0.977690 0.236437
vt 0.056947 0.502763
vt 0.031342 0.678742
vt 0.105364 0.679798
vt 0.113551 0.493295
vt 0.181247 0.679800
vt 0.172072 0.486316
vt 0.258096 0.678847
vt 0.228924 0.489689
vt 0.350833 0.653486
vt 0.278396 0.479726
vt 0.260664 0.232791
vt 0.198888 0.232721
vt 0.203989 0.273911
vt 0.255469 0.273969
vt 0.231797 0.491804
vt 0.259470 0.675650
vt 0.185342 0.676596
vt 0.174632 0.486937
vt 0.108143 0.676596
vt 0.115699 0.484082
vt 0.031342 0.675155
vt 0.058725 0.492177
vt 0.281442 0.481753
vt 0.353399 0.650288
vt 0.212076 0.231900
vt 0.272063 0.233967
vt 0.265687 0.273786
vt 0.215697 0.272064
vt 0.201809 0.294807
vt 0.255678 0.294648
vt 0.155095 0.254535
vt 0.091592 0.258712
vt 0.058515 0.304298
vt 0.264991 0.294002
vt 0.212481 0.291941
vt 0.106345 0.252865
vt 0.068530 0.296121
vt 0.169828 0.248696
vt 0.309271 0.694987
vt 0.222196 0.713314
vt 0.396937 0.686350
vt 0.484080 0.687634
vt 0.569074 0.696753
vt 0.637826 0.750046
vt 0.637826 0.937556
vt 0.575382 0.937556
vt 0.575382 0.750046
vt 0.637826 0.687602
vt 0.637826 0.500092
vt 0.937556 0.500092
vt 0.937556 0.687602
vt 1.000000 0.750046
vt 1.000000 0.937556
vt 0.937556 0.937556
vt 0.937556 0.750046
vt 0.937556 1.000000
vt 0.637826 1.000000
vt 1.000000 0.750046
vt 1.000000 0.937556
vt 0.937556 0.937556
vt 0.937556 0.750046
vt 0.637826 0.937556
vt 0.637826 0.750046
vt 0.575382 0.937556
vt 0.575382 0.750046
vt 0.637826 0.687602
vt 0.637826 0.500092
vt 0.937556 0.500092
vt 0.937556 0.687602
vt 0.937556 1.000000
vt 0.637826 1.000000
vt 0.051395 0.289109
vt 0.069292 0.255431
vt 0.084240 0.246065
vt 0.076987 0.187016
vt 0.096428 0.196312
vt 0.176155 0.244039
vt 0.191735 0.241627
vt 0.156383 0.196685
vt 0.069733 0.210295
vt 0.062349 0.279584
vt 0.193920 0.177806
vt 0.293899 0.181250
vt 0.051183 0.206234
vt 0.184607 0.197084
vt 0.174184 0.184472
vt 0.281319 0.177816
vt 0.178358 0.177699
vt 0.202337 0.190319
vt 0.061887 0.191752
vt 0.158165 0.176629
vt 0.189678 0.177487
vt 0.091701 0.176629
vt 0.398221 0.599207
vt 0.485364 0.600491
vn -1.0000 0.0000 0.0000
vn 0.0000 0.0000 -1.0000
vn 1.0000 0.0000 0.0000
vn 0.0000 0.0000 1.0000
vn 0.0000 -1.0000 0.0000
vn 0.0000 1.0000 0.0000
vn -0.9944 0.1048 0.0133
vn 0.0000 0.2429 -0.9701
vn 0.9944 0.1048 0.0133
vn 0.0000 -0.0340 0.9994
vn -0.0080 0.9996 0.0254
vn 0.0138 -0.9967 -0.0805
vn 0.9945 0.0053 0.1047
vn -0.9945 -0.0053 -0.1047
vn -0.1039 -0.0815 0.9912
vn -0.9227 0.0183 -0.3851
vn -0.9548 0.0107 -0.2971
vn 0.0339 -0.9613 -0.2734
vn 0.0258 0.9557 -0.2934
vn 0.9824 0.0285 -0.1845
vn 0.1039 0.0815 -0.9912
vn 0.0241 -0.9836 -0.1788
vn 0.9956 0.0212 -0.0917
vn 0.0250 0.9578 -0.2865
vn -0.9907 -0.1315 0.0355
vn 0.0000 -0.4566 -0.8897
vn 0.9907 -0.1315 0.0355
vn 0.0000 0.1867 0.9824
vn 0.0000 -0.5351 0.8448
vn 0.0000 0.5378 -0.8431
vn 0.9995 0.0311 0.0029
vn 0.0000 0.0968 -0.9953
vn -0.9995 0.0311 0.0029
vn 0.0389 -0.0388 0.9985
vn -0.9992 -0.0024 0.0388
vn -0.0389 0.0388 -0.9985
vn 0.9992 0.0024 -0.0388
vn 0.0009 -0.9992 -0.0389
vn -0.0009 0.9992 0.0389
vn -0.0389 -0.0388 0.9985
vn -0.9992 0.0024 -0.0388
vn 0.0389 0.0388 -0.9985
vn 0.9992 -0.0024 0.0388
vn -0.0009 -0.9992 -0.0389
vn 0.0009 0.9992 0.0389
vn -0.9906 0.1246 0.0566
vn 0.9149 0.1483 0.3754
vn 0.9906 0.1246 0.0566
vn -0.0000 -0.5246 0.8513
vn 0.0000 0.9999 -0.0139
vn -0.9149 0.1483 0.3754
vn 0.0000 0.4989 -0.8667
vn 0.0000 -0.9973 -0.0740
usemtl Material
s off
f 1/1/1 2/2/1 4/3/1 3/4/1
f 3/5/2 4/6/2 8/7/2 7/8/2
f 7/9/3 8/10/3 6/11/3 5/12/3
f 5/13/4 6/14/4 2/15/4 1/16/4
f 3/17/5 7/18/5 5/13/5 1/16/5
f 8/7/6 4/6/6 2/15/6 6/14/6
f 65/19/7 10/20/7 12/21/7 66/22/7
f 66/22/8 12/21/8 16/23/8 67/24/8
f 67/24/9 16/23/9 14/25/9 68/26/9
f 68/26/10 14/25/10 10/27/10 65/28/10
f 17/29/1 18/30/1 20/31/1 19/32/1
f 19/33/2 20/34/2 24/35/2 23/36/2
f 23/36/3 24/35/3 22/37/3 21/38/3
f 21/38/4 22/37/4 18/30/4 17/29/4
f 19/39/5 23/40/5 21/38/5 17/29/5
f 24/41/6 20/42/6 18/30/6 22/37/6
f 28/43/11 26/44/11 25/45/11 27/46/11
f 32/47/12 31/48/12 29/49/12 30/50/12
f 27/51/13 31/52/13 32/53/13 28/54/13
f 26/55/14 30/56/14 29/57/14 25/58/14
f 25/45/15 29/59/15 31/60/15 27/46/15
f 26/55/16 33/61/16 35/62/16 30/56/16
f 33/61/17 37/63/17 39/64/17 35/62/17
f 30/50/18 35/65/18 36/66/18 32/47/18
f 28/43/19 34/67/19 33/68/19 26/44/19
f 32/53/20 36/69/20 34/70/20 28/54/20
f 38/71/21 40/72/21 39/73/21 37/74/21
f 35/65/22 39/75/22 40/76/22 36/66/22
f 36/69/23 40/77/23 38/78/23 34/70/23
f 34/67/24 38/71/24 37/74/24 33/68/24
f 57/79/25 42/80/25 44/81/25 58/82/25
f 58/82/26 44/81/26 48/83/26 59/84/26
f 59/84/27 48/83/27 46/85/27 60/86/27
f 60/86/28 46/85/28 42/87/28 57/88/28
f 43/89/5 47/90/5 45/91/5 41/92/5
f 61/93/25 50/94/25 52/95/25 62/96/25
f 62/96/26 52/95/26 56/97/26 63/98/26
f 63/98/27 56/97/27 54/99/27 64/100/27
f 64/101/28 54/102/28 50/94/28 61/93/28
f 51/103/5 55/104/5 53/105/5 49/106/5
f 87/107/29 60/86/29 57/88/29 88/108/29
f 86/109/3 59/84/3 60/86/3 87/107/3
f 85/110/30 58/82/30 59/84/30 86/109/30
f 88/111/1 57/79/1 58/82/1 85/110/1
f 91/112/29 64/101/29 61/93/29 92/113/29
f 90/114/3 63/98/3 64/100/3 91/115/3
f 89/116/30 62/96/30 63/98/30 90/114/30
f 92/113/1 61/93/1 62/96/1 89/116/1
f 13/117/10 68/26/10 65/28/10 9/118/10
f 15/119/31 67/24/31 68/26/31 13/117/31
f 11/120/32 66/22/32 67/24/32 15/119/32
f 9/121/33 65/19/33 66/22/33 11/120/33
f 69/122/34 70/123/34 72/124/34 71/125/34
f 71/126/35 72/127/35 76/128/35 75/129/35
f 75/130/36 76/131/36 74/132/36 73/133/36
f 73/133/37 74/132/37 70/123/37 69/122/37
f 71/126/38 75/129/38 73/133/38 69/122/38
f 76/134/39 72/135/39 70/123/39 74/132/39
f 77/136/40 78/137/40 80/138/40 79/139/40
f 79/139/41 80/138/41 84/140/41 83/141/41
f 83/141/42 84/140/42 82/142/42 81/143/42
f 81/144/43 82/145/43 78/146/43 77/147/43
f 79/139/44 83/141/44 81/144/44 77/147/44
f 84/140/45 80/138/45 78/148/45 82/149/45
f 41/150/46 88/111/46 85/110/46 43/151/46
f 90/114/47 55/152/47 99/153/47 100/154/47
f 47/155/48 86/109/48 87/107/48 45/91/48
f 45/91/49 87/107/49 88/108/49 41/92/49
f 49/106/46 92/113/46 89/116/46 51/156/46
f 85/110/50 86/109/50 96/157/50 93/158/50
f 55/152/48 90/114/48 91/115/48 53/159/48
f 53/105/49 91/112/49 92/113/49 49/106/49
f 55/104/5 51/103/5 98/160/5 99/161/5
f 43/151/51 85/110/51 93/158/51 94/162/51
f 89/116/50 90/114/50 100/154/50 97/163/50
f 86/109/47 47/155/47 95/164/47 96/157/47
f 47/90/5 43/89/5 94/165/5 95/166/5
f 51/156/51 89/116/51 97/163/51 98/167/51
f 94/168/52 93/158/52 96/157/52 95/169/52
f 98/170/52 97/163/52 100/154/52 99/171/52
f 11/120/53 15/119/53 13/172/53 9/173/53
