# Blender v2.82 (sub 7) OBJ File: 'Ostrich.blend'
# www.blender.org
mtllib Ostrich_000083.mtl
o Cube_Cube.001
v 0.280956 0.244448 -0.421019
v 0.271262 0.620972 -0.286352
v 0.226883 -0.025584 0.330086
v 0.217189 0.350940 0.464753
v -0.217753 0.244448 -0.456922
v -0.227448 0.620973 -0.322254
v -0.271826 -0.025584 0.294183
v -0.281521 0.350941 0.428851
v 0.079586 0.171118 0.287149
v 0.024242 0.770599 0.443143
v 0.065804 0.114914 0.478594
v 0.016206 0.766341 0.554773
v -0.119897 0.171118 0.272788
v -0.087469 0.770599 0.435100
v -0.133680 0.114914 0.464232
v -0.095505 0.766341 0.546730
v 0.144845 0.305550 -0.619362
v 0.127909 0.628959 -0.384098
v 0.139044 0.246624 -0.538776
v 0.122108 0.570033 -0.303513
v -0.054639 0.305551 -0.633723
v -0.071574 0.628959 -0.398459
v -0.060440 0.246625 -0.553137
v -0.077376 0.570033 -0.317873
v 0.038741 0.905825 0.436716
v 0.025988 0.874885 0.613860
v -0.100897 0.905825 0.426663
v -0.113650 0.874885 0.603807
v 0.039998 0.756851 0.419254
v 0.027162 0.735842 0.597562
v -0.099640 0.756851 0.409201
v -0.112477 0.735842 0.587510
v -0.010731 0.823487 0.706110
v -0.090524 0.823487 0.700365
v -0.010060 0.744034 0.696797
v -0.089854 0.744034 0.691052
v -0.037482 0.772921 0.799175
v -0.077379 0.772921 0.796303
v -0.037224 0.742294 0.795585
v -0.077121 0.742294 0.792713
v -0.050417 0.106462 -0.692326
v -0.047249 0.320837 -0.039987
v -0.041635 0.028206 -0.675039
v -0.040758 0.142431 -0.130150
v -0.150158 0.106462 -0.699507
v -0.246733 0.320837 -0.054349
v -0.161325 0.028206 -0.683655
v -0.240242 0.142432 -0.144512
v 0.067923 -0.500134 0.004890
v 0.260211 0.220236 -0.153570
v 0.072152 -0.500134 0.085401
v 0.243542 0.187961 0.043103
v -0.031819 -0.500134 -0.002291
v 0.063022 0.251582 -0.165140
v -0.047538 -0.500134 0.076785
v 0.046353 0.219308 0.031534
v -0.069232 0.421077 -0.430921
v -0.070109 0.321827 -0.418730
v -0.169851 0.321827 -0.425911
v -0.168973 0.421077 -0.438102
v 0.151418 -0.147850 -0.145155
v 0.144268 -0.144407 -0.045470
v 0.046047 -0.127251 -0.053108
v 0.053197 -0.130693 -0.152793
v 0.062018 0.463338 0.391913
v 0.049261 0.434405 0.569114
v -0.130274 0.434405 0.556189
v -0.117517 0.463338 0.378988
v -0.470724 0.248873 -0.293995
v -0.453078 0.531682 -0.194600
v -0.372891 0.250034 -0.314667
v -0.355245 0.532843 -0.215272
v -0.375428 0.087605 0.147945
v -0.357782 0.370414 0.247340
v -0.277595 0.088766 0.127273
v -0.259949 0.371575 0.226668
v 0.414707 0.250150 -0.260738
v 0.383006 0.532959 -0.164896
v 0.508570 0.248989 -0.226266
v 0.476869 0.531798 -0.130423
v 0.257089 0.088882 0.162994
v 0.225388 0.371691 0.258836
v 0.350952 0.087721 0.197467
v 0.319251 0.370530 0.293309
v -0.054225 0.038915 -0.639374
v -0.153967 0.038915 -0.646555
v -0.151934 0.134822 -0.674798
v -0.052192 0.134822 -0.667617
v 0.064393 -0.472056 0.087592
v -0.034793 -0.462597 0.079069
v -0.025701 -0.456841 -0.020350
v 0.073485 -0.466299 -0.011827
v -0.015448 -0.049519 -0.620998
v -0.003331 -0.076298 -0.650039
v -0.202815 -0.076299 -0.664400
v -0.194983 -0.049519 -0.633923
v 0.095840 -0.465387 0.174164
v 0.104378 -0.500134 0.194831
v -0.095106 -0.500134 0.180470
v -0.083695 -0.465387 0.161239
vt 1.000000 0.002344
vt 1.000000 0.127321
vt 0.750046 0.127321
vt 0.750046 0.002344
vt 0.749862 0.155577
vt 0.624885 0.155577
vt 0.624885 0.002480
vt 0.749862 0.002480
vt 0.750046 0.002480
vt 0.750046 0.127457
vt 1.000000 0.127457
vt 1.000000 0.002480
vt 0.249954 0.002480
vt 0.374931 0.002480
vt 0.374931 0.155577
vt 0.249954 0.155577
vt 0.000000 0.155577
vt 0.000000 0.002481
vt 0.550225 0.832363
vt 0.506554 0.967370
vt 0.458446 0.956670
vt 0.475293 0.820672
vt 0.409645 0.954647
vt 0.402595 0.819777
vt 0.361369 0.961168
vt 0.330478 0.829348
vt 0.315626 0.976594
vt 0.257413 0.849837
vt 0.044996 0.806560
vt 0.044996 0.954579
vt 0.008018 0.954579
vt 0.008018 0.806560
vt 0.229887 0.806560
vt 0.229887 0.954579
vt 0.155931 0.954579
vt 0.155931 0.806560
vt 0.118952 0.954579
vt 0.118953 0.806560
vt 0.044996 0.769582
vt 0.118953 0.769582
vt 0.118952 0.991557
vt 0.044996 0.991557
vt 0.774379 0.345289
vt 0.774379 0.465813
vt 0.619181 0.465813
vt 0.619181 0.345289
vt 0.524955 0.573802
vt 0.524955 0.496323
vt 0.585216 0.496323
vt 0.585216 0.573802
vt 0.645058 0.313196
vt 0.645058 0.184063
vt 0.800017 0.184063
vt 0.800017 0.304587
vt 0.800017 0.304587
vt 0.800017 0.184063
vt 0.645058 0.184063
vt 0.645058 0.313196
vt 0.490048 0.465813
vt 0.490048 0.345289
vt 0.889896 0.270151
vt 0.889896 0.201280
vt 0.977690 0.236437
vt 0.977690 0.209889
vt 0.572303 0.617699
vt 0.537868 0.617699
vt 0.867100 0.371115
vt 0.867100 0.439986
vt 0.889897 0.201281
vt 0.889897 0.270151
vt 0.959554 0.388333
vt 0.986102 0.388333
vt 0.986102 0.422768
vt 0.959554 0.422768
vt 0.563694 0.660958
vt 0.546477 0.660958
vt 0.977690 0.209889
vt 0.977690 0.236437
vt 0.056947 0.502763
vt 0.031342 0.678742
vt 0.105364 0.679798
vt 0.113551 0.493295
vt 0.181247 0.679800
vt 0.172072 0.486316
vt 0.258096 0.678847
vt 0.228924 0.489689
vt 0.350833 0.653486
vt 0.278396 0.479726
vt 0.260664 0.232791
vt 0.198888 0.232721
vt 0.203989 0.273911
vt 0.255469 0.273969
vt 0.231797 0.491804
vt 0.259470 0.675650
vt 0.185342 0.676596
vt 0.174632 0.486937
vt 0.108143 0.676596
vt 0.115699 0.484082
vt 0.031342 0.675155
vt 0.058725 0.492177
vt 0.281442 0.481753
vt 0.353399 0.650288
vt 0.212076 0.231900
vt 0.272063 0.233967
vt 0.265687 0.273786
vt 0.215697 0.272064
vt 0.201809 0.294807
vt 0.255678 0.294648
vt 0.155095 0.254535
vt 0.091592 0.258712
vt 0.058515 0.304298
vt 0.264991 0.294002
vt 0.212481 0.291941
vt 0.106345 0.252865
vt 0.068530 0.296121
vt 0.169828 0.248696
vt 0.309271 0.694987
vt 0.222196 0.713314
vt 0.396937 0.686350
vt 0.484080 0.687634
vt 0.569074 0.696753
vt 0.637826 0.750046
vt 0.637826 0.937556
vt 0.575382 0.937556
vt 0.575382 0.750046
vt 0.637826 0.687602
vt 0.637826 0.500092
vt 0.937556 0.500092
vt 0.937556 0.687602
vt 1.000000 0.750046
vt 1.000000 0.937556
vt 0.937556 0.937556
vt 0.937556 0.750046
vt 0.937556 1.000000
vt 0.637826 1.000000
vt 1.000000 0.750046
vt 1.000000 0.937556
vt 0.937556 0.937556
vt 0.937556 0.750046
vt 0.637826 0.937556
vt 0.637826 0.750046
vt 0.575382 0.937556
vt 0.575382 0.750046
vt 0.637826 0.687602
vt 0.637826 0.500092
vt 0.937556 0.500092
vt 0.937556 0.687602
vt 0.937556 1.000000
vt 0.637826 1.000000
vt 0.051395 0.289109
vt 0.069292 0.255431
vt 0.084240 0.246065
vt 0.076987 0.187016
vt 0.096428 0.196312
vt 0.176155 0.244039
vt 0.191735 0.241627
vt 0.156383 0.196685
vt 0.069733 0.210295
vt 0.062349 0.279584
vt 0.193920 0.177806
vt 0.293899 0.181250
vt 0.051183 0.206234
vt 0.184607 0.197084
vt 0.174184 0.184472
vt 0.281319 0.177816
vt 0.178358 0.177699
vt 0.202337 0.190319
vt 0.061887 0.191752
vt 0.158165 0.176629
vt 0.189678 0.177487
vt 0.091701 0.176629
vt 0.398221 0.599207
vt 0.485364 0.600491
vn 0.9974 -0.0000 0.0718
vn -0.0676 -0.3375 0.9389
vn -0.9974 0.0000 -0.0718
vn 0.0676 0.3375 -0.9389
vn 0.0242 -0.9413 -0.3367
vn -0.0242 0.9413 0.3367
vn 0.9910 0.1050 0.0834
vn -0.0718 0.0359 0.9968
vn -0.9927 0.1050 -0.0594
vn 0.0707 0.1725 -0.9825
vn -0.0580 -0.5893 0.8059
vn 0.0580 0.5893 -0.8059
vn 0.0423 -0.8079 -0.5877
vn -0.0423 0.8079 0.5877
vn -0.0123 0.9852 0.1712
vn 0.0084 -0.9932 -0.1164
vn 0.0713 0.1167 -0.9906
vn 0.9349 -0.0335 0.3534
vn 0.9641 -0.0229 0.2647
vn -0.0058 -0.9968 0.0801
vn -0.0343 0.8788 0.4760
vn -0.9758 -0.0335 0.2159
vn -0.0713 -0.1167 0.9906
vn 0.0012 -0.9999 -0.0173
vn -0.9920 -0.0229 0.1239
vn -0.0338 0.8822 0.4696
vn 0.9975 0.0370 -0.0601
vn 0.0382 -0.8469 -0.5304
vn -0.9786 0.0371 -0.2024
vn -0.0179 0.9683 0.2493
vn 0.0702 -0.2077 -0.9757
vn 0.9559 -0.2895 0.0487
vn -0.1010 -0.2320 0.9675
vn -0.9967 0.0216 -0.0780
vn 0.0588 -0.0369 -0.9976
vn 0.0000 -1.0000 0.0000
vn 0.0553 0.6382 -0.7679
vn -0.0566 -0.6160 0.7857
vn 0.0235 -0.3859 -0.9222
vn -0.9758 0.2047 -0.0772
vn -0.0250 0.3766 0.9261
vn 0.9754 -0.2064 0.0772
vn 0.0675 0.3403 -0.9379
vn -0.9974 0.0304 -0.0648
vn -0.0690 -0.2753 0.9589
vn 0.9964 0.0304 0.0788
vn -0.1985 0.3360 -0.9207
vn 0.9783 0.0116 -0.2067
vn 0.1985 -0.3360 0.9207
vn -0.9783 -0.0116 0.2067
vn -0.0588 -0.9418 -0.3310
vn 0.0588 0.9418 0.3310
vn 0.3284 0.3360 -0.8828
vn 0.9386 -0.0116 0.3447
vn -0.3284 -0.3360 0.8828
vn -0.9386 0.0116 -0.3447
vn 0.1056 -0.9418 -0.3192
vn -0.1056 0.9418 0.3192
vn 0.9803 0.0846 0.1785
vn -0.8732 0.1862 -0.4504
vn -0.9957 0.0847 0.0364
vn 0.0541 0.6579 -0.7512
vn 0.9987 0.0421 0.0283
vn -0.0707 0.1731 0.9824
vn -0.9710 0.2015 -0.1285
vn 0.0518 -0.4170 -0.9074
vn 0.9121 0.3917 0.1213
vn 0.0354 0.9992 -0.0193
vn -0.9200 0.3917 -0.0105
vn 0.9385 0.1523 -0.3100
vn -0.0480 -0.7442 0.6662
vn -0.0622 0.4989 0.8644
vn 0.0202 -0.9597 -0.2803
usemtl Material
s off
f 1/1/1 2/2/1 4/3/1 3/4/1
f 3/5/2 4/6/2 8/7/2 7/8/2
f 7/9/3 8/10/3 6/11/3 5/12/3
f 5/13/4 6/14/4 2/15/4 1/16/4
f 3/17/5 7/18/5 5/13/5 1/16/5
f 8/7/6 4/6/6 2/15/6 6/14/6
f 65/19/7 10/20/7 12/21/7 66/22/7
f 66/22/8 12/21/8 16/23/8 67/24/8
f 67/24/9 16/23/9 14/25/9 68/26/9
f 68/26/10 14/25/10 10/27/10 65/28/10
f 17/29/1 18/30/1 20/31/1 19/32/1
f 19/33/11 20/34/11 24/35/11 23/36/11
f 23/36/3 24/35/3 22/37/3 21/38/3
f 21/38/12 22/37/12 18/30/12 17/29/12
f 19/39/13 23/40/13 21/38/13 17/29/13
f 24/41/14 20/42/14 18/30/14 22/37/14
f 28/43/15 26/44/15 25/45/15 27/46/15
f 32/47/16 31/48/16 29/49/16 30/50/16
f 27/51/3 31/52/3 32/53/3 28/54/3
f 26/55/1 30/56/1 29/57/1 25/58/1
f 25/45/17 29/59/17 31/60/17 27/46/17
f 26/55/18 33/61/18 35/62/18 30/56/18
f 33/61/19 37/63/19 39/64/19 35/62/19
f 30/50/20 35/65/20 36/66/20 32/47/20
f 28/43/21 34/67/21 33/68/21 26/44/21
f 32/53/22 36/69/22 34/70/22 28/54/22
f 38/71/23 40/72/23 39/73/23 37/74/23
f 35/65/24 39/75/24 40/76/24 36/66/24
f 36/69/25 40/77/25 38/78/25 34/70/25
f 34/67/26 38/71/26 37/74/26 33/68/26
f 57/79/27 42/80/27 44/81/27 58/82/27
f 58/82/28 44/81/28 48/83/28 59/84/28
f 59/84/29 48/83/29 46/85/29 60/86/29
f 60/86/30 46/85/30 42/87/30 57/88/30
f 43/89/31 47/90/31 45/91/31 41/92/31
f 61/93/32 50/94/32 52/95/32 62/96/32
f 62/96/33 52/95/33 56/97/33 63/98/33
f 63/98/34 56/97/34 54/99/34 64/100/34
f 64/101/35 54/102/35 50/94/35 61/93/35
f 51/103/36 55/104/36 53/105/36 49/106/36
f 87/107/37 60/86/37 57/88/37 88/108/37
f 86/109/3 59/84/3 60/86/3 87/107/3
f 85/110/38 58/82/38 59/84/38 86/109/38
f 88/111/1 57/79/1 58/82/1 85/110/1
f 91/112/39 64/101/39 61/93/39 92/113/39
f 90/114/40 63/98/40 64/100/40 91/115/40
f 89/116/41 62/96/41 63/98/41 90/114/41
f 92/113/42 61/93/42 62/96/42 89/116/42
f 13/117/43 68/26/43 65/28/43 9/118/43
f 15/119/44 67/24/44 68/26/44 13/117/44
f 11/120/45 66/22/45 67/24/45 15/119/45
f 9/121/46 65/19/46 66/22/46 11/120/46
f 69/122/47 70/123/47 72/124/47 71/125/47
f 71/126/48 72/127/48 76/128/48 75/129/48
f 75/130/49 76/131/49 74/132/49 73/133/49
f 73/133/50 74/132/50 70/123/50 69/122/50
f 71/126/51 75/129/51 73/133/51 69/122/51
f 76/134/52 72/135/52 70/123/52 74/132/52
f 77/136/53 78/137/53 80/138/53 79/139/53
f 79/139/54 80/138/54 84/140/54 83/141/54
f 83/141/55 84/140/55 82/142/55 81/143/55
f 81/144/56 82/145/56 78/146/56 77/147/56
f 79/139/57 83/141/57 81/144/57 77/147/57
f 84/140/58 80/138/58 78/148/58 82/149/58
f 41/150/59 88/111/59 85/110/59 43/151/59
f 90/114/60 55/152/60 99/153/60 100/154/60
f 47/155/61 86/109/61 87/107/61 45/91/61
f 45/91/62 87/107/62 88/108/62 41/92/62
f 49/106/63 92/113/63 89/116/63 51/156/63
f 85/110/64 86/109/64 96/157/64 93/158/64
f 55/152/65 90/114/65 91/115/65 53/159/65
f 53/105/66 91/112/66 92/113/66 49/106/66
f 55/104/36 51/103/36 98/160/36 99/161/36
f 43/151/67 85/110/67 93/158/67 94/162/67
f 89/116/68 90/114/68 100/154/68 97/163/68
f 86/109/69 47/155/69 95/164/69 96/157/69
f 47/90/31 43/89/31 94/165/31 95/166/31
f 51/156/70 89/116/70 97/163/70 98/167/70
f 94/168/71 93/158/71 96/157/71 95/169/71
f 98/170/72 97/163/72 100/154/72 99/171/72
f 11/120/73 15/119/73 13/172/73 9/173/73
