# Blender v2.82 (sub 7) OBJ File: 'Ostrich.blend'
# www.blender.org
mtllib Ostrich_000068.mtl
o Cube_Cube.001
v -0.032819 0.115105 0.476366
v -0.039844 0.514818 0.462946
v -0.403568 0.084810 -0.231891
v -0.410593 0.484524 -0.245310
v 0.410159 0.115105 0.244482
v 0.403134 0.514818 0.231062
v 0.039410 0.084810 -0.463775
v 0.032385 0.484524 -0.477195
v -0.229267 0.261154 -0.222353
v -0.188169 0.894851 -0.238718
v -0.321960 0.268390 -0.399428
v -0.239600 0.910522 -0.336969
v -0.052076 0.261154 -0.315107
v -0.088942 0.894851 -0.290660
v -0.144769 0.268390 -0.492182
v -0.140373 0.910522 -0.388911
v 0.152486 0.072817 0.506926
v 0.139616 0.472139 0.482338
v 0.106221 0.065883 0.418543
v 0.093350 0.465206 0.393956
v 0.329678 0.072817 0.414172
v 0.316807 0.472139 0.389584
v 0.283412 0.065883 0.325790
v 0.270542 0.465206 0.301202
v -0.183170 1.023019 -0.198979
v -0.266666 1.032302 -0.358485
v -0.059136 1.023019 -0.263906
v -0.142632 1.032302 -0.423413
v -0.190600 0.873877 -0.213173
v -0.273600 0.893103 -0.371733
v -0.066566 0.873877 -0.278100
v -0.149567 0.893103 -0.436660
v -0.288180 1.003211 -0.464272
v -0.217304 1.003211 -0.501373
v -0.292143 0.923669 -0.471842
v -0.221266 0.923669 -0.508944
v -0.318512 0.974954 -0.565342
v -0.283074 0.974954 -0.583893
v -0.320040 0.944292 -0.568260
v -0.284602 0.944292 -0.586811
v 0.125440 -0.431736 0.024009
v 0.106844 0.264003 0.096296
v 0.079821 -0.442559 -0.041578
v 0.033458 0.141689 -0.043895
v 0.214036 -0.431736 -0.022368
v 0.284035 0.264003 0.003542
v 0.186135 -0.442559 -0.097230
v 0.210650 0.141689 -0.136649
v -0.164249 -0.500134 0.085979
v -0.153768 0.233500 0.246421
v -0.210210 -0.500134 0.019740
v -0.240120 0.167410 0.078566
v -0.075654 -0.500134 0.039602
v 0.023561 0.236584 0.153981
v -0.103896 -0.500134 -0.035912
v -0.062791 0.170494 -0.013874
v 0.230660 -0.095754 0.225015
v 0.184601 -0.107437 0.137026
v 0.273197 -0.107437 0.090649
v 0.319256 -0.095754 0.178638
v -0.080557 -0.150427 0.266072
v -0.126608 -0.150007 0.177307
v -0.037856 -0.148087 0.131271
v 0.008195 -0.148507 0.220036
v -0.221510 0.577169 -0.229097
v -0.304663 0.593039 -0.387948
v -0.145191 0.593039 -0.471427
v -0.062038 0.577169 -0.312575
v 0.488898 0.164875 0.047646
v 0.474555 0.464782 0.042999
v 0.406204 0.161790 0.103791
v 0.391862 0.461698 0.099144
v 0.219969 0.145861 -0.349489
v 0.205626 0.445769 -0.354135
v 0.137275 0.142776 -0.293343
v 0.122933 0.442684 -0.297990
v -0.145713 0.161482 0.393987
v -0.141358 0.461389 0.379553
v -0.238972 0.164566 0.429947
v -0.234618 0.464474 0.415514
v -0.318815 0.142468 -0.053309
v -0.314461 0.442375 -0.067743
v -0.412075 0.145553 -0.017349
v -0.407720 0.445460 -0.031783
v 0.088069 -0.403560 -0.047383
v 0.176664 -0.403560 -0.093760
v 0.223020 -0.400514 -0.005206
v 0.134424 -0.400514 0.041171
v -0.201717 -0.465634 0.015052
v -0.112994 -0.464485 -0.031066
v -0.066875 -0.464291 0.057664
v -0.155599 -0.465441 0.103782
v 0.011162 -0.419879 -0.108053
v -0.004708 -0.457013 -0.116806
v 0.172483 -0.457013 -0.209560
v 0.170634 -0.419879 -0.191531
v -0.277060 -0.465387 -0.043277
v -0.295195 -0.500134 -0.056358
v -0.118003 -0.500134 -0.149112
v -0.117588 -0.465387 -0.126755
vt 1.000000 0.002344
vt 1.000000 0.127321
vt 0.750046 0.127321
vt 0.750046 0.002344
vt 0.749862 0.155577
vt 0.624885 0.155577
vt 0.624885 0.002480
vt 0.749862 0.002480
vt 0.750046 0.002480
vt 0.750046 0.127457
vt 1.000000 0.127457
vt 1.000000 0.002480
vt 0.249954 0.002480
vt 0.374931 0.002480
vt 0.374931 0.155577
vt 0.249954 0.155577
vt 0.000000 0.155577
vt 0.000000 0.002481
vt 0.550225 0.832363
vt 0.506554 0.967370
vt 0.458446 0.956670
vt 0.475293 0.820672
vt 0.409645 0.954647
vt 0.402595 0.819777
vt 0.361369 0.961168
vt 0.330478 0.829348
vt 0.315626 0.976594
vt 0.257413 0.849837
vt 0.044996 0.806560
vt 0.044996 0.954579
vt 0.008018 0.954579
vt 0.008018 0.806560
vt 0.229887 0.806560
vt 0.229887 0.954579
vt 0.155931 0.954579
vt 0.155931 0.806560
vt 0.118952 0.954579
vt 0.118953 0.806560
vt 0.044996 0.769582
vt 0.118953 0.769582
vt 0.118952 0.991557
vt 0.044996 0.991557
vt 0.774379 0.345289
vt 0.774379 0.465813
vt 0.619181 0.465813
vt 0.619181 0.345289
vt 0.524955 0.573802
vt 0.524955 0.496323
vt 0.585216 0.496323
vt 0.585216 0.573802
vt 0.645058 0.313196
vt 0.645058 0.184063
vt 0.800017 0.184063
vt 0.800017 0.304587
vt 0.800017 0.304587
vt 0.800017 0.184063
vt 0.645058 0.184063
vt 0.645058 0.313196
vt 0.490048 0.465813
vt 0.490048 0.345289
vt 0.889896 0.270151
vt 0.889896 0.201280
vt 0.977690 0.236437
vt 0.977690 0.209889
vt 0.572303 0.617699
vt 0.537868 0.617699
vt 0.867100 0.371115
vt 0.867100 0.439986
vt 0.889897 0.201281
vt 0.889897 0.270151
vt 0.959554 0.388333
vt 0.986102 0.388333
vt 0.986102 0.422768
vt 0.959554 0.422768
vt 0.563694 0.660958
vt 0.546477 0.660958
vt 0.977690 0.209889
vt 0.977690 0.236437
vt 0.056947 0.502763
vt 0.031342 0.678742
vt 0.105364 0.679798
vt 0.113551 0.493295
vt 0.181247 0.679800
vt 0.172072 0.486316
vt 0.258096 0.678847
vt 0.228924 0.489689
vt 0.350833 0.653486
vt 0.278396 0.479726
vt 0.260664 0.232791
vt 0.198888 0.232721
vt 0.203989 0.273911
vt 0.255469 0.273969
vt 0.231797 0.491804
vt 0.259470 0.675650
vt 0.185342 0.676596
vt 0.174632 0.486937
vt 0.108143 0.676596
vt 0.115699 0.484082
vt 0.031342 0.675155
vt 0.058725 0.492177
vt 0.281442 0.481753
vt 0.353399 0.650288
vt 0.212076 0.231900
vt 0.272063 0.233967
vt 0.265687 0.273786
vt 0.215697 0.272064
vt 0.201809 0.294807
vt 0.255678 0.294648
vt 0.155095 0.254535
vt 0.091592 0.258712
vt 0.058515 0.304298
vt 0.264991 0.294002
vt 0.212481 0.291941
vt 0.106345 0.252865
vt 0.068530 0.296121
vt 0.169828 0.248696
vt 0.309271 0.694987
vt 0.222196 0.713314
vt 0.396937 0.686350
vt 0.484080 0.687634
vt 0.569074 0.696753
vt 0.637826 0.750046
vt 0.637826 0.937556
vt 0.575382 0.937556
vt 0.575382 0.750046
vt 0.637826 0.687602
vt 0.637826 0.500092
vt 0.937556 0.500092
vt 0.937556 0.687602
vt 1.000000 0.750046
vt 1.000000 0.937556
vt 0.937556 0.937556
vt 0.937556 0.750046
vt 0.937556 1.000000
vt 0.637826 1.000000
vt 1.000000 0.750046
vt 1.000000 0.937556
vt 0.937556 0.937556
vt 0.937556 0.750046
vt 0.637826 0.937556
vt 0.637826 0.750046
vt 0.575382 0.937556
vt 0.575382 0.750046
vt 0.637826 0.687602
vt 0.637826 0.500092
vt 0.937556 0.500092
vt 0.937556 0.687602
vt 0.937556 1.000000
vt 0.637826 1.000000
vt 0.051395 0.289109
vt 0.069292 0.255431
vt 0.084240 0.246065
vt 0.076987 0.187016
vt 0.096428 0.196312
vt 0.176155 0.244039
vt 0.191735 0.241627
vt 0.156383 0.196685
vt 0.069733 0.210295
vt 0.062349 0.279584
vt 0.193920 0.177806
vt 0.293899 0.181250
vt 0.051183 0.206234
vt 0.184607 0.197084
vt 0.174184 0.184472
vt 0.281319 0.177816
vt 0.178358 0.177699
vt 0.202337 0.190319
vt 0.061887 0.191752
vt 0.158165 0.176629
vt 0.189678 0.177487
vt 0.091701 0.176629
vt 0.398221 0.599207
vt 0.485364 0.600491
vn -0.8860 0.0000 0.4638
vn -0.4634 -0.0379 -0.8853
vn 0.8860 0.0000 -0.4638
vn 0.4634 0.0379 0.8853
vn 0.0176 -0.9993 0.0335
vn -0.0176 0.9993 -0.0335
vn -0.8757 0.1050 0.4713
vn -0.4512 0.2309 -0.8620
vn 0.8863 0.1050 -0.4511
vn 0.4637 -0.0218 0.8857
vn -0.4627 -0.0693 -0.8838
vn 0.4627 0.0693 0.8838
vn 0.0322 -0.9976 0.0614
vn -0.0322 0.9976 -0.0614
vn 0.0239 0.9987 0.0456
vn -0.0495 -0.9943 -0.0946
vn 0.4611 -0.1068 0.8809
vn -0.9811 0.0307 0.1911
vn -0.9592 0.0209 0.2820
vn -0.1390 -0.9540 -0.2655
vn -0.1253 0.9628 -0.2393
vn 0.7161 0.0307 -0.6973
vn -0.4611 0.1068 -0.8809
vn -0.0952 -0.9787 -0.1818
vn 0.7783 0.0209 -0.6275
vn -0.1220 0.9648 -0.2331
vn -0.8484 -0.1211 0.5153
vn -0.3405 -0.6789 -0.6505
vn 0.9069 -0.1211 -0.4036
vn 0.4187 0.4302 0.7998
vn 0.0627 -0.9908 0.1199
vn -0.8629 -0.1482 0.4831
vn -0.4165 -0.4031 -0.8149
vn 0.8945 -0.1173 -0.4315
vn 0.4556 0.1324 0.8803
vn 0.0000 -1.0000 0.0000
vn 0.3833 -0.5628 0.7323
vn -0.3794 0.5751 -0.7248
vn 0.4077 -0.4927 0.7688
vn 0.8872 0.0258 -0.4607
vn -0.4079 0.4920 -0.7691
vn -0.8872 -0.0258 0.4607
vn 0.4638 0.0075 0.8859
vn 0.8864 0.0312 -0.4619
vn -0.4630 0.0559 -0.8846
vn -0.8846 0.0312 0.4652
vn 0.5603 0.0396 0.8274
vn -0.8269 -0.0308 0.5615
vn -0.5603 -0.0396 -0.8274
vn 0.8269 0.0308 -0.5615
vn 0.0478 -0.9987 0.0155
vn -0.0478 0.9987 -0.0155
vn 0.3606 0.0396 0.9319
vn -0.9326 0.0308 0.3596
vn -0.3606 -0.0396 -0.9319
vn 0.9326 -0.0308 -0.3596
vn -0.0145 -0.9987 0.0481
vn 0.0145 0.9987 -0.0481
vn -0.8566 0.1294 0.4995
vn 0.9838 0.1556 -0.0887
vn 0.8986 0.1294 -0.4193
vn 0.3941 -0.5272 0.7528
vn -0.8540 0.1154 0.5073
vn -0.0833 0.9838 -0.1591
vn 0.9026 0.1350 -0.4088
vn 0.4052 -0.4919 0.7706
vn -0.6534 0.1785 0.7357
vn -0.0054 1.0000 -0.0015
vn 0.9769 0.1785 -0.1177
vn -0.6349 0.1523 0.7575
vn -0.4295 0.3770 -0.8206
vn -0.4019 0.4989 -0.7678
vn -0.0168 -0.9993 -0.0321
usemtl Material
s off
f 1/1/1 2/2/1 4/3/1 3/4/1
f 3/5/2 4/6/2 8/7/2 7/8/2
f 7/9/3 8/10/3 6/11/3 5/12/3
f 5/13/4 6/14/4 2/15/4 1/16/4
f 3/17/5 7/18/5 5/13/5 1/16/5
f 8/7/6 4/6/6 2/15/6 6/14/6
f 65/19/7 10/20/7 12/21/7 66/22/7
f 66/22/8 12/21/8 16/23/8 67/24/8
f 67/24/9 16/23/9 14/25/9 68/26/9
f 68/26/10 14/25/10 10/27/10 65/28/10
f 17/29/1 18/30/1 20/31/1 19/32/1
f 19/33/11 20/34/11 24/35/11 23/36/11
f 23/36/3 24/35/3 22/37/3 21/38/3
f 21/38/12 22/37/12 18/30/12 17/29/12
f 19/39/13 23/40/13 21/38/13 17/29/13
f 24/41/14 20/42/14 18/30/14 22/37/14
f 28/43/15 26/44/15 25/45/15 27/46/15
f 32/47/16 31/48/16 29/49/16 30/50/16
f 27/51/3 31/52/3 32/53/3 28/54/3
f 26/55/1 30/56/1 29/57/1 25/58/1
f 25/45/17 29/59/17 31/60/17 27/46/17
f 26/55/18 33/61/18 35/62/18 30/56/18
f 33/61/19 37/63/19 39/64/19 35/62/19
f 30/50/20 35/65/20 36/66/20 32/47/20
f 28/43/21 34/67/21 33/68/21 26/44/21
f 32/53/22 36/69/22 34/70/22 28/54/22
f 38/71/23 40/72/23 39/73/23 37/74/23
f 35/65/24 39/75/24 40/76/24 36/66/24
f 36/69/25 40/77/25 38/78/25 34/70/25
f 34/67/26 38/71/26 37/74/26 33/68/26
f 57/79/27 42/80/27 44/81/27 58/82/27
f 58/82/28 44/81/28 48/83/28 59/84/28
f 59/84/29 48/83/29 46/85/29 60/86/29
f 60/86/30 46/85/30 42/87/30 57/88/30
f 43/89/31 47/90/31 45/91/31 41/92/31
f 61/93/32 50/94/32 52/95/32 62/96/32
f 62/96/33 52/95/33 56/97/33 63/98/33
f 63/98/34 56/97/34 54/99/34 64/100/34
f 64/101/35 54/102/35 50/94/35 61/93/35
f 51/103/36 55/104/36 53/105/36 49/106/36
f 87/107/37 60/86/37 57/88/37 88/108/37
f 86/109/3 59/84/3 60/86/3 87/107/3
f 85/110/38 58/82/38 59/84/38 86/109/38
f 88/111/1 57/79/1 58/82/1 85/110/1
f 91/112/39 64/101/39 61/93/39 92/113/39
f 90/114/40 63/98/40 64/100/40 91/115/40
f 89/116/41 62/96/41 63/98/41 90/114/41
f 92/113/42 61/93/42 62/96/42 89/116/42
f 13/117/43 68/26/43 65/28/43 9/118/43
f 15/119/44 67/24/44 68/26/44 13/117/44
f 11/120/45 66/22/45 67/24/45 15/119/45
f 9/121/46 65/19/46 66/22/46 11/120/46
f 69/122/47 70/123/47 72/124/47 71/125/47
f 71/126/48 72/127/48 76/128/48 75/129/48
f 75/130/49 76/131/49 74/132/49 73/133/49
f 73/133/50 74/132/50 70/123/50 69/122/50
f 71/126/51 75/129/51 73/133/51 69/122/51
f 76/134/52 72/135/52 70/123/52 74/132/52
f 77/136/53 78/137/53 80/138/53 79/139/53
f 79/139/54 80/138/54 84/140/54 83/141/54
f 83/141/55 84/140/55 82/142/55 81/143/55
f 81/144/56 82/145/56 78/146/56 77/147/56
f 79/139/57 83/141/57 81/144/57 77/147/57
f 84/140/58 80/138/58 78/148/58 82/149/58
f 41/150/59 88/111/59 85/110/59 43/151/59
f 90/114/60 55/152/60 99/153/60 100/154/60
f 47/155/61 86/109/61 87/107/61 45/91/61
f 45/91/62 87/107/62 88/108/62 41/92/62
f 49/106/63 92/113/63 89/116/63 51/156/63
f 85/110/64 86/109/64 96/157/64 93/158/64
f 55/152/65 90/114/65 91/115/65 53/159/65
f 53/105/66 91/112/66 92/113/66 49/106/66
f 55/104/36 51/103/36 98/160/36 99/161/36
f 43/151/67 85/110/67 93/158/67 94/162/67
f 89/116/68 90/114/68 100/154/68 97/163/68
f 86/109/69 47/155/69 95/164/69 96/157/69
f 47/90/31 43/89/31 94/165/31 95/166/31
f 51/156/70 89/116/70 97/163/70 98/167/70
f 94/168/71 93/158/71 96/157/71 95/169/71
f 98/170/72 97/163/72 100/154/72 99/171/72
f 11/120/73 15/119/73 13/172/73 9/173/73
