# Blender v2.82 (sub 7) OBJ File: 'Ostrich.blend'
# www.blender.org
mtllib Ostrich_000070.mtl
o Cube_Cube.001
v 0.417220 0.141729 0.250000
v 0.376009 0.539600 0.250000
v -0.378522 0.059306 0.250000
v -0.419734 0.457177 0.250000
v 0.417220 0.141729 -0.250000
v 0.376008 0.539600 -0.250000
v -0.378523 0.059306 -0.250000
v -0.419734 0.457177 -0.250000
v -0.300941 0.241103 0.100000
v -0.325745 0.870031 0.056000
v -0.500856 0.235273 0.100000
v -0.436877 0.883943 0.056000
v -0.300941 0.241103 -0.100000
v -0.325745 0.870031 -0.056000
v -0.500856 0.235273 -0.100000
v -0.436877 0.883943 -0.056000
v 0.551195 0.115651 0.100000
v 0.475989 0.508808 0.100000
v 0.452976 0.096863 0.100000
v 0.377770 0.490020 0.100000
v 0.551195 0.115651 -0.100000
v 0.475989 0.508808 -0.100000
v 0.452976 0.096863 -0.100000
v 0.377770 0.490020 -0.100000
v -0.292405 1.000020 0.070000
v -0.472647 1.003600 0.070000
v -0.292405 1.000020 -0.070000
v -0.472647 1.003600 -0.070000
v -0.303698 0.850446 0.070000
v -0.483187 0.863998 0.070000
v -0.303698 0.850446 -0.070000
v -0.483187 0.863998 -0.070000
v -0.575374 0.971242 0.040000
v -0.575374 0.971242 -0.040000
v -0.581397 0.891470 0.040000
v -0.581397 0.891470 -0.040000
v -0.678039 0.939720 0.020000
v -0.678039 0.939720 -0.020000
v -0.680361 0.908970 0.020000
v -0.680361 0.908970 -0.020000
v 0.213811 -0.313968 -0.100000
v 0.109058 0.297929 -0.050000
v 0.139659 -0.343992 -0.090000
v 0.018833 0.119437 -0.050000
v 0.213811 -0.313968 -0.200000
v 0.109058 0.297929 -0.250000
v 0.139659 -0.343992 -0.210000
v 0.018833 0.119437 -0.250000
v -0.000000 -0.500134 0.160304
v 0.152282 0.231607 0.251109
v -0.080000 -0.500134 0.170304
v -0.038068 0.170317 0.247903
v -0.000000 -0.500134 0.060304
v 0.152913 0.240100 0.051291
v -0.080000 -0.500134 0.050304
v -0.037437 0.178809 0.048085
v 0.422490 0.036762 -0.100000
v 0.329151 0.000877 -0.100000
v 0.329151 0.000877 -0.200000
v 0.422490 0.036762 -0.200000
v 0.194046 -0.151134 0.185179
v 0.094056 -0.149987 0.184362
v 0.094931 -0.144780 0.084501
v 0.194921 -0.145927 0.085318
v -0.325773 0.554260 0.090000
v -0.505569 0.562841 0.090000
v -0.505569 0.562841 -0.090000
v -0.325773 0.554260 -0.090000
v 0.266184 0.184451 -0.439278
v 0.236577 0.482871 -0.423753
v 0.283205 0.181017 -0.340797
v 0.253598 0.479436 -0.325272
v -0.204438 0.133620 -0.359707
v -0.234045 0.432040 -0.344182
v -0.187416 0.130186 -0.261226
v -0.217023 0.428605 -0.245701
v 0.284908 0.180673 0.340949
v 0.255301 0.479093 0.325424
v 0.267886 0.184108 0.439430
v 0.238279 0.482527 0.423905
v -0.185714 0.129842 0.261378
v -0.215321 0.428262 0.245853
v -0.202736 0.133277 0.359859
v -0.232343 0.431696 0.344334
v 0.131335 -0.302252 -0.100000
v 0.131335 -0.302252 -0.200000
v 0.229673 -0.284098 -0.200000
v 0.229673 -0.284098 -0.100000
v -0.080624 -0.466816 0.161112
v -0.079908 -0.463726 0.061163
v 0.020087 -0.463001 0.061902
v 0.019370 -0.466091 0.161852
v 0.046133 -0.344374 -0.060000
v 0.040636 -0.384087 -0.050000
v 0.040636 -0.384087 -0.250000
v 0.046133 -0.344374 -0.240000
v -0.166833 -0.465387 0.200304
v -0.186833 -0.500134 0.210304
v -0.186833 -0.500134 0.010304
v -0.166833 -0.465387 0.020304
vt 1.000000 0.002344
vt 1.000000 0.127321
vt 0.750046 0.127321
vt 0.750046 0.002344
vt 0.749862 0.155577
vt 0.624885 0.155577
vt 0.624885 0.002480
vt 0.749862 0.002480
vt 0.750046 0.002480
vt 0.750046 0.127457
vt 1.000000 0.127457
vt 1.000000 0.002480
vt 0.249954 0.002480
vt 0.374931 0.002480
vt 0.374931 0.155577
vt 0.249954 0.155577
vt 0.000000 0.155577
vt 0.000000 0.002481
vt 0.550225 0.832363
vt 0.506554 0.967370
vt 0.458446 0.956670
vt 0.475293 0.820672
vt 0.409645 0.954647
vt 0.402595 0.819777
vt 0.361369 0.961168
vt 0.330478 0.829348
vt 0.315626 0.976594
vt 0.257413 0.849837
vt 0.044996 0.806560
vt 0.044996 0.954579
vt 0.008018 0.954579
vt 0.008018 0.806560
vt 0.229887 0.806560
vt 0.229887 0.954579
vt 0.155931 0.954579
vt 0.155931 0.806560
vt 0.118952 0.954579
vt 0.118953 0.806560
vt 0.044996 0.769582
vt 0.118953 0.769582
vt 0.118952 0.991557
vt 0.044996 0.991557
vt 0.774379 0.345289
vt 0.774379 0.465813
vt 0.619181 0.465813
vt 0.619181 0.345289
vt 0.524955 0.573802
vt 0.524955 0.496323
vt 0.585216 0.496323
vt 0.585216 0.573802
vt 0.645058 0.313196
vt 0.645058 0.184063
vt 0.800017 0.184063
vt 0.800017 0.304587
vt 0.800017 0.304587
vt 0.800017 0.184063
vt 0.645058 0.184063
vt 0.645058 0.313196
vt 0.490048 0.465813
vt 0.490048 0.345289
vt 0.889896 0.270151
vt 0.889896 0.201280
vt 0.977690 0.236437
vt 0.977690 0.209889
vt 0.572303 0.617699
vt 0.537868 0.617699
vt 0.867100 0.371115
vt 0.867100 0.439986
vt 0.889897 0.201281
vt 0.889897 0.270151
vt 0.959554 0.388333
vt 0.986102 0.388333
vt 0.986102 0.422768
vt 0.959554 0.422768
vt 0.563694 0.660958
vt 0.546477 0.660958
vt 0.977690 0.209889
vt 0.977690 0.236437
vt 0.056947 0.502763
vt 0.031342 0.678742
vt 0.105364 0.679798
vt 0.113551 0.493295
vt 0.181247 0.679800
vt 0.172072 0.486316
vt 0.258096 0.678847
vt 0.228924 0.489689
vt 0.350833 0.653486
vt 0.278396 0.479726
vt 0.260664 0.232791
vt 0.198888 0.232721
vt 0.203989 0.273911
vt 0.255469 0.273969
vt 0.231797 0.491804
vt 0.259470 0.675650
vt 0.185342 0.676596
vt 0.174632 0.486937
vt 0.108143 0.676596
vt 0.115699 0.484082
vt 0.031342 0.675155
vt 0.058725 0.492177
vt 0.281442 0.481753
vt 0.353399 0.650288
vt 0.212076 0.231900
vt 0.272063 0.233967
vt 0.265687 0.273786
vt 0.215697 0.272064
vt 0.201809 0.294807
vt 0.255678 0.294648
vt 0.155095 0.254535
vt 0.091592 0.258712
vt 0.058515 0.304298
vt 0.264991 0.294002
vt 0.212481 0.291941
vt 0.106345 0.252865
vt 0.068530 0.296121
vt 0.169828 0.248696
vt 0.309271 0.694987
vt 0.222196 0.713314
vt 0.396937 0.686350
vt 0.484080 0.687634
vt 0.569074 0.696753
vt 0.637826 0.750046
vt 0.637826 0.937556
vt 0.575382 0.937556
vt 0.575382 0.750046
vt 0.637826 0.687602
vt 0.637826 0.500092
vt 0.937556 0.500092
vt 0.937556 0.687602
vt 1.000000 0.750046
vt 1.000000 0.937556
vt 0.937556 0.937556
vt 0.937556 0.750046
vt 0.937556 1.000000
vt 0.637826 1.000000
vt 1.000000 0.750046
vt 1.000000 0.937556
vt 0.937556 0.937556
vt 0.937556 0.750046
vt 0.637826 0.937556
vt 0.637826 0.750046
vt 0.575382 0.937556
vt 0.575382 0.750046
vt 0.637826 0.687602
vt 0.637826 0.500092
vt 0.937556 0.500092
vt 0.937556 0.687602
vt 0.937556 1.000000
vt 0.637826 1.000000
vt 0.051395 0.289109
vt 0.069292 0.255431
vt 0.084240 0.246065
vt 0.076987 0.187016
vt 0.096428 0.196312
vt 0.176155 0.244039
vt 0.191735 0.241627
vt 0.156383 0.196685
vt 0.069733 0.210295
vt 0.062349 0.279584
vt 0.193920 0.177806
vt 0.293899 0.181250
vt 0.051183 0.206234
vt 0.184607 0.197084
vt 0.174184 0.184472
vt 0.281319 0.177816
vt 0.178358 0.177699
vt 0.202337 0.190319
vt 0.061887 0.191752
vt 0.158165 0.176629
vt 0.189678 0.177487
vt 0.091701 0.176629
vt 0.398221 0.599207
vt 0.485364 0.600491
vn 0.0000 -0.0000 1.0000
vn -0.9947 -0.1030 0.0000
vn -0.0000 0.0000 -1.0000
vn 0.9947 0.1030 -0.0000
vn 0.1030 -0.9947 -0.0000
vn -0.1030 0.9947 0.0000
vn 0.0081 0.1053 0.9944
vn -0.9779 0.2092 0.0000
vn 0.0081 0.1053 -0.9944
vn 1.0000 -0.0001 0.0000
vn -0.9822 -0.1879 0.0000
vn 0.9822 0.1879 0.0000
vn 0.1879 -0.9822 0.0000
vn -0.1879 0.9822 0.0000
vn 0.0199 0.9998 0.0000
vn -0.0753 -0.9972 0.0000
vn 0.9972 -0.0753 0.0000
vn -0.2865 0.0216 0.9578
vn -0.1956 0.0148 0.9806
vn -0.2694 -0.9630 0.0000
vn -0.3004 0.9538 0.0000
vn -0.2865 0.0216 -0.9578
vn -0.9972 0.0753 0.0000
vn -0.1741 -0.9847 0.0000
vn -0.1956 0.0148 -0.9806
vn -0.2935 0.9560 0.0000
vn 0.1044 -0.0894 0.9905
vn -0.3569 -0.9341 0.0000
vn 0.1044 -0.0894 -0.9905
vn 0.6401 0.7683 0.0000
vn 0.3753 -0.9269 0.0000
vn 0.0227 -0.1756 0.9842
vn -0.9251 -0.3791 -0.0220
vn 0.0326 -0.0908 -0.9953
vn 0.9941 0.1079 0.0099
vn 0.0000 -1.0000 0.0000
vn 0.8571 -0.5151 -0.0000
vn -0.8375 0.5465 0.0000
vn 0.8754 -0.4831 -0.0131
vn 0.0079 0.0690 -0.9976
vn -0.8766 0.4810 0.0130
vn -0.0079 -0.0692 0.9976
vn 0.9969 0.0790 -0.0000
vn 0.0002 0.0312 -0.9995
vn -0.9999 -0.0144 0.0000
vn 0.0002 0.0312 0.9995
vn 0.9805 0.1059 -0.1658
vn 0.1702 -0.0343 0.9848
vn -0.9805 -0.1059 0.1658
vn -0.1702 0.0343 -0.9848
vn 0.0986 -0.9938 -0.0517
vn -0.0986 0.9938 0.0517
vn 0.9805 0.1059 0.1658
vn -0.1702 0.0343 0.9848
vn -0.9805 -0.1059 -0.1658
vn 0.1702 -0.0343 -0.9848
vn 0.0986 -0.9938 0.0517
vn -0.0986 0.9938 -0.0517
vn 0.0194 0.1363 0.9905
vn 0.3790 0.1602 -0.9114
vn 0.0194 0.1363 -0.9905
vn 0.8832 -0.4690 -0.0000
vn 0.0507 0.0987 0.9938
vn -0.4432 0.8964 0.0000
vn 0.0583 0.1512 -0.9868
vn 0.8747 -0.4847 -0.0044
vn 0.2958 0.2375 0.9253
vn -0.0014 0.9999 0.0110
vn 0.2958 0.2375 -0.9253
vn 0.3762 0.1507 0.9142
vn -0.9906 0.1371 0.0000
vn -0.8667 0.4989 0.0000
vn 0.0291 -0.9996 0.0000
usemtl Material
s off
f 1/1/1 2/2/1 4/3/1 3/4/1
f 3/5/2 4/6/2 8/7/2 7/8/2
f 7/9/3 8/10/3 6/11/3 5/12/3
f 5/13/4 6/14/4 2/15/4 1/16/4
f 3/17/5 7/18/5 5/13/5 1/16/5
f 8/7/6 4/6/6 2/15/6 6/14/6
f 65/19/7 10/20/7 12/21/7 66/22/7
f 66/22/8 12/21/8 16/23/8 67/24/8
f 67/24/9 16/23/9 14/25/9 68/26/9
f 68/26/10 14/25/10 10/27/10 65/28/10
f 17/29/1 18/30/1 20/31/1 19/32/1
f 19/33/11 20/34/11 24/35/11 23/36/11
f 23/36/3 24/35/3 22/37/3 21/38/3
f 21/38/12 22/37/12 18/30/12 17/29/12
f 19/39/13 23/40/13 21/38/13 17/29/13
f 24/41/14 20/42/14 18/30/14 22/37/14
f 28/43/15 26/44/15 25/45/15 27/46/15
f 32/47/16 31/48/16 29/49/16 30/50/16
f 27/51/3 31/52/3 32/53/3 28/54/3
f 26/55/1 30/56/1 29/57/1 25/58/1
f 25/45/17 29/59/17 31/60/17 27/46/17
f 26/55/18 33/61/18 35/62/18 30/56/18
f 33/61/19 37/63/19 39/64/19 35/62/19
f 30/50/20 35/65/20 36/66/20 32/47/20
f 28/43/21 34/67/21 33/68/21 26/44/21
f 32/53/22 36/69/22 34/70/22 28/54/22
f 38/71/23 40/72/23 39/73/23 37/74/23
f 35/65/24 39/75/24 40/76/24 36/66/24
f 36/69/25 40/77/25 38/78/25 34/70/25
f 34/67/26 38/71/26 37/74/26 33/68/26
f 57/79/27 42/80/27 44/81/27 58/82/27
f 58/82/28 44/81/28 48/83/28 59/84/28
f 59/84/29 48/83/29 46/85/29 60/86/29
f 60/86/30 46/85/30 42/87/30 57/88/30
f 43/89/31 47/90/31 45/91/31 41/92/31
f 61/93/32 50/94/32 52/95/32 62/96/32
f 62/96/33 52/95/33 56/97/33 63/98/33
f 63/98/34 56/97/34 54/99/34 64/100/34
f 64/101/35 54/102/35 50/94/35 61/93/35
f 51/103/36 55/104/36 53/105/36 49/106/36
f 87/107/37 60/86/37 57/88/37 88/108/37
f 86/109/3 59/84/3 60/86/3 87/107/3
f 85/110/38 58/82/38 59/84/38 86/109/38
f 88/111/1 57/79/1 58/82/1 85/110/1
f 91/112/39 64/101/39 61/93/39 92/113/39
f 90/114/40 63/98/40 64/100/40 91/115/40
f 89/116/41 62/96/41 63/98/41 90/114/41
f 92/113/42 61/93/42 62/96/42 89/116/42
f 13/117/43 68/26/43 65/28/43 9/118/43
f 15/119/44 67/24/44 68/26/44 13/117/44
f 11/120/45 66/22/45 67/24/45 15/119/45
f 9/121/46 65/19/46 66/22/46 11/120/46
f 69/122/47 70/123/47 72/124/47 71/125/47
f 71/126/48 72/127/48 76/128/48 75/129/48
f 75/130/49 76/131/49 74/132/49 73/133/49
f 73/133/50 74/132/50 70/123/50 69/122/50
f 71/126/51 75/129/51 73/133/51 69/122/51
f 76/134/52 72/135/52 70/123/52 74/132/52
f 77/136/53 78/137/53 80/138/53 79/139/53
f 79/139/54 80/138/54 84/140/54 83/141/54
f 83/141/55 84/140/55 82/142/55 81/143/55
f 81/144/56 82/145/56 78/146/56 77/147/56
f 79/139/57 83/141/57 81/144/57 77/147/57
f 84/140/58 80/138/58 78/148/58 82/149/58
f 41/150/59 88/111/59 85/110/59 43/151/59
f 90/114/60 55/152/60 99/153/60 100/154/60
f 47/155/61 86/109/61 87/107/61 45/91/61
f 45/91/62 87/107/62 88/108/62 41/92/62
f 49/106/63 92/113/63 89/116/63 51/156/63
f 85/110/64 86/109/64 96/157/64 93/158/64
f 55/152/65 90/114/65 91/115/65 53/159/65
f 53/105/66 91/112/66 92/113/66 49/106/66
f 55/104/36 51/103/36 98/160/36 99/161/36
f 43/151/67 85/110/67 93/158/67 94/162/67
f 89/116/68 90/114/68 100/154/68 97/163/68
f 86/109/69 47/155/69 95/164/69 96/157/69
f 47/90/31 43/89/31 94/165/31 95/166/31
f 51/156/70 89/116/70 97/163/70 98/167/70
f 94/168/71 93/158/71 96/157/71 95/169/71
f 98/170/72 97/163/72 100/154/72 99/171/72
f 11/120/73 15/119/73 13/172/73 9/173/73
