# Blender v2.82 (sub 7) OBJ File: 'Ostrich.blend'
# www.blender.org
mtllib Ostrich_000075.mtl
o Cube_Cube.001
v 0.250000 0.236209 -0.439212
v 0.250000 0.615223 -0.311351
v 0.250000 -0.019513 0.318815
v 0.250000 0.359501 0.446677
v -0.250000 0.236209 -0.439212
v -0.250000 0.615223 -0.311351
v -0.250000 -0.019513 0.318816
v -0.250000 0.359501 0.446677
v 0.100000 0.174910 0.283195
v 0.056000 0.778470 0.418042
v 0.100000 0.125177 0.476913
v 0.056000 0.780002 0.530032
v -0.100000 0.174910 0.283195
v -0.056000 0.778470 0.418042
v -0.100000 0.125177 0.476913
v -0.056000 0.780002 0.530032
v 0.100000 0.289166 -0.624644
v 0.100000 0.620556 -0.400122
v 0.100000 0.233076 -0.541856
v 0.100000 0.564465 -0.317334
v -0.100000 0.289166 -0.624644
v -0.100000 0.620556 -0.400122
v -0.100000 0.233076 -0.541856
v -0.100000 0.564465 -0.317334
v 0.070000 0.913463 0.404463
v 0.070000 0.890703 0.583298
v -0.070000 0.913463 0.404463
v -0.070000 0.890703 0.583298
v 0.070000 0.763841 0.393808
v 0.070000 0.751056 0.573354
v -0.070000 0.763841 0.393808
v -0.070000 0.751056 0.573354
v 0.040000 0.843701 0.680204
v -0.040000 0.843701 0.680204
v 0.040000 0.763903 0.674522
v -0.040000 0.763903 0.674522
v 0.020000 0.797535 0.777170
v -0.020000 0.797535 0.777170
v 0.020000 0.766775 0.774980
v -0.020000 0.766775 0.774980
v -0.100000 0.074638 -0.650293
v -0.050000 0.319548 -0.035332
v -0.090000 -0.002177 -0.627946
v -0.050000 0.141184 -0.125811
v -0.200000 0.074638 -0.650293
v -0.250000 0.319548 -0.035332
v -0.210000 -0.002177 -0.627946
v -0.250000 0.141184 -0.125811
v 0.075359 -0.500134 0.000000
v 0.249093 0.221581 -0.170373
v 0.085359 -0.500134 0.080000
v 0.245940 0.186061 0.026423
v -0.024641 -0.500134 0.000000
v 0.051265 0.250896 -0.168251
v -0.034641 -0.500134 0.080000
v 0.048111 0.215376 0.028544
v -0.100000 0.419115 -0.426930
v -0.100000 0.320784 -0.408736
v -0.200000 0.320784 -0.408736
v -0.200000 0.419115 -0.426930
v 0.144642 -0.148638 -0.160650
v 0.144461 -0.145340 -0.060705
v 0.045789 -0.129113 -0.061418
v 0.045970 -0.132411 -0.161364
v 0.090000 0.469673 0.379632
v 0.090000 0.448337 0.558363
v -0.090000 0.448337 0.558363
v -0.090000 0.469673 0.379632
v -0.500311 0.243934 -0.253394
v -0.473808 0.528558 -0.161424
v -0.404805 0.244617 -0.283028
v -0.378303 0.529241 -0.191058
v -0.364479 0.090975 0.180834
v -0.337977 0.375599 0.272804
v -0.268974 0.091658 0.151199
v -0.242471 0.376282 0.243169
v 0.405255 0.244685 -0.285992
v 0.378752 0.529309 -0.194022
v 0.500760 0.244002 -0.256357
v 0.474258 0.528626 -0.164387
v 0.269423 0.091726 0.148235
v 0.242921 0.376350 0.240205
v 0.364929 0.091043 0.177870
v 0.338426 0.375667 0.269840
v -0.100000 0.012304 -0.591859
v -0.200000 0.012304 -0.591859
v -0.200000 0.104995 -0.629386
v -0.100000 0.104995 -0.629386
v 0.077675 -0.471564 0.082508
v -0.021909 -0.462548 0.081142
v -0.020077 -0.457451 -0.018711
v 0.079506 -0.466466 -0.017345
v -0.060000 -0.075848 -0.570327
v -0.050000 -0.104758 -0.598104
v -0.250000 -0.104758 -0.598104
v -0.240000 -0.075848 -0.570327
v 0.115359 -0.465387 0.166833
v 0.125359 -0.500134 0.186833
v -0.074641 -0.500134 0.186833
v -0.064641 -0.465387 0.166833
vt 1.000000 0.002344
vt 1.000000 0.127321
vt 0.750046 0.127321
vt 0.750046 0.002344
vt 0.749862 0.155577
vt 0.624885 0.155577
vt 0.624885 0.002480
vt 0.749862 0.002480
vt 0.750046 0.002480
vt 0.750046 0.127457
vt 1.000000 0.127457
vt 1.000000 0.002480
vt 0.249954 0.002480
vt 0.374931 0.002480
vt 0.374931 0.155577
vt 0.249954 0.155577
vt 0.000000 0.155577
vt 0.000000 0.002481
vt 0.550225 0.832363
vt 0.506554 0.967370
vt 0.458446 0.956670
vt 0.475293 0.820672
vt 0.409645 0.954647
vt 0.402595 0.819777
vt 0.361369 0.961168
vt 0.330478 0.829348
vt 0.315626 0.976594
vt 0.257413 0.849837
vt 0.044996 0.806560
vt 0.044996 0.954579
vt 0.008018 0.954579
vt 0.008018 0.806560
vt 0.229887 0.806560
vt 0.229887 0.954579
vt 0.155931 0.954579
vt 0.155931 0.806560
vt 0.118952 0.954579
vt 0.118953 0.806560
vt 0.044996 0.769582
vt 0.118953 0.769582
vt 0.118952 0.991557
vt 0.044996 0.991557
vt 0.774379 0.345289
vt 0.774379 0.465813
vt 0.619181 0.465813
vt 0.619181 0.345289
vt 0.524955 0.573802
vt 0.524955 0.496323
vt 0.585216 0.496323
vt 0.585216 0.573802
vt 0.645058 0.313196
vt 0.645058 0.184063
vt 0.800017 0.184063
vt 0.800017 0.304587
vt 0.800017 0.304587
vt 0.800017 0.184063
vt 0.645058 0.184063
vt 0.645058 0.313196
vt 0.490048 0.465813
vt 0.490048 0.345289
vt 0.889896 0.270151
vt 0.889896 0.201280
vt 0.977690 0.236437
vt 0.977690 0.209889
vt 0.572303 0.617699
vt 0.537868 0.617699
vt 0.867100 0.371115
vt 0.867100 0.439986
vt 0.889897 0.201281
vt 0.889897 0.270151
vt 0.959554 0.388333
vt 0.986102 0.388333
vt 0.986102 0.422768
vt 0.959554 0.422768
vt 0.563694 0.660958
vt 0.546477 0.660958
vt 0.977690 0.209889
vt 0.977690 0.236437
vt 0.056947 0.502763
vt 0.031342 0.678742
vt 0.105364 0.679798
vt 0.113551 0.493295
vt 0.181247 0.679800
vt 0.172072 0.486316
vt 0.258096 0.678847
vt 0.228924 0.489689
vt 0.350833 0.653486
vt 0.278396 0.479726
vt 0.260664 0.232791
vt 0.198888 0.232721
vt 0.203989 0.273911
vt 0.255469 0.273969
vt 0.231797 0.491804
vt 0.259470 0.675650
vt 0.185342 0.676596
vt 0.174632 0.486937
vt 0.108143 0.676596
vt 0.115699 0.484082
vt 0.031342 0.675155
vt 0.058725 0.492177
vt 0.281442 0.481753
vt 0.353399 0.650288
vt 0.212076 0.231900
vt 0.272063 0.233967
vt 0.265687 0.273786
vt 0.215697 0.272064
vt 0.201809 0.294807
vt 0.255678 0.294648
vt 0.155095 0.254535
vt 0.091592 0.258712
vt 0.058515 0.304298
vt 0.264991 0.294002
vt 0.212481 0.291941
vt 0.106345 0.252865
vt 0.068530 0.296121
vt 0.169828 0.248696
vt 0.309271 0.694987
vt 0.222196 0.713314
vt 0.396937 0.686350
vt 0.484080 0.687634
vt 0.569074 0.696753
vt 0.637826 0.750046
vt 0.637826 0.937556
vt 0.575382 0.937556
vt 0.575382 0.750046
vt 0.637826 0.687602
vt 0.637826 0.500092
vt 0.937556 0.500092
vt 0.937556 0.687602
vt 1.000000 0.750046
vt 1.000000 0.937556
vt 0.937556 0.937556
vt 0.937556 0.750046
vt 0.937556 1.000000
vt 0.637826 1.000000
vt 1.000000 0.750046
vt 1.000000 0.937556
vt 0.937556 0.937556
vt 0.937556 0.750046
vt 0.637826 0.937556
vt 0.637826 0.750046
vt 0.575382 0.937556
vt 0.575382 0.750046
vt 0.637826 0.687602
vt 0.637826 0.500092
vt 0.937556 0.500092
vt 0.937556 0.687602
vt 0.937556 1.000000
vt 0.637826 1.000000
vt 0.051395 0.289109
vt 0.069292 0.255431
vt 0.084240 0.246065
vt 0.076987 0.187016
vt 0.096428 0.196312
vt 0.176155 0.244039
vt 0.191735 0.241627
vt 0.156383 0.196685
vt 0.069733 0.210295
vt 0.062349 0.279584
vt 0.193920 0.177806
vt 0.293899 0.181250
vt 0.051183 0.206234
vt 0.184607 0.197084
vt 0.174184 0.184472
vt 0.281319 0.177816
vt 0.178358 0.177699
vt 0.202337 0.190319
vt 0.061887 0.191752
vt 0.158165 0.176629
vt 0.189678 0.177487
vt 0.091701 0.176629
vt 0.398221 0.599207
vt 0.485364 0.600491
vn 1.0000 0.0000 -0.0000
vn 0.0000 -0.3197 0.9475
vn -1.0000 0.0000 0.0000
vn -0.0000 0.3197 -0.9475
vn -0.0000 -0.9475 -0.3197
vn 0.0000 0.9475 0.3197
vn 0.9944 0.1055 0.0072
vn 0.0000 0.0851 0.9964
vn -0.9944 0.1055 0.0072
vn 0.0000 0.1234 -0.9924
vn 0.0000 -0.5609 0.8279
vn 0.0000 0.5609 -0.8279
vn 0.0000 -0.8279 -0.5609
vn 0.0000 0.8279 0.5609
vn 0.0000 0.9920 0.1262
vn 0.0000 -0.9975 -0.0710
vn 0.0000 0.0710 -0.9975
vn 0.9578 -0.0204 0.2866
vn 0.9806 -0.0139 0.1956
vn 0.0000 -0.9920 0.1260
vn 0.0000 0.8998 0.4364
vn -0.9578 -0.0204 0.2866
vn 0.0000 -0.0710 0.9975
vn 0.0000 -0.9996 0.0286
vn -0.9806 -0.0139 0.1956
vn 0.0000 0.9029 0.4299
vn 0.9906 0.0346 -0.1325
vn -0.0000 -0.8443 -0.5359
vn -0.9906 0.0346 -0.1325
vn 0.0000 0.9692 0.2464
vn 0.0000 -0.2793 -0.9602
vn 0.9599 -0.2796 -0.0196
vn -0.0336 -0.2485 0.9681
vn -0.9999 0.0116 -0.0100
vn -0.0080 -0.0209 -0.9998
vn 0.0000 -1.0000 0.0000
vn -0.0000 0.5417 -0.8405
vn 0.0000 -0.5105 0.8599
vn -0.0412 -0.3990 -0.9160
vn -0.9806 0.1957 -0.0081
vn 0.0400 0.3903 0.9198
vn 0.9803 -0.1972 0.0081
vn -0.0000 0.3109 -0.9504
vn -0.9995 0.0307 0.0059
vn 0.0000 -0.2444 0.9697
vn 0.9995 0.0307 0.0059
vn -0.2830 0.3187 -0.9046
vn 0.9551 0.0068 -0.2963
vn 0.2830 -0.3187 0.9046
vn -0.9551 -0.0068 0.2963
vn -0.0883 -0.9478 -0.3063
vn 0.0883 0.9478 0.3063
vn 0.2830 0.3187 -0.9046
vn 0.9551 -0.0068 0.2963
vn -0.2830 -0.3187 0.9046
vn -0.9551 0.0068 -0.2963
vn 0.0883 -0.9478 -0.3063
vn -0.0883 0.9478 0.3063
vn 0.9906 0.0938 0.1000
vn -0.9041 0.1836 -0.3858
vn -0.9906 0.0938 0.1000
vn 0.0000 0.5672 -0.8236
vn 0.9980 0.0462 -0.0440
vn 0.0000 0.2373 0.9714
vn -0.9784 0.1980 -0.0588
vn -0.0130 -0.4258 -0.9047
vn 0.9198 0.3917 0.0219
vn 0.0323 0.9993 -0.0187
vn -0.9198 0.3917 0.0219
vn 0.9140 0.1513 -0.3763
vn 0.0000 -0.6928 0.7211
vn 0.0000 0.4989 0.8667
vn -0.0000 -0.9686 -0.2487
usemtl Material
s off
f 1/1/1 2/2/1 4/3/1 3/4/1
f 3/5/2 4/6/2 8/7/2 7/8/2
f 7/9/3 8/10/3 6/11/3 5/12/3
f 5/13/4 6/14/4 2/15/4 1/16/4
f 3/17/5 7/18/5 5/13/5 1/16/5
f 8/7/6 4/6/6 2/15/6 6/14/6
f 65/19/7 10/20/7 12/21/7 66/22/7
f 66/22/8 12/21/8 16/23/8 67/24/8
f 67/24/9 16/23/9 14/25/9 68/26/9
f 68/26/10 14/25/10 10/27/10 65/28/10
f 17/29/1 18/30/1 20/31/1 19/32/1
f 19/33/11 20/34/11 24/35/11 23/36/11
f 23/36/3 24/35/3 22/37/3 21/38/3
f 21/38/12 22/37/12 18/30/12 17/29/12
f 19/39/13 23/40/13 21/38/13 17/29/13
f 24/41/14 20/42/14 18/30/14 22/37/14
f 28/43/15 26/44/15 25/45/15 27/46/15
f 32/47/16 31/48/16 29/49/16 30/50/16
f 27/51/3 31/52/3 32/53/3 28/54/3
f 26/55/1 30/56/1 29/57/1 25/58/1
f 25/45/17 29/59/17 31/60/17 27/46/17
f 26/55/18 33/61/18 35/62/18 30/56/18
f 33/61/19 37/63/19 39/64/19 35/62/19
f 30/50/20 35/65/20 36/66/20 32/47/20
f 28/43/21 34/67/21 33/68/21 26/44/21
f 32/53/22 36/69/22 34/70/22 28/54/22
f 38/71/23 40/72/23 39/73/23 37/74/23
f 35/65/24 39/75/24 40/76/24 36/66/24
f 36/69/25 40/77/25 38/78/25 34/70/25
f 34/67/26 38/71/26 37/74/26 33/68/26
f 57/79/27 42/80/27 44/81/27 58/82/27
f 58/82/28 44/81/28 48/83/28 59/84/28
f 59/84/29 48/83/29 46/85/29 60/86/29
f 60/86/30 46/85/30 42/87/30 57/88/30
f 43/89/31 47/90/31 45/91/31 41/92/31
f 61/93/32 50/94/32 52/95/32 62/96/32
f 62/96/33 52/95/33 56/97/33 63/98/33
f 63/98/34 56/97/34 54/99/34 64/100/34
f 64/101/35 54/102/35 50/94/35 61/93/35
f 51/103/36 55/104/36 53/105/36 49/106/36
f 87/107/37 60/86/37 57/88/37 88/108/37
f 86/109/3 59/84/3 60/86/3 87/107/3
f 85/110/38 58/82/38 59/84/38 86/109/38
f 88/111/1 57/79/1 58/82/1 85/110/1
f 91/112/39 64/101/39 61/93/39 92/113/39
f 90/114/40 63/98/40 64/100/40 91/115/40
f 89/116/41 62/96/41 63/98/41 90/114/41
f 92/113/42 61/93/42 62/96/42 89/116/42
f 13/117/43 68/26/43 65/28/43 9/118/43
f 15/119/44 67/24/44 68/26/44 13/117/44
f 11/120/45 66/22/45 67/24/45 15/119/45
f 9/121/46 65/19/46 66/22/46 11/120/46
f 69/122/47 70/123/47 72/124/47 71/125/47
f 71/126/48 72/127/48 76/128/48 75/129/48
f 75/130/49 76/131/49 74/132/49 73/133/49
f 73/133/50 74/132/50 70/123/50 69/122/50
f 71/126/51 75/129/51 73/133/51 69/122/51
f 76/134/52 72/135/52 70/123/52 74/132/52
f 77/136/53 78/137/53 80/138/53 79/139/53
f 79/139/54 80/138/54 84/140/54 83/141/54
f 83/141/55 84/140/55 82/142/55 81/143/55
f 81/144/56 82/145/56 78/146/56 77/147/56
f 79/139/57 83/141/57 81/144/57 77/147/57
f 84/140/58 80/138/58 78/148/58 82/149/58
f 41/150/59 88/111/59 85/110/59 43/151/59
f 90/114/60 55/152/60 99/153/60 100/154/60
f 47/155/61 86/109/61 87/107/61 45/91/61
f 45/91/62 87/107/62 88/108/62 41/92/62
f 49/106/63 92/113/63 89/116/63 51/156/63
f 85/110/64 86/109/64 96/157/64 93/158/64
f 55/152/65 90/114/65 91/115/65 53/159/65
f 53/105/66 91/112/66 92/113/66 49/106/66
f 55/104/36 51/103/36 98/160/36 99/161/36
f 43/151/67 85/110/67 93/158/67 94/162/67
f 89/116/68 90/114/68 100/154/68 97/163/68
f 86/109/69 47/155/69 95/164/69 96/157/69
f 47/90/31 43/89/31 94/165/31 95/166/31
f 51/156/70 89/116/70 97/163/70 98/167/70
f 94/168/71 93/158/71 96/157/71 95/169/71
f 98/170/72 97/163/72 100/154/72 99/171/72
f 11/120/73 15/119/73 13/172/73 9/173/73
