# Blender v2.82 (sub 7) OBJ File: 'Ostrich.blend'
# www.blender.org
mtllib Ostrich_000038.mtl
o Cube_Cube.001
v -0.250000 0.083363 0.400000
v -0.250000 0.483363 0.400000
v -0.250000 0.083363 -0.400000
v -0.250000 0.483363 -0.400000
v 0.250000 0.083363 0.400000
v 0.250000 0.483363 0.400000
v 0.250000 0.083363 -0.400000
v 0.250000 0.483363 -0.400000
v -0.100000 0.256200 -0.304101
v -0.056000 0.890278 -0.278126
v -0.100000 0.270998 -0.503552
v -0.056000 0.908935 -0.388561
v 0.100000 0.256200 -0.304101
v 0.056000 0.890278 -0.278126
v 0.100000 0.270998 -0.503552
v 0.056000 0.908935 -0.388561
v -0.100000 0.033363 0.500000
v -0.100000 0.433649 0.500000
v -0.100000 0.033363 0.400000
v -0.100000 0.433649 0.400000
v 0.100000 0.033363 0.500000
v 0.100000 0.433649 0.500000
v 0.100000 0.033363 0.400000
v 0.100000 0.433649 0.400000
v -0.079594 1.021194 -0.252984
v -0.057993 1.026219 -0.431892
v 0.059392 1.021882 -0.236183
v 0.080994 1.026908 -0.415091
v -0.077365 0.871716 -0.265298
v -0.055913 0.886708 -0.443385
v 0.061621 0.872405 -0.248497
v 0.083074 0.887396 -0.426584
v -0.015697 0.994835 -0.530513
v 0.063723 0.995228 -0.520912
v -0.014509 0.915114 -0.537080
v 0.064912 0.915507 -0.527480
v 0.016658 0.964236 -0.630265
v 0.056368 0.964433 -0.625465
v 0.017116 0.933506 -0.632797
v 0.056827 0.933702 -0.627996
v 0.100000 -0.500134 -0.000000
v 0.050000 0.223049 0.142468
v 0.090000 -0.500134 -0.080000
v 0.050000 0.144418 -0.041426
v 0.200000 -0.500134 -0.000000
v 0.250000 0.223049 0.142468
v 0.210000 -0.500134 -0.080000
v 0.250000 0.144418 -0.041426
v -0.200000 -0.500134 -0.000000
v -0.250000 0.223049 0.142468
v -0.210000 -0.500134 -0.080000
v -0.250000 0.144418 -0.041426
v -0.100000 -0.500134 -0.000000
v -0.050000 0.223049 0.142468
v -0.090000 -0.500134 -0.080000
v -0.050000 0.144418 -0.041426
v 0.100000 -0.160704 0.219319
v 0.100000 -0.160704 0.119319
v 0.200000 -0.160704 0.119319
v 0.200000 -0.160704 0.219319
v -0.200000 -0.160704 0.219319
v -0.200000 -0.160704 0.119319
v -0.100000 -0.160704 0.119319
v -0.100000 -0.160704 0.219319
v -0.090000 0.572487 -0.294069
v -0.090000 0.594161 -0.472760
v 0.090000 0.594161 -0.472760
v 0.090000 0.572487 -0.294069
v 0.372459 0.111773 0.260090
v 0.372177 0.411708 0.274617
v 0.272577 0.111445 0.264917
v 0.272294 0.411380 0.279445
v 0.349238 0.134946 -0.218788
v 0.348955 0.434880 -0.204260
v 0.249355 0.134618 -0.213960
v 0.249072 0.434552 -0.199433
v -0.272588 0.111413 0.265400
v -0.272306 0.411347 0.279928
v -0.372471 0.111740 0.260573
v -0.372189 0.411675 0.275100
v -0.249367 0.134585 -0.213477
v -0.249084 0.434519 -0.198950
v -0.349250 0.134913 -0.218305
v -0.348967 0.434847 -0.203778
v 0.100000 -0.463987 -0.079000
v 0.200000 -0.463987 -0.079000
v 0.200000 -0.466736 0.020962
v 0.100000 -0.466736 0.020962
v -0.200000 -0.463987 -0.079000
v -0.100000 -0.463987 -0.079000
v -0.100000 -0.466736 0.020962
v -0.200000 -0.466736 0.020962
v 0.060000 -0.465387 -0.166833
v 0.050000 -0.500134 -0.186833
v 0.250000 -0.500134 -0.186833
v 0.240000 -0.465387 -0.166833
v -0.240000 -0.465387 -0.166833
v -0.250000 -0.500134 -0.186833
v -0.050000 -0.500134 -0.186833
v -0.060000 -0.465387 -0.166833
vt 1.000000 0.002344
vt 1.000000 0.127321
vt 0.750046 0.127321
vt 0.750046 0.002344
vt 0.749862 0.155577
vt 0.624885 0.155577
vt 0.624885 0.002480
vt 0.749862 0.002480
vt 0.750046 0.002480
vt 0.750046 0.127457
vt 1.000000 0.127457
vt 1.000000 0.002480
vt 0.249954 0.002480
vt 0.374931 0.002480
vt 0.374931 0.155577
vt 0.249954 0.155577
vt 0.000000 0.155577
vt 0.000000 0.002481
vt 0.550225 0.832363
vt 0.506554 0.967370
vt 0.458446 0.956670
vt 0.475293 0.820672
vt 0.409645 0.954647
vt 0.402595 0.819777
vt 0.361369 0.961168
vt 0.330478 0.829348
vt 0.315626 0.976594
vt 0.257413 0.849837
vt 0.044996 0.806560
vt 0.044996 0.954579
vt 0.008018 0.954579
vt 0.008018 0.806560
vt 0.229887 0.806560
vt 0.229887 0.954579
vt 0.155931 0.954579
vt 0.155931 0.806560
vt 0.118952 0.954579
vt 0.118953 0.806560
vt 0.044996 0.769582
vt 0.118953 0.769582
vt 0.118952 0.991557
vt 0.044996 0.991557
vt 0.774379 0.345289
vt 0.774379 0.465813
vt 0.619181 0.465813
vt 0.619181 0.345289
vt 0.524955 0.573802
vt 0.524955 0.496323
vt 0.585216 0.496323
vt 0.585216 0.573802
vt 0.645058 0.313196
vt 0.645058 0.184063
vt 0.800017 0.184063
vt 0.800017 0.304587
vt 0.800017 0.304587
vt 0.800017 0.184063
vt 0.645058 0.184063
vt 0.645058 0.313196
vt 0.490048 0.465813
vt 0.490048 0.345289
vt 0.889896 0.270151
vt 0.889896 0.201280
vt 0.977690 0.236437
vt 0.977690 0.209889
vt 0.572303 0.617699
vt 0.537868 0.617699
vt 0.867100 0.371115
vt 0.867100 0.439986
vt 0.889897 0.201281
vt 0.889897 0.270151
vt 0.959554 0.388333
vt 0.986102 0.388333
vt 0.986102 0.422768
vt 0.959554 0.422768
vt 0.563694 0.660958
vt 0.546477 0.660958
vt 0.977690 0.209889
vt 0.977690 0.236437
vt 0.056947 0.502763
vt 0.031342 0.678742
vt 0.105364 0.679798
vt 0.113551 0.493295
vt 0.181247 0.679800
vt 0.172072 0.486316
vt 0.258096 0.678847
vt 0.228924 0.489689
vt 0.350833 0.653486
vt 0.278396 0.479726
vt 0.260664 0.232791
vt 0.198888 0.232721
vt 0.203989 0.273911
vt 0.255469 0.273969
vt 0.231797 0.491804
vt 0.259470 0.675650
vt 0.185342 0.676596
vt 0.174632 0.486937
vt 0.108143 0.676596
vt 0.115699 0.484082
vt 0.031342 0.675155
vt 0.058725 0.492177
vt 0.281442 0.481753
vt 0.353399 0.650288
vt 0.212076 0.231900
vt 0.272063 0.233967
vt 0.265687 0.273786
vt 0.215697 0.272064
vt 0.201809 0.294807
vt 0.255678 0.294648
vt 0.155095 0.254535
vt 0.091592 0.258712
vt 0.058515 0.304298
vt 0.264991 0.294002
vt 0.212481 0.291941
vt 0.106345 0.252865
vt 0.068530 0.296121
vt 0.169828 0.248696
vt 0.309271 0.694987
vt 0.222196 0.713314
vt 0.396937 0.686350
vt 0.484080 0.687634
vt 0.569074 0.696753
vt 0.637826 0.750046
vt 0.637826 0.937556
vt 0.575382 0.937556
vt 0.575382 0.750046
vt 0.637826 0.687602
vt 0.637826 0.500092
vt 0.937556 0.500092
vt 0.937556 0.687602
vt 1.000000 0.750046
vt 1.000000 0.937556
vt 0.937556 0.937556
vt 0.937556 0.750046
vt 0.937556 1.000000
vt 0.637826 1.000000
vt 1.000000 0.750046
vt 1.000000 0.937556
vt 0.937556 0.937556
vt 0.937556 0.750046
vt 0.637826 0.937556
vt 0.637826 0.750046
vt 0.575382 0.937556
vt 0.575382 0.750046
vt 0.637826 0.687602
vt 0.637826 0.500092
vt 0.937556 0.500092
vt 0.937556 0.687602
vt 0.937556 1.000000
vt 0.637826 1.000000
vt 0.051395 0.289109
vt 0.069292 0.255431
vt 0.084240 0.246065
vt 0.076987 0.187016
vt 0.096428 0.196312
vt 0.176155 0.244039
vt 0.191735 0.241627
vt 0.156383 0.196685
vt 0.069733 0.210295
vt 0.062349 0.279584
vt 0.193920 0.177806
vt 0.293899 0.181250
vt 0.051183 0.206234
vt 0.184607 0.197084
vt 0.174184 0.184472
vt 0.281319 0.177816
vt 0.178358 0.177699
vt 0.202337 0.190319
vt 0.061887 0.191752
vt 0.158165 0.176629
vt 0.189678 0.177487
vt 0.091701 0.176629
vt 0.398221 0.599207
vt 0.485364 0.600491
vn -1.0000 0.0000 0.0000
vn 0.0000 0.0000 -1.0000
vn 1.0000 0.0000 0.0000
vn 0.0000 0.0000 1.0000
vn 0.0000 -1.0000 0.0000
vn 0.0000 1.0000 0.0000
vn -0.9944 0.1046 0.0146
vn 0.0000 0.2584 -0.9660
vn 0.9944 0.1046 0.0146
vn 0.0000 -0.0501 0.9987
vn -0.0082 0.9996 0.0271
vn 0.0149 -0.9965 -0.0821
vn 0.9928 0.0049 0.1200
vn -0.9928 -0.0049 -0.1200
vn -0.1192 -0.0833 0.9894
vn -0.9166 0.0192 -0.3992
vn -0.9501 0.0115 -0.3117
vn 0.0379 -0.9608 -0.2745
vn 0.0305 0.9562 -0.2912
vn 0.9851 0.0286 -0.1694
vn 0.1192 0.0833 -0.9894
vn 0.0266 -0.9833 -0.1801
vn 0.9969 0.0212 -0.0764
vn 0.0296 0.9583 -0.2843
vn -0.9907 -0.1313 0.0364
vn 0.0000 -0.4661 -0.8847
vn 0.9907 -0.1313 0.0364
vn 0.0000 0.1964 0.9805
vn 0.0000 -0.5439 0.8391
vn 0.0000 0.5473 -0.8369
vn 0.0000 -0.0317 0.9995
vn 0.9995 0.0311 0.0030
vn 0.0000 0.0949 -0.9955
vn -0.9995 0.0311 0.0030
vn 0.0484 -0.0483 0.9977
vn -0.9988 -0.0033 0.0483
vn -0.0484 0.0483 -0.9977
vn 0.9988 0.0033 -0.0483
vn 0.0009 -0.9988 -0.0484
vn -0.0009 0.9988 0.0484
vn -0.0484 -0.0483 0.9977
vn -0.9988 0.0033 -0.0483
vn 0.0484 0.0483 -0.9977
vn 0.9988 -0.0033 0.0483
vn -0.0009 -0.9988 -0.0484
vn 0.0009 0.9988 0.0484
vn -0.9906 0.1245 0.0569
vn 0.9152 0.1471 0.3751
vn 0.9906 0.1245 0.0569
vn -0.0000 -0.5316 0.8470
vn 0.0000 0.9999 -0.0159
vn -0.9152 0.1471 0.3751
vn 0.0000 0.4989 -0.8667
vn 0.0000 -0.9973 -0.0740
usemtl Material
s off
f 1/1/1 2/2/1 4/3/1 3/4/1
f 3/5/2 4/6/2 8/7/2 7/8/2
f 7/9/3 8/10/3 6/11/3 5/12/3
f 5/13/4 6/14/4 2/15/4 1/16/4
f 3/17/5 7/18/5 5/13/5 1/16/5
f 8/7/6 4/6/6 2/15/6 6/14/6
f 65/19/7 10/20/7 12/21/7 66/22/7
f 66/22/8 12/21/8 16/23/8 67/24/8
f 67/24/9 16/23/9 14/25/9 68/26/9
f 68/26/10 14/25/10 10/27/10 65/28/10
f 17/29/1 18/30/1 20/31/1 19/32/1
f 19/33/2 20/34/2 24/35/2 23/36/2
f 23/36/3 24/35/3 22/37/3 21/38/3
f 21/38/4 22/37/4 18/30/4 17/29/4
f 19/39/5 23/40/5 21/38/5 17/29/5
f 24/41/6 20/42/6 18/30/6 22/37/6
f 28/43/11 26/44/11 25/45/11 27/46/11
f 32/47/12 31/48/12 29/49/12 30/50/12
f 27/51/13 31/52/13 32/53/13 28/54/13
f 26/55/14 30/56/14 29/57/14 25/58/14
f 25/45/15 29/59/15 31/60/15 27/46/15
f 26/55/16 33/61/16 35/62/16 30/56/16
f 33/61/17 37/63/17 39/64/17 35/62/17
f 30/50/18 35/65/18 36/66/18 32/47/18
f 28/43/19 34/67/19 33/68/19 26/44/19
f 32/53/20 36/69/20 34/70/20 28/54/20
f 38/71/21 40/72/21 39/73/21 37/74/21
f 35/65/22 39/75/22 40/76/22 36/66/22
f 36/69/23 40/77/23 38/78/23 34/70/23
f 34/67/24 38/71/24 37/74/24 33/68/24
f 57/79/25 42/80/25 44/81/25 58/82/25
f 58/82/26 44/81/26 48/83/26 59/84/26
f 59/84/27 48/83/27 46/85/27 60/86/27
f 60/86/28 46/85/28 42/87/28 57/88/28
f 43/89/5 47/90/5 45/91/5 41/92/5
f 61/93/25 50/94/25 52/95/25 62/96/25
f 62/96/26 52/95/26 56/97/26 63/98/26
f 63/98/27 56/97/27 54/99/27 64/100/27
f 64/101/28 54/102/28 50/94/28 61/93/28
f 51/103/5 55/104/5 53/105/5 49/106/5
f 87/107/29 60/86/29 57/88/29 88/108/29
f 86/109/3 59/84/3 60/86/3 87/107/3
f 85/110/30 58/82/30 59/84/30 86/109/30
f 88/111/1 57/79/1 58/82/1 85/110/1
f 91/112/29 64/101/29 61/93/29 92/113/29
f 90/114/3 63/98/3 64/100/3 91/115/3
f 89/116/30 62/96/30 63/98/30 90/114/30
f 92/113/1 61/93/1 62/96/1 89/116/1
f 13/117/31 68/26/31 65/28/31 9/118/31
f 15/119/32 67/24/32 68/26/32 13/117/32
f 11/120/33 66/22/33 67/24/33 15/119/33
f 9/121/34 65/19/34 66/22/34 11/120/34
f 69/122/35 70/123/35 72/124/35 71/125/35
f 71/126/36 72/127/36 76/128/36 75/129/36
f 75/130/37 76/131/37 74/132/37 73/133/37
f 73/133/38 74/132/38 70/123/38 69/122/38
f 71/126/39 75/129/39 73/133/39 69/122/39
f 76/134/40 72/135/40 70/123/40 74/132/40
f 77/136/41 78/137/41 80/138/41 79/139/41
f 79/139/42 80/138/42 84/140/42 83/141/42
f 83/141/43 84/140/43 82/142/43 81/143/43
f 81/144/44 82/145/44 78/146/44 77/147/44
f 79/139/45 83/141/45 81/144/45 77/147/45
f 84/140/46 80/138/46 78/148/46 82/149/46
f 41/150/47 88/111/47 85/110/47 43/151/47
f 90/114/48 55/152/48 99/153/48 100/154/48
f 47/155/49 86/109/49 87/107/49 45/91/49
f 45/91/50 87/107/50 88/108/50 41/92/50
f 49/106/47 92/113/47 89/116/47 51/156/47
f 85/110/51 86/109/51 96/157/51 93/158/51
f 55/152/49 90/114/49 91/115/49 53/159/49
f 53/105/50 91/112/50 92/113/50 49/106/50
f 55/104/5 51/103/5 98/160/5 99/161/5
f 43/151/52 85/110/52 93/158/52 94/162/52
f 89/116/51 90/114/51 100/154/51 97/163/51
f 86/109/48 47/155/48 95/164/48 96/157/48
f 47/90/5 43/89/5 94/165/5 95/166/5
f 51/156/52 89/116/52 97/163/52 98/167/52
f 94/168/53 93/158/53 96/157/53 95/169/53
f 98/170/53 97/163/53 100/154/53 99/171/53
f 11/120/54 15/119/54 13/172/54 9/173/54
