# Blender v2.82 (sub 7) OBJ File: 'Ostrich.blend'
# www.blender.org
mtllib Ostrich_000087.mtl
o Cube_Cube.001
v 0.129839 0.133942 0.466215
v 0.105349 0.532523 0.443109
v -0.449980 0.066603 -0.080846
v -0.474469 0.465184 -0.103952
v 0.472970 0.133942 0.102537
v 0.448480 0.532523 0.079431
v -0.106849 0.066603 -0.444523
v -0.131339 0.465184 -0.467630
v -0.286062 0.253075 -0.132416
v -0.309147 0.886049 -0.214690
v -0.431180 0.239154 -0.269335
v -0.390607 0.885029 -0.291548
v -0.148810 0.253075 -0.277887
v -0.232285 0.886049 -0.296153
v -0.293928 0.239154 -0.414806
v -0.313746 0.885029 -0.373011
v 0.325963 0.102797 0.445031
v 0.281205 0.498325 0.402803
v 0.254092 0.087424 0.377221
v 0.209334 0.482952 0.334992
v 0.463215 0.102797 0.299561
v 0.418458 0.498325 0.257332
v 0.391344 0.087424 0.231750
v 0.346587 0.482952 0.189521
v -0.304183 1.017511 -0.190758
v -0.434846 1.002383 -0.314039
v -0.208106 1.017511 -0.292588
v -0.338769 1.002383 -0.415869
v -0.301072 0.867572 -0.187823
v -0.431942 0.862440 -0.311300
v -0.204995 0.867572 -0.289653
v -0.335866 0.862440 -0.413130
v -0.486134 0.959548 -0.403676
v -0.431233 0.959548 -0.461864
v -0.484475 0.879580 -0.402110
v -0.429574 0.879580 -0.460299
v -0.544303 0.917550 -0.486055
v -0.516852 0.917550 -0.515149
v -0.543663 0.886725 -0.485451
v -0.516213 0.886725 -0.514546
v 0.196069 -0.348047 0.047508
v 0.119812 0.289828 0.044301
v 0.133806 -0.372513 0.002511
v 0.038642 0.123857 -0.032283
v 0.264695 -0.348047 -0.025228
v 0.257064 0.289828 -0.101170
v 0.216158 -0.372513 -0.084772
v 0.175895 0.123857 -0.177754
v -0.114993 -0.500134 0.121879
v -0.062590 0.232185 0.286002
v -0.180044 -0.500134 0.074252
v -0.198818 0.169396 0.153717
v -0.046367 -0.500134 0.049143
v 0.075009 0.239092 0.141024
v -0.097693 -0.500134 -0.013031
v -0.061219 0.176302 0.008739
v 0.356574 -0.005618 0.198944
v 0.286828 -0.033995 0.133139
v 0.355455 -0.033995 0.060404
v 0.425200 -0.005618 0.126209
v 0.013152 -0.150971 0.270940
v -0.059090 -0.150034 0.201801
v 0.010018 -0.145777 0.129649
v 0.082260 -0.146714 0.198788
v -0.304115 0.568956 -0.163197
v -0.434937 0.561869 -0.286628
v -0.311410 0.561869 -0.417552
v -0.180588 0.568956 -0.294121
v 0.469824 0.175565 -0.087007
v 0.447376 0.474740 -0.099746
v 0.406237 0.174080 -0.009842
v 0.383788 0.473255 -0.022581
v 0.101106 0.134928 -0.391631
v 0.078658 0.434103 -0.404370
v 0.037519 0.133443 -0.314466
v 0.015071 0.432617 -0.327205
v 0.014244 0.173931 0.406600
v 0.000223 0.473106 0.384929
v -0.059096 0.175417 0.474562
v -0.073118 0.474592 0.452892
v -0.311284 0.133294 0.056200
v -0.325305 0.432469 0.034530
v -0.384625 0.134780 0.124163
v -0.398646 0.433954 0.102492
v 0.136427 -0.331071 -0.008765
v 0.205053 -0.331071 -0.081501
v 0.277191 -0.318283 -0.013438
v 0.208565 -0.318283 0.059298
v -0.174001 -0.466466 0.067117
v -0.104960 -0.463931 -0.005180
v -0.032650 -0.463387 0.063892
v -0.101691 -0.465922 0.136189
v 0.045357 -0.365987 -0.039696
v 0.032373 -0.405185 -0.038198
v 0.169626 -0.405185 -0.183669
v 0.168884 -0.365987 -0.170620
v -0.263790 -0.465387 0.036482
v -0.285200 -0.500134 0.030030
v -0.147948 -0.500134 -0.115441
v -0.140263 -0.465387 -0.094442
vt 1.000000 0.002344
vt 1.000000 0.127321
vt 0.750046 0.127321
vt 0.750046 0.002344
vt 0.749862 0.155577
vt 0.624885 0.155577
vt 0.624885 0.002480
vt 0.749862 0.002480
vt 0.750046 0.002480
vt 0.750046 0.127457
vt 1.000000 0.127457
vt 1.000000 0.002480
vt 0.249954 0.002480
vt 0.374931 0.002480
vt 0.374931 0.155577
vt 0.249954 0.155577
vt 0.000000 0.155577
vt 0.000000 0.002481
vt 0.550225 0.832363
vt 0.506554 0.967370
vt 0.458446 0.956670
vt 0.475293 0.820672
vt 0.409645 0.954647
vt 0.402595 0.819777
vt 0.361369 0.961168
vt 0.330478 0.829348
vt 0.315626 0.976594
vt 0.257413 0.849837
vt 0.044996 0.806560
vt 0.044996 0.954579
vt 0.008018 0.954579
vt 0.008018 0.806560
vt 0.229887 0.806560
vt 0.229887 0.954579
vt 0.155931 0.954579
vt 0.155931 0.806560
vt 0.118952 0.954579
vt 0.118953 0.806560
vt 0.044996 0.769582
vt 0.118953 0.769582
vt 0.118952 0.991557
vt 0.044996 0.991557
vt 0.774379 0.345289
vt 0.774379 0.465813
vt 0.619181 0.465813
vt 0.619181 0.345289
vt 0.524955 0.573802
vt 0.524955 0.496323
vt 0.585216 0.496323
vt 0.585216 0.573802
vt 0.645058 0.313196
vt 0.645058 0.184063
vt 0.800017 0.184063
vt 0.800017 0.304587
vt 0.800017 0.304587
vt 0.800017 0.184063
vt 0.645058 0.184063
vt 0.645058 0.313196
vt 0.490048 0.465813
vt 0.490048 0.345289
vt 0.889896 0.270151
vt 0.889896 0.201280
vt 0.977690 0.236437
vt 0.977690 0.209889
vt 0.572303 0.617699
vt 0.537868 0.617699
vt 0.867100 0.371115
vt 0.867100 0.439986
vt 0.889897 0.201281
vt 0.889897 0.270151
vt 0.959554 0.388333
vt 0.986102 0.388333
vt 0.986102 0.422768
vt 0.959554 0.422768
vt 0.563694 0.660958
vt 0.546477 0.660958
vt 0.977690 0.209889
vt 0.977690 0.236437
vt 0.056947 0.502763
vt 0.031342 0.678742
vt 0.105364 0.679798
vt 0.113551 0.493295
vt 0.181247 0.679800
vt 0.172072 0.486316
vt 0.258096 0.678847
vt 0.228924 0.489689
vt 0.350833 0.653486
vt 0.278396 0.479726
vt 0.260664 0.232791
vt 0.198888 0.232721
vt 0.203989 0.273911
vt 0.255469 0.273969
vt 0.231797 0.491804
vt 0.259470 0.675650
vt 0.185342 0.676596
vt 0.174632 0.486937
vt 0.108143 0.676596
vt 0.115699 0.484082
vt 0.031342 0.675155
vt 0.058725 0.492177
vt 0.281442 0.481753
vt 0.353399 0.650288
vt 0.212076 0.231900
vt 0.272063 0.233967
vt 0.265687 0.273786
vt 0.215697 0.272064
vt 0.201809 0.294807
vt 0.255678 0.294648
vt 0.155095 0.254535
vt 0.091592 0.258712
vt 0.058515 0.304298
vt 0.264991 0.294002
vt 0.212481 0.291941
vt 0.106345 0.252865
vt 0.068530 0.296121
vt 0.169828 0.248696
vt 0.309271 0.694987
vt 0.222196 0.713314
vt 0.396937 0.686350
vt 0.484080 0.687634
vt 0.569074 0.696753
vt 0.637826 0.750046
vt 0.637826 0.937556
vt 0.575382 0.937556
vt 0.575382 0.750046
vt 0.637826 0.687602
vt 0.637826 0.500092
vt 0.937556 0.500092
vt 0.937556 0.687602
vt 1.000000 0.750046
vt 1.000000 0.937556
vt 0.937556 0.937556
vt 0.937556 0.750046
vt 0.937556 1.000000
vt 0.637826 1.000000
vt 1.000000 0.750046
vt 1.000000 0.937556
vt 0.937556 0.937556
vt 0.937556 0.750046
vt 0.637826 0.937556
vt 0.637826 0.750046
vt 0.575382 0.937556
vt 0.575382 0.750046
vt 0.637826 0.687602
vt 0.637826 0.500092
vt 0.937556 0.500092
vt 0.937556 0.687602
vt 0.937556 1.000000
vt 0.637826 1.000000
vt 0.051395 0.289109
vt 0.069292 0.255431
vt 0.084240 0.246065
vt 0.076987 0.187016
vt 0.096428 0.196312
vt 0.176155 0.244039
vt 0.191735 0.241627
vt 0.156383 0.196685
vt 0.069733 0.210295
vt 0.062349 0.279584
vt 0.193920 0.177806
vt 0.293899 0.181250
vt 0.051183 0.206234
vt 0.184607 0.197084
vt 0.174184 0.184472
vt 0.281319 0.177816
vt 0.178358 0.177699
vt 0.202337 0.190319
vt 0.061887 0.191752
vt 0.158165 0.176629
vt 0.189678 0.177487
vt 0.091701 0.176629
vt 0.398221 0.599207
vt 0.485364 0.600491
vn -0.6863 -0.0000 0.7274
vn -0.7248 -0.0842 -0.6838
vn 0.6863 0.0000 -0.7274
vn 0.7248 0.0842 0.6838
vn 0.0612 -0.9965 0.0578
vn -0.0612 0.9965 -0.0578
vn -0.6846 0.1056 0.7213
vn -0.7245 0.0890 -0.6835
vn 0.6803 0.1056 -0.7253
vn 0.7219 0.1221 0.6811
vn -0.7187 -0.1537 -0.6781
vn 0.7187 0.1537 0.6781
vn 0.1118 -0.9881 0.1055
vn -0.1118 0.9881 -0.1055
vn -0.0610 0.9965 -0.0576
vn 0.0207 -0.9996 0.0196
vn 0.7271 0.0285 0.6860
vn -0.8662 -0.0082 0.4996
vn -0.8155 -0.0056 0.5787
vn -0.1223 -0.9858 -0.1153
vn -0.2893 0.9175 -0.2729
vn 0.4484 -0.0082 -0.8938
vn -0.7271 -0.0285 -0.6860
vn -0.0517 -0.9975 -0.0488
vn 0.5303 -0.0056 -0.8478
vn -0.2844 0.9204 -0.2684
vn -0.6116 -0.1001 0.7848
vn -0.3440 -0.8811 -0.3246
vn 0.7480 -0.1001 -0.6561
vn 0.5294 0.6857 0.4995
vn 0.2224 -0.9521 0.2099
vn -0.6589 -0.1676 0.7334
vn -0.6580 -0.3866 -0.6462
vn 0.7064 -0.0986 -0.7009
vn 0.7165 0.1155 0.6880
vn 0.0000 -1.0000 -0.0000
vn 0.6096 -0.5455 0.5752
vn -0.5970 0.5713 -0.5633
vn 0.6427 -0.4865 0.5918
vn 0.6900 0.0567 -0.7215
vn -0.6434 0.4847 -0.5925
vn -0.6900 -0.0568 0.7215
vn 0.7231 0.1078 0.6823
vn 0.6847 0.0312 -0.7282
vn -0.7266 -0.0452 -0.6856
vn -0.6872 0.0312 0.7258
vn 0.7682 0.0847 0.6346
vn -0.6359 -0.0149 0.7716
vn -0.7682 -0.0847 -0.6346
vn 0.6359 0.0149 -0.7716
vn 0.0748 -0.9963 0.0424
vn -0.0748 0.9963 -0.0424
vn 0.6782 0.0847 0.7300
vn -0.7334 0.0149 0.6796
vn -0.6782 -0.0847 -0.7300
vn 0.7334 -0.0149 -0.6796
vn 0.0467 -0.9963 0.0722
vn -0.0467 0.9963 -0.0722
vn -0.6595 0.1347 0.7396
vn 0.9011 0.1587 -0.4035
vn 0.7000 0.1347 -0.7013
vn 0.6299 -0.4999 0.5944
vn -0.6442 0.1035 0.7578
vn -0.2697 0.9287 -0.2544
vn 0.7197 0.1466 -0.6786
vn 0.6376 -0.4872 0.5967
vn -0.4070 0.2192 0.8867
vn -0.0078 1.0000 0.0050
vn 0.8616 0.2192 -0.4578
vn -0.3536 0.1511 0.9231
vn -0.7112 0.2099 -0.6710
vn -0.6304 0.4989 -0.5948
vn 0.0506 -0.9976 0.0478
usemtl Material
s off
f 1/1/1 2/2/1 4/3/1 3/4/1
f 3/5/2 4/6/2 8/7/2 7/8/2
f 7/9/3 8/10/3 6/11/3 5/12/3
f 5/13/4 6/14/4 2/15/4 1/16/4
f 3/17/5 7/18/5 5/13/5 1/16/5
f 8/7/6 4/6/6 2/15/6 6/14/6
f 65/19/7 10/20/7 12/21/7 66/22/7
f 66/22/8 12/21/8 16/23/8 67/24/8
f 67/24/9 16/23/9 14/25/9 68/26/9
f 68/26/10 14/25/10 10/27/10 65/28/10
f 17/29/1 18/30/1 20/31/1 19/32/1
f 19/33/11 20/34/11 24/35/11 23/36/11
f 23/36/3 24/35/3 22/37/3 21/38/3
f 21/38/12 22/37/12 18/30/12 17/29/12
f 19/39/13 23/40/13 21/38/13 17/29/13
f 24/41/14 20/42/14 18/30/14 22/37/14
f 28/43/15 26/44/15 25/45/15 27/46/15
f 32/47/16 31/48/16 29/49/16 30/50/16
f 27/51/3 31/52/3 32/53/3 28/54/3
f 26/55/1 30/56/1 29/57/1 25/58/1
f 25/45/17 29/59/17 31/60/17 27/46/17
f 26/55/18 33/61/18 35/62/18 30/56/18
f 33/61/19 37/63/19 39/64/19 35/62/19
f 30/50/20 35/65/20 36/66/20 32/47/20
f 28/43/21 34/67/21 33/68/21 26/44/21
f 32/53/22 36/69/22 34/70/22 28/54/22
f 38/71/23 40/72/23 39/73/23 37/74/23
f 35/65/24 39/75/24 40/76/24 36/66/24
f 36/69/25 40/77/25 38/78/25 34/70/25
f 34/67/26 38/71/26 37/74/26 33/68/26
f 57/79/27 42/80/27 44/81/27 58/82/27
f 58/82/28 44/81/28 48/83/28 59/84/28
f 59/84/29 48/83/29 46/85/29 60/86/29
f 60/86/30 46/85/30 42/87/30 57/88/30
f 43/89/31 47/90/31 45/91/31 41/92/31
f 61/93/32 50/94/32 52/95/32 62/96/32
f 62/96/33 52/95/33 56/97/33 63/98/33
f 63/98/34 56/97/34 54/99/34 64/100/34
f 64/101/35 54/102/35 50/94/35 61/93/35
f 51/103/36 55/104/36 53/105/36 49/106/36
f 87/107/37 60/86/37 57/88/37 88/108/37
f 86/109/3 59/84/3 60/86/3 87/107/3
f 85/110/38 58/82/38 59/84/38 86/109/38
f 88/111/1 57/79/1 58/82/1 85/110/1
f 91/112/39 64/101/39 61/93/39 92/113/39
f 90/114/40 63/98/40 64/100/40 91/115/40
f 89/116/41 62/96/41 63/98/41 90/114/41
f 92/113/42 61/93/42 62/96/42 89/116/42
f 13/117/43 68/26/43 65/28/43 9/118/43
f 15/119/44 67/24/44 68/26/44 13/117/44
f 11/120/45 66/22/45 67/24/45 15/119/45
f 9/121/46 65/19/46 66/22/46 11/120/46
f 69/122/47 70/123/47 72/124/47 71/125/47
f 71/126/48 72/127/48 76/128/48 75/129/48
f 75/130/49 76/131/49 74/132/49 73/133/49
f 73/133/50 74/132/50 70/123/50 69/122/50
f 71/126/51 75/129/51 73/133/51 69/122/51
f 76/134/52 72/135/52 70/123/52 74/132/52
f 77/136/53 78/137/53 80/138/53 79/139/53
f 79/139/54 80/138/54 84/140/54 83/141/54
f 83/141/55 84/140/55 82/142/55 81/143/55
f 81/144/56 82/145/56 78/146/56 77/147/56
f 79/139/57 83/141/57 81/144/57 77/147/57
f 84/140/58 80/138/58 78/148/58 82/149/58
f 41/150/59 88/111/59 85/110/59 43/151/59
f 90/114/60 55/152/60 99/153/60 100/154/60
f 47/155/61 86/109/61 87/107/61 45/91/61
f 45/91/62 87/107/62 88/108/62 41/92/62
f 49/106/63 92/113/63 89/116/63 51/156/63
f 85/110/64 86/109/64 96/157/64 93/158/64
f 55/152/65 90/114/65 91/115/65 53/159/65
f 53/105/66 91/112/66 92/113/66 49/106/66
f 55/104/36 51/103/36 98/160/36 99/161/36
f 43/151/67 85/110/67 93/158/67 94/162/67
f 89/116/68 90/114/68 100/154/68 97/163/68
f 86/109/69 47/155/69 95/164/69 96/157/69
f 47/90/31 43/89/31 94/165/31 95/166/31
f 51/156/70 89/116/70 97/163/70 98/167/70
f 94/168/71 93/158/71 96/157/71 95/169/71
f 98/170/72 97/163/72 100/154/72 99/171/72
f 11/120/73 15/119/73 13/172/73 9/173/73
