# Blender v2.82 (sub 7) OBJ File: 'Ostrich.blend'
# www.blender.org
mtllib Ostrich_000066.mtl
o Cube_Cube.001
v -0.231580 0.101653 0.411698
v -0.231655 0.501649 0.410029
v -0.267835 0.098311 -0.387473
v -0.267911 0.498308 -0.389142
v 0.267907 0.101653 0.389038
v 0.267831 0.501649 0.387369
v 0.231651 0.098311 -0.410133
v 0.231575 0.498308 -0.411802
v -0.113676 0.271547 -0.299192
v -0.069019 0.908557 -0.285702
v -0.122718 0.285512 -0.498499
v -0.074052 0.923124 -0.396636
v 0.086118 0.271547 -0.308256
v 0.042866 0.908557 -0.290778
v 0.077076 0.285512 -0.507563
v 0.037833 0.923124 -0.401712
v -0.077136 0.052441 0.506258
v -0.077274 0.452715 0.503197
v -0.081667 0.051675 0.406363
v -0.081806 0.451950 0.403303
v 0.122659 0.052441 0.497194
v 0.122520 0.452715 0.494133
v 0.118127 0.051675 0.397299
v 0.117988 0.451950 0.394239
v -0.081277 1.035955 -0.246982
v -0.089434 1.045960 -0.426797
v 0.058579 1.035955 -0.253327
v 0.050422 1.045960 -0.433142
v -0.082030 0.886878 -0.263585
v -0.090137 0.906822 -0.442293
v 0.057826 0.886878 -0.269930
v 0.049719 0.906822 -0.448638
v -0.064170 1.017286 -0.531866
v 0.015748 1.017286 -0.535492
v -0.064572 0.937779 -0.540721
v 0.015346 0.937779 -0.544347
v -0.048892 0.989445 -0.636390
v -0.008933 0.989445 -0.638202
v -0.049046 0.958797 -0.639803
v -0.009087 0.958797 -0.641616
v 0.100297 -0.492592 0.004274
v 0.056441 0.238346 0.140852
v 0.086682 -0.493762 -0.075182
v 0.048051 0.162708 -0.044103
v 0.200194 -0.492592 -0.000258
v 0.256236 0.238346 0.131788
v 0.206558 -0.493762 -0.080620
v 0.247845 0.162708 -0.053168
v -0.198183 -0.500134 0.008991
v -0.243265 0.234382 0.155488
v -0.211798 -0.500134 -0.070474
v -0.251630 0.166217 -0.032351
v -0.098285 -0.500134 0.004459
v -0.043469 0.234722 0.146467
v -0.091921 -0.500134 -0.075912
v -0.051834 0.166556 -0.041372
v 0.109598 -0.145024 0.209289
v 0.105066 -0.146238 0.109400
v 0.204963 -0.146238 0.104868
v 0.209495 -0.145024 0.204757
v -0.190170 -0.149925 0.208683
v -0.194658 -0.149879 0.108784
v -0.094759 -0.149666 0.104296
v -0.090271 -0.149712 0.204195
v -0.103233 0.589122 -0.289642
v -0.111349 0.607121 -0.468555
v 0.068466 0.607121 -0.476713
v 0.076582 0.589122 -0.297799
v 0.397646 0.153733 0.254410
v 0.391465 0.453955 0.253637
v 0.298282 0.151716 0.265488
v 0.292101 0.451938 0.264715
v 0.344504 0.151411 -0.222634
v 0.338323 0.451632 -0.223407
v 0.245140 0.149394 -0.211555
v 0.238959 0.449615 -0.212328
v -0.273011 0.151514 0.292063
v -0.266926 0.451736 0.290734
v -0.372970 0.153532 0.290027
v -0.366884 0.453753 0.288697
v -0.263283 0.149192 -0.187832
v -0.257197 0.449413 -0.189162
v -0.363242 0.151209 -0.189869
v -0.357156 0.451430 -0.191198
v 0.096672 -0.458077 -0.075631
v 0.196569 -0.458077 -0.080163
v 0.201101 -0.458071 0.019734
v 0.101204 -0.458071 0.024266
v -0.201843 -0.465056 -0.070948
v -0.101944 -0.464929 -0.075447
v -0.097445 -0.464911 0.024452
v -0.197344 -0.465039 0.028950
v 0.052755 -0.460288 -0.161064
v 0.041882 -0.495324 -0.180081
v 0.241676 -0.495324 -0.189145
v 0.232570 -0.460288 -0.169222
v -0.245702 -0.465387 -0.155858
v -0.256599 -0.500134 -0.175384
v -0.056804 -0.500134 -0.184448
v -0.065887 -0.465387 -0.164016
vt 1.000000 0.002344
vt 1.000000 0.127321
vt 0.750046 0.127321
vt 0.750046 0.002344
vt 0.749862 0.155577
vt 0.624885 0.155577
vt 0.624885 0.002480
vt 0.749862 0.002480
vt 0.750046 0.002480
vt 0.750046 0.127457
vt 1.000000 0.127457
vt 1.000000 0.002480
vt 0.249954 0.002480
vt 0.374931 0.002480
vt 0.374931 0.155577
vt 0.249954 0.155577
vt 0.000000 0.155577
vt 0.000000 0.002481
vt 0.550225 0.832363
vt 0.506554 0.967370
vt 0.458446 0.956670
vt 0.475293 0.820672
vt 0.409645 0.954647
vt 0.402595 0.819777
vt 0.361369 0.961168
vt 0.330478 0.829348
vt 0.315626 0.976594
vt 0.257413 0.849837
vt 0.044996 0.806560
vt 0.044996 0.954579
vt 0.008018 0.954579
vt 0.008018 0.806560
vt 0.229887 0.806560
vt 0.229887 0.954579
vt 0.155931 0.954579
vt 0.155931 0.806560
vt 0.118952 0.954579
vt 0.118953 0.806560
vt 0.044996 0.769582
vt 0.118953 0.769582
vt 0.118952 0.991557
vt 0.044996 0.991557
vt 0.774379 0.345289
vt 0.774379 0.465813
vt 0.619181 0.465813
vt 0.619181 0.345289
vt 0.524955 0.573802
vt 0.524955 0.496323
vt 0.585216 0.496323
vt 0.585216 0.573802
vt 0.645058 0.313196
vt 0.645058 0.184063
vt 0.800017 0.184063
vt 0.800017 0.304587
vt 0.800017 0.304587
vt 0.800017 0.184063
vt 0.645058 0.184063
vt 0.645058 0.313196
vt 0.490048 0.465813
vt 0.490048 0.345289
vt 0.889896 0.270151
vt 0.889896 0.201280
vt 0.977690 0.236437
vt 0.977690 0.209889
vt 0.572303 0.617699
vt 0.537868 0.617699
vt 0.867100 0.371115
vt 0.867100 0.439986
vt 0.889897 0.201281
vt 0.889897 0.270151
vt 0.959554 0.388333
vt 0.986102 0.388333
vt 0.986102 0.422768
vt 0.959554 0.422768
vt 0.563694 0.660958
vt 0.546477 0.660958
vt 0.977690 0.209889
vt 0.977690 0.236437
vt 0.056947 0.502763
vt 0.031342 0.678742
vt 0.105364 0.679798
vt 0.113551 0.493295
vt 0.181247 0.679800
vt 0.172072 0.486316
vt 0.258096 0.678847
vt 0.228924 0.489689
vt 0.350833 0.653486
vt 0.278396 0.479726
vt 0.260664 0.232791
vt 0.198888 0.232721
vt 0.203989 0.273911
vt 0.255469 0.273969
vt 0.231797 0.491804
vt 0.259470 0.675650
vt 0.185342 0.676596
vt 0.174632 0.486937
vt 0.108143 0.676596
vt 0.115699 0.484082
vt 0.031342 0.675155
vt 0.058725 0.492177
vt 0.281442 0.481753
vt 0.353399 0.650288
vt 0.212076 0.231900
vt 0.272063 0.233967
vt 0.265687 0.273786
vt 0.215697 0.272064
vt 0.201809 0.294807
vt 0.255678 0.294648
vt 0.155095 0.254535
vt 0.091592 0.258712
vt 0.058515 0.304298
vt 0.264991 0.294002
vt 0.212481 0.291941
vt 0.106345 0.252865
vt 0.068530 0.296121
vt 0.169828 0.248696
vt 0.309271 0.694987
vt 0.222196 0.713314
vt 0.396937 0.686350
vt 0.484080 0.687634
vt 0.569074 0.696753
vt 0.637826 0.750046
vt 0.637826 0.937556
vt 0.575382 0.937556
vt 0.575382 0.750046
vt 0.637826 0.687602
vt 0.637826 0.500092
vt 0.937556 0.500092
vt 0.937556 0.687602
vt 1.000000 0.750046
vt 1.000000 0.937556
vt 0.937556 0.937556
vt 0.937556 0.750046
vt 0.937556 1.000000
vt 0.637826 1.000000
vt 1.000000 0.750046
vt 1.000000 0.937556
vt 0.937556 0.937556
vt 0.937556 0.750046
vt 0.637826 0.937556
vt 0.637826 0.750046
vt 0.575382 0.937556
vt 0.575382 0.750046
vt 0.637826 0.687602
vt 0.637826 0.500092
vt 0.937556 0.500092
vt 0.937556 0.687602
vt 0.937556 1.000000
vt 0.637826 1.000000
vt 0.051395 0.289109
vt 0.069292 0.255431
vt 0.084240 0.246065
vt 0.076987 0.187016
vt 0.096428 0.196312
vt 0.176155 0.244039
vt 0.191735 0.241627
vt 0.156383 0.196685
vt 0.069733 0.210295
vt 0.062349 0.279584
vt 0.193920 0.177806
vt 0.293899 0.181250
vt 0.051183 0.206234
vt 0.184607 0.197084
vt 0.174184 0.184472
vt 0.281319 0.177816
vt 0.178358 0.177699
vt 0.202337 0.190319
vt 0.061887 0.191752
vt 0.158165 0.176629
vt 0.189678 0.177487
vt 0.091701 0.176629
vt 0.398221 0.599207
vt 0.485364 0.600491
vn -0.9990 -0.0000 0.0453
vn -0.0453 -0.0042 -0.9990
vn 0.9990 0.0000 -0.0453
vn 0.0453 0.0042 0.9990
vn 0.0002 -1.0000 0.0042
vn -0.0002 1.0000 -0.0042
vn -0.9929 0.1049 0.0568
vn -0.0441 0.2266 -0.9730
vn 0.9939 0.1049 -0.0333
vn 0.0453 -0.0172 0.9988
vn -0.0453 -0.0077 -0.9989
vn 0.0453 0.0077 0.9989
vn 0.0003 -1.0000 0.0076
vn -0.0003 1.0000 -0.0076
vn 0.0025 0.9985 0.0554
vn -0.0050 -0.9938 -0.1107
vn 0.0450 -0.1108 0.9928
vn -0.9698 0.0318 -0.2419
vn -0.9884 0.0217 -0.1503
vn -0.0138 -0.9528 -0.3032
vn -0.0121 0.9639 -0.2660
vn 0.9439 0.0318 -0.3287
vn -0.0450 0.1108 -0.9928
vn -0.0095 -0.9779 -0.2089
vn 0.9707 0.0217 -0.2391
vn -0.0117 0.9658 -0.2590
vn -0.9881 -0.1315 0.0803
vn -0.0405 -0.4506 -0.8918
vn 0.9913 -0.1315 -0.0095
vn 0.0446 0.1815 0.9824
vn 0.0007 -0.9999 0.0146
vn -0.9880 -0.1342 0.0759
vn -0.0402 -0.4135 -0.9096
vn 0.9913 -0.1308 -0.0133
vn 0.0443 0.1430 0.9887
vn 0.0000 -1.0000 0.0000
vn 0.0390 -0.5092 0.8598
vn -0.0390 0.5107 -0.8589
vn 0.0399 -0.4957 0.8676
vn 0.9990 0.0029 -0.0449
vn -0.0399 0.4956 -0.8676
vn -0.9990 -0.0029 0.0449
vn 0.0453 -0.0315 0.9985
vn 0.9986 0.0311 -0.0427
vn -0.0451 0.0942 -0.9945
vn -0.9984 0.0311 0.0479
vn 0.1107 0.0048 0.9938
vn -0.9936 -0.0202 0.1108
vn -0.1107 -0.0048 -0.9938
vn 0.9936 0.0202 -0.1108
vn 0.0206 -0.9998 0.0026
vn -0.0206 0.9998 -0.0026
vn -0.0203 0.0048 0.9998
vn -0.9996 0.0202 -0.0204
vn 0.0203 -0.0048 -0.9998
vn 0.9996 -0.0202 0.0204
vn -0.0203 -0.9998 0.0044
vn 0.0203 0.9998 -0.0044
vn -0.9871 0.1256 0.0991
vn 0.9295 0.1537 0.3353
vn 0.9920 0.1256 0.0093
vn 0.0392 -0.5015 0.8642
vn -0.9872 0.1242 0.0997
vn -0.0011 0.9997 -0.0253
vn 0.9919 0.1264 0.0103
vn 0.0396 -0.4943 0.8684
vn -0.8965 0.1556 0.4148
vn -0.0007 1.0000 -0.0045
vn 0.9304 0.1556 0.3319
vn -0.8954 0.1534 0.4180
vn -0.0396 0.4861 -0.8730
vn -0.0393 0.4989 -0.8658
vn -0.0032 -0.9976 -0.0698
usemtl Material
s off
f 1/1/1 2/2/1 4/3/1 3/4/1
f 3/5/2 4/6/2 8/7/2 7/8/2
f 7/9/3 8/10/3 6/11/3 5/12/3
f 5/13/4 6/14/4 2/15/4 1/16/4
f 3/17/5 7/18/5 5/13/5 1/16/5
f 8/7/6 4/6/6 2/15/6 6/14/6
f 65/19/7 10/20/7 12/21/7 66/22/7
f 66/22/8 12/21/8 16/23/8 67/24/8
f 67/24/9 16/23/9 14/25/9 68/26/9
f 68/26/10 14/25/10 10/27/10 65/28/10
f 17/29/1 18/30/1 20/31/1 19/32/1
f 19/33/11 20/34/11 24/35/11 23/36/11
f 23/36/3 24/35/3 22/37/3 21/38/3
f 21/38/12 22/37/12 18/30/12 17/29/12
f 19/39/13 23/40/13 21/38/13 17/29/13
f 24/41/14 20/42/14 18/30/14 22/37/14
f 28/43/15 26/44/15 25/45/15 27/46/15
f 32/47/16 31/48/16 29/49/16 30/50/16
f 27/51/3 31/52/3 32/53/3 28/54/3
f 26/55/1 30/56/1 29/57/1 25/58/1
f 25/45/17 29/59/17 31/60/17 27/46/17
f 26/55/18 33/61/18 35/62/18 30/56/18
f 33/61/19 37/63/19 39/64/19 35/62/19
f 30/50/20 35/65/20 36/66/20 32/47/20
f 28/43/21 34/67/21 33/68/21 26/44/21
f 32/53/22 36/69/22 34/70/22 28/54/22
f 38/71/23 40/72/23 39/73/23 37/74/23
f 35/65/24 39/75/24 40/76/24 36/66/24
f 36/69/25 40/77/25 38/78/25 34/70/25
f 34/67/26 38/71/26 37/74/26 33/68/26
f 57/79/27 42/80/27 44/81/27 58/82/27
f 58/82/28 44/81/28 48/83/28 59/84/28
f 59/84/29 48/83/29 46/85/29 60/86/29
f 60/86/30 46/85/30 42/87/30 57/88/30
f 43/89/31 47/90/31 45/91/31 41/92/31
f 61/93/32 50/94/32 52/95/32 62/96/32
f 62/96/33 52/95/33 56/97/33 63/98/33
f 63/98/34 56/97/34 54/99/34 64/100/34
f 64/101/35 54/102/35 50/94/35 61/93/35
f 51/103/36 55/104/36 53/105/36 49/106/36
f 87/107/37 60/86/37 57/88/37 88/108/37
f 86/109/3 59/84/3 60/86/3 87/107/3
f 85/110/38 58/82/38 59/84/38 86/109/38
f 88/111/1 57/79/1 58/82/1 85/110/1
f 91/112/39 64/101/39 61/93/39 92/113/39
f 90/114/40 63/98/40 64/100/40 91/115/40
f 89/116/41 62/96/41 63/98/41 90/114/41
f 92/113/42 61/93/42 62/96/42 89/116/42
f 13/117/43 68/26/43 65/28/43 9/118/43
f 15/119/44 67/24/44 68/26/44 13/117/44
f 11/120/45 66/22/45 67/24/45 15/119/45
f 9/121/46 65/19/46 66/22/46 11/120/46
f 69/122/47 70/123/47 72/124/47 71/125/47
f 71/126/48 72/127/48 76/128/48 75/129/48
f 75/130/49 76/131/49 74/132/49 73/133/49
f 73/133/50 74/132/50 70/123/50 69/122/50
f 71/126/51 75/129/51 73/133/51 69/122/51
f 76/134/52 72/135/52 70/123/52 74/132/52
f 77/136/53 78/137/53 80/138/53 79/139/53
f 79/139/54 80/138/54 84/140/54 83/141/54
f 83/141/55 84/140/55 82/142/55 81/143/55
f 81/144/56 82/145/56 78/146/56 77/147/56
f 79/139/57 83/141/57 81/144/57 77/147/57
f 84/140/58 80/138/58 78/148/58 82/149/58
f 41/150/59 88/111/59 85/110/59 43/151/59
f 90/114/60 55/152/60 99/153/60 100/154/60
f 47/155/61 86/109/61 87/107/61 45/91/61
f 45/91/62 87/107/62 88/108/62 41/92/62
f 49/106/63 92/113/63 89/116/63 51/156/63
f 85/110/64 86/109/64 96/157/64 93/158/64
f 55/152/65 90/114/65 91/115/65 53/159/65
f 53/105/66 91/112/66 92/113/66 49/106/66
f 55/104/36 51/103/36 98/160/36 99/161/36
f 43/151/67 85/110/67 93/158/67 94/162/67
f 89/116/68 90/114/68 100/154/68 97/163/68
f 86/109/69 47/155/69 95/164/69 96/157/69
f 47/90/31 43/89/31 94/165/31 95/166/31
f 51/156/70 89/116/70 97/163/70 98/167/70
f 94/168/71 93/158/71 96/157/71 95/169/71
f 98/170/72 97/163/72 100/154/72 99/171/72
f 11/120/73 15/119/73 13/172/73 9/173/73
