# Blender v2.82 (sub 7) OBJ File: 'sheep.blend'
# www.blender.org
mtllib sheepDavES.mtl
o sheep.DavEs_sheep.002
v -2.085106 0.190741 0.787235
v -2.085106 -0.809258 -1.212766
v -2.085106 -0.809259 0.787234
v -2.085106 0.190742 -1.212765
v -1.085106 -0.809259 0.787234
v -1.085106 -4.809258 -1.212766
v -1.085106 -4.809259 0.787234
v -1.085106 -0.809258 -1.212766
v -1.085106 0.190741 1.787235
v -1.085106 -0.809259 1.787234
v -1.085106 0.190741 0.787235
v -1.085106 0.190742 -1.212765
v -1.085106 -0.809258 -2.212766
v -1.085106 0.190742 -2.212765
v -0.085106 -0.809259 1.787234
v -0.085106 -1.809259 0.787234
v -0.085106 -1.809259 1.787234
v -0.085106 -0.809259 0.787234
v 0.914894 -4.809259 0.787234
v 0.914894 -4.809258 -1.212766
v 0.914894 -1.809259 0.787234
v 0.914894 -1.809258 -1.212766
v 0.914894 -1.809259 1.787234
v 0.914894 0.190741 1.787235
v 0.914894 0.190741 0.787235
v 0.914894 -0.809258 -1.212766
v 0.914894 -0.809258 -2.212766
v 0.914894 0.190742 -1.212765
v 0.914894 0.190742 -2.212765
v 1.914894 -1.809259 0.787234
v 1.914894 -1.809258 -1.212766
v 1.914894 0.190741 0.787235
v 1.914894 0.190742 -1.212765
v -0.085106 -0.809259 1.787234
v -1.085106 0.190741 1.787235
v -1.085106 -0.809259 1.787234
v 0.914894 -1.809259 1.787234
v -0.085106 -1.809259 1.787234
v 0.914894 0.190741 1.787235
v -2.085106 0.190741 0.787235
v -1.085106 -0.809259 0.787234
v -2.085106 -0.809259 0.787234
v -1.085106 0.190741 0.787235
v -0.085106 -1.809259 0.787234
v -1.085106 -4.809259 0.787234
v -0.085106 -0.809259 0.787234
v 0.914894 -4.809259 0.787234
v 0.914894 -1.809259 0.787234
v 0.914894 0.190741 0.787235
v 1.914894 -1.809259 0.787234
v 1.914894 0.190741 0.787235
v -2.085106 -0.809258 -1.212766
v -2.085106 0.190742 -1.212765
v -1.085106 -0.809258 -1.212766
v -1.085106 0.190742 -1.212765
v -1.085106 -4.809258 -1.212766
v 0.914894 -4.809258 -1.212766
v 0.914894 -1.809258 -1.212766
v 0.914894 -0.809258 -1.212766
v 1.914894 -1.809258 -1.212766
v 0.914894 0.190742 -1.212765
v 1.914894 0.190742 -1.212765
v -1.085106 -0.809258 -2.212766
v -1.085106 0.190742 -2.212765
v 0.914894 -0.809258 -2.212766
v 0.914894 0.190742 -2.212765
v -1.085106 -4.809258 -1.212766
v 0.914894 -4.809259 0.787234
v -1.085106 -4.809259 0.787234
v 0.914894 -4.809258 -1.212766
v -0.085106 -1.809259 0.787234
v 0.914894 -1.809259 1.787234
v -0.085106 -1.809259 1.787234
v 0.914894 -1.809259 0.787234
v 0.914894 -1.809258 -1.212766
v 1.914894 -1.809259 0.787234
v 1.914894 -1.809258 -1.212766
v -1.085106 -0.809259 0.787234
v -0.085106 -0.809259 1.787234
v -1.085106 -0.809259 1.787234
v -0.085106 -0.809259 0.787234
v -2.085106 -0.809258 -1.212766
v -2.085106 -0.809259 0.787234
v -1.085106 -0.809258 -1.212766
v -1.085106 -0.809258 -2.212766
v 0.914894 -0.809258 -1.212766
v 0.914894 -0.809258 -2.212766
v -1.085106 0.190741 1.787235
v 0.914894 0.190741 1.787235
v -1.085106 0.190741 0.787235
v 0.914894 0.190741 0.787235
v 1.914894 0.190741 0.787235
v 0.914894 0.190742 -1.212765
v 1.914894 0.190742 -1.212765
vt 0.958984 0.500000
vt 0.958984 0.500000
vt 0.958984 0.500000
vt 0.958984 0.500000
vt 0.990234 0.500000
vt 0.990234 0.500000
vt 0.990234 0.500000
vt 0.990234 0.500000
vt 0.958984 0.500000
vt 0.958984 0.500000
vt 0.958984 0.500000
vt 0.958984 0.500000
vt 0.958984 0.500000
vt 0.958984 0.500000
vt 0.958984 0.500000
vt 0.958984 0.500000
vt 0.958984 0.500000
vt 0.958984 0.500000
vt 0.958984 0.500000
vt 0.958984 0.500000
vt 0.990234 0.500000
vt 0.990234 0.500000
vt 0.990234 0.500000
vt 0.990234 0.500000
vt 0.958984 0.500000
vt 0.958984 0.500000
vt 0.958984 0.500000
vt 0.958984 0.500000
vt 0.958984 0.500000
vt 0.958984 0.500000
vt 0.958984 0.500000
vt 0.958984 0.500000
vt 0.958984 0.500000
vt 0.958984 0.500000
vt 0.958984 0.500000
vt 0.958984 0.500000
vt 0.958984 0.500000
vt 0.958984 0.500000
vt 0.958984 0.500000
vt 0.958984 0.500000
vt 0.958984 0.500000
vt 0.958984 0.500000
vt 0.958984 0.500000
vt 0.958984 0.500000
vt 0.958984 0.500000
vt 0.958984 0.500000
vt 0.990234 0.500000
vt 0.990234 0.500000
vt 0.990234 0.500000
vt 0.990234 0.500000
vt 0.990234 0.500000
vt 0.990234 0.500000
vt 0.958984 0.500000
vt 0.958984 0.500000
vt 0.958984 0.500000
vt 0.958984 0.500000
vt 0.958984 0.500000
vt 0.958984 0.500000
vt 0.958984 0.500000
vt 0.958984 0.500000
vt 0.990234 0.500000
vt 0.990234 0.500000
vt 0.990234 0.500000
vt 0.990234 0.500000
vt 0.990234 0.500000
vt 0.958984 0.500000
vt 0.958984 0.500000
vt 0.958984 0.500000
vt 0.958984 0.500000
vt 0.958984 0.500000
vt 0.958984 0.500000
vt 0.958984 0.500000
vt 0.958984 0.500000
vt 0.958984 0.500000
vt 0.990234 0.500000
vt 0.990234 0.500000
vt 0.990234 0.500000
vt 0.990234 0.500000
vt 0.958984 0.500000
vt 0.958984 0.500000
vt 0.958984 0.500000
vt 0.958984 0.500000
vt 0.958984 0.500000
vt 0.958984 0.500000
vt 0.958984 0.500000
vt 0.958984 0.500000
vt 0.958984 0.500000
vt 0.958984 0.500000
vt 0.958984 0.500000
vt 0.958984 0.500000
vt 0.958984 0.500000
vt 0.958984 0.500000
vt 0.958984 0.500000
vt 0.958984 0.500000
vt 0.958984 0.500000
vt 0.958984 0.500000
vt 0.958984 0.500000
vt 0.958984 0.500000
vt 0.958984 0.500000
vt 0.958984 0.500000
vt 0.958984 0.500000
vt 0.958984 0.500000
vn -1.0000 0.0000 0.0000
vn 1.0000 0.0000 0.0000
vn 0.0000 -0.0000 1.0000
vn 0.0000 0.0000 -1.0000
vn 0.0000 -1.0000 -0.0000
vn 0.0000 1.0000 0.0000
usemtl palette
s 1
f 1/1/1 2/2/1 3/3/1
f 4/4/1 2/2/1 1/1/1
f 5/5/1 6/6/1 7/7/1
f 8/8/1 6/6/1 5/5/1
f 9/9/1 5/10/1 10/11/1
f 11/12/1 5/10/1 9/9/1
f 12/13/1 13/14/1 8/15/1
f 14/16/1 13/14/1 12/13/1
f 15/17/1 16/18/1 17/19/1
f 18/20/1 16/18/1 15/17/1
f 19/21/2 20/22/2 21/23/2
f 21/23/2 20/22/2 22/24/2
f 23/25/2 21/26/2 24/27/2
f 24/27/2 21/26/2 25/28/2
f 26/29/2 27/30/2 28/31/2
f 28/31/2 27/30/2 29/32/2
f 30/33/2 31/34/2 32/35/2
f 32/35/2 31/34/2 33/36/2
f 34/37/3 35/38/3 36/39/3
f 37/40/3 34/37/3 38/41/3
f 39/42/3 35/38/3 34/37/3
f 39/42/3 34/37/3 37/40/3
f 41/43/3 40/44/3 42/45/3
f 43/46/3 40/44/3 41/43/3
f 44/47/3 41/48/3 45/49/3
f 46/50/3 41/48/3 44/47/3
f 47/51/3 44/47/3 45/49/3
f 48/52/3 44/47/3 47/51/3
f 50/53/3 49/54/3 48/55/3
f 51/56/3 49/54/3 50/53/3
f 52/57/4 53/58/4 54/59/4
f 54/59/4 53/58/4 55/60/4
f 56/61/4 54/62/4 57/63/4
f 57/63/4 54/62/4 58/64/4
f 58/64/4 54/62/4 59/65/4
f 58/66/4 59/67/4 60/68/4
f 59/67/4 61/69/4 60/68/4
f 60/68/4 61/69/4 62/70/4
f 63/71/4 64/72/4 65/73/4
f 65/73/4 64/72/4 66/74/4
f 67/75/5 68/76/5 69/77/5
f 70/78/5 68/76/5 67/75/5
f 71/79/5 72/80/5 73/81/5
f 74/82/5 72/80/5 71/79/5
f 75/83/5 76/84/5 74/82/5
f 77/85/5 76/84/5 75/83/5
f 78/86/5 79/87/5 80/88/5
f 81/89/5 79/87/5 78/86/5
f 82/90/5 78/86/5 83/91/5
f 84/92/5 78/86/5 82/90/5
f 85/93/5 86/94/5 84/92/5
f 87/95/5 86/94/5 85/93/5
f 88/96/6 89/97/6 90/98/6
f 90/98/6 89/97/6 91/99/6
f 91/99/6 92/100/6 93/101/6
f 93/101/6 92/100/6 94/102/6
