# Blender v2.82 (sub 7) OBJ File: 'sheep.blend'
# www.blender.org
mtllib sheepDarDR.mtl
o sheep.DarDr_sheep.001
v -1.914894 0.304557 1.212766
v -1.914894 -1.695443 -0.787234
v -1.914894 -1.695443 1.212766
v -1.914894 0.304557 -0.787234
v -0.914894 -1.695443 1.212766
v -0.914894 -4.695443 -0.787235
v -0.914894 -4.695443 1.212765
v -0.914894 -1.695443 -0.787234
v -0.914894 0.304557 2.212766
v -0.914894 -0.695443 1.212766
v -0.914894 -0.695443 2.212766
v -0.914894 0.304557 1.212766
v -0.914894 0.304557 -0.787234
v -0.914894 -1.695442 -1.787234
v -0.914894 0.304557 -1.787234
v 0.085106 -1.695443 -0.787234
v 0.085106 -1.695442 -1.787234
v 0.085106 -0.695443 -0.787234
v 0.085106 -0.695442 -1.787234
v 1.085106 -4.695443 1.212765
v 1.085106 -4.695443 -0.787235
v 1.085106 -0.695443 1.212766
v 1.085106 -0.695443 -0.787234
v 1.085106 -0.695443 2.212766
v 1.085106 0.304557 2.212766
v 1.085106 0.304557 1.212766
v 1.085106 -0.695442 -1.787234
v 1.085106 0.304557 -0.787234
v 1.085106 0.304557 -1.787234
v 2.085106 -0.695443 1.212766
v 2.085106 -0.695443 -0.787234
v 2.085106 0.304557 1.212766
v 2.085106 0.304557 -0.787234
v 1.085106 -0.695443 2.212766
v -0.914894 0.304557 2.212766
v -0.914894 -0.695443 2.212766
v 1.085106 0.304557 2.212766
v -0.914894 -1.695443 1.212766
v -1.914894 0.304557 1.212766
v -1.914894 -1.695443 1.212766
v -0.914894 -0.695443 1.212766
v -0.914894 0.304557 1.212766
v 1.085106 -4.695443 1.212765
v -0.914894 -4.695443 1.212765
v 1.085106 -0.695443 1.212766
v 2.085106 -0.695443 1.212766
v 1.085106 0.304557 1.212766
v 2.085106 0.304557 1.212766
v -1.914894 -1.695443 -0.787234
v -1.914894 0.304557 -0.787234
v -0.914894 -1.695443 -0.787234
v -0.914894 0.304557 -0.787234
v -0.914894 -4.695443 -0.787235
v 0.085106 -1.695443 -0.787234
v 1.085106 -4.695443 -0.787235
v 0.085106 -0.695443 -0.787234
v 1.085106 -0.695443 -0.787234
v 1.085106 0.304557 -0.787234
v 2.085106 -0.695443 -0.787234
v 2.085106 0.304557 -0.787234
v -0.914894 -1.695442 -1.787234
v -0.914894 0.304557 -1.787234
v 0.085106 -1.695442 -1.787234
v 0.085106 -0.695442 -1.787234
v 1.085106 -0.695442 -1.787234
v 1.085106 0.304557 -1.787234
v -0.914894 -4.695443 -0.787235
v 1.085106 -4.695443 1.212765
v -0.914894 -4.695443 1.212765
v 1.085106 -4.695443 -0.787235
v -1.914894 -1.695443 -0.787234
v -0.914894 -1.695443 1.212766
v -1.914894 -1.695443 1.212766
v -0.914894 -1.695443 -0.787234
v -0.914894 -1.695442 -1.787234
v 0.085106 -1.695443 -0.787234
v 0.085106 -1.695442 -1.787234
v -0.914894 -0.695443 1.212766
v 1.085106 -0.695443 2.212766
v -0.914894 -0.695443 2.212766
v 1.085106 -0.695443 1.212766
v 1.085106 -0.695443 -0.787234
v 2.085106 -0.695443 1.212766
v 2.085106 -0.695443 -0.787234
v 0.085106 -0.695442 -1.787234
v 0.085106 -0.695443 -0.787234
v 1.085106 -0.695442 -1.787234
v -1.914894 0.304557 1.212766
v -0.914894 0.304557 1.212766
v -1.914894 0.304557 -0.787234
v -0.914894 0.304557 -0.787234
v 1.085106 0.304557 -0.787234
v -0.914894 0.304557 -1.787234
v 1.085106 0.304557 -1.787234
vt 0.958984 0.500000
vt 0.958984 0.500000
vt 0.958984 0.500000
vt 0.958984 0.500000
vt 0.990234 0.500000
vt 0.990234 0.500000
vt 0.990234 0.500000
vt 0.990234 0.500000
vt 0.958984 0.500000
vt 0.958984 0.500000
vt 0.958984 0.500000
vt 0.958984 0.500000
vt 0.958984 0.500000
vt 0.958984 0.500000
vt 0.958984 0.500000
vt 0.958984 0.500000
vt 0.958984 0.500000
vt 0.958984 0.500000
vt 0.958984 0.500000
vt 0.958984 0.500000
vt 0.990234 0.500000
vt 0.990234 0.500000
vt 0.990234 0.500000
vt 0.990234 0.500000
vt 0.958984 0.500000
vt 0.958984 0.500000
vt 0.958984 0.500000
vt 0.958984 0.500000
vt 0.958984 0.500000
vt 0.958984 0.500000
vt 0.958984 0.500000
vt 0.958984 0.500000
vt 0.958984 0.500000
vt 0.958984 0.500000
vt 0.958984 0.500000
vt 0.958984 0.500000
vt 0.958984 0.500000
vt 0.958984 0.500000
vt 0.958984 0.500000
vt 0.958984 0.500000
vt 0.958984 0.500000
vt 0.958984 0.500000
vt 0.958984 0.500000
vt 0.958984 0.500000
vt 0.958984 0.500000
vt 0.990234 0.500000
vt 0.990234 0.500000
vt 0.990234 0.500000
vt 0.990234 0.500000
vt 0.990234 0.500000
vt 0.958984 0.500000
vt 0.958984 0.500000
vt 0.958984 0.500000
vt 0.958984 0.500000
vt 0.958984 0.500000
vt 0.958984 0.500000
vt 0.958984 0.500000
vt 0.958984 0.500000
vt 0.990234 0.500000
vt 0.990234 0.500000
vt 0.990234 0.500000
vt 0.990234 0.500000
vt 0.990234 0.500000
vt 0.990234 0.500000
vt 0.958984 0.500000
vt 0.958984 0.500000
vt 0.958984 0.500000
vt 0.958984 0.500000
vt 0.958984 0.500000
vt 0.958984 0.500000
vt 0.958984 0.500000
vt 0.958984 0.500000
vt 0.958984 0.500000
vt 0.958984 0.500000
vt 0.990234 0.500000
vt 0.990234 0.500000
vt 0.990234 0.500000
vt 0.990234 0.500000
vt 0.958984 0.500000
vt 0.958984 0.500000
vt 0.958984 0.500000
vt 0.958984 0.500000
vt 0.958984 0.500000
vt 0.958984 0.500000
vt 0.958984 0.500000
vt 0.958984 0.500000
vt 0.958984 0.500000
vt 0.958984 0.500000
vt 0.958984 0.500000
vt 0.958984 0.500000
vt 0.958984 0.500000
vt 0.958984 0.500000
vt 0.958984 0.500000
vt 0.958984 0.500000
vt 0.958984 0.500000
vt 0.958984 0.500000
vt 0.958984 0.500000
vt 0.958984 0.500000
vt 0.958984 0.500000
vt 0.958984 0.500000
vt 0.958984 0.500000
vt 0.958984 0.500000
vn -1.0000 -0.0000 0.0000
vn 1.0000 -0.0000 0.0000
vn 0.0000 -0.0000 1.0000
vn 0.0000 0.0000 -1.0000
vn 0.0000 -1.0000 -0.0000
vn 0.0000 1.0000 0.0000
usemtl palette
s 1
f 1/1/1 2/2/1 3/3/1
f 4/4/1 2/2/1 1/1/1
f 5/5/1 6/6/1 7/7/1
f 8/8/1 6/6/1 5/5/1
f 9/9/1 10/10/1 11/11/1
f 12/12/1 10/10/1 9/9/1
f 13/13/1 14/14/1 8/15/1
f 15/16/1 14/14/1 13/13/1
f 16/17/2 17/18/2 18/19/2
f 18/19/2 17/18/2 19/20/2
f 20/21/2 21/22/2 22/23/2
f 22/23/2 21/22/2 23/24/2
f 24/25/2 22/26/2 25/27/2
f 25/27/2 22/26/2 26/28/2
f 23/29/2 27/30/2 28/31/2
f 28/31/2 27/30/2 29/32/2
f 30/33/2 31/34/2 32/35/2
f 32/35/2 31/34/2 33/36/2
f 34/37/3 35/38/3 36/39/3
f 37/40/3 35/38/3 34/37/3
f 38/41/3 39/42/3 40/43/3
f 41/44/3 39/42/3 38/41/3
f 42/45/3 39/42/3 41/44/3
f 43/46/3 38/47/3 44/48/3
f 43/46/3 41/49/3 38/47/3
f 45/50/3 41/49/3 43/46/3
f 46/51/3 47/52/3 45/53/3
f 48/54/3 47/52/3 46/51/3
f 49/55/4 50/56/4 51/57/4
f 51/57/4 50/56/4 52/58/4
f 53/59/4 51/60/4 54/61/4
f 53/59/4 54/61/4 55/62/4
f 54/61/4 56/63/4 55/62/4
f 55/62/4 56/63/4 57/64/4
f 57/65/4 58/66/4 59/67/4
f 59/67/4 58/66/4 60/68/4
f 61/69/4 62/70/4 63/71/4
f 63/71/4 62/70/4 64/72/4
f 64/72/4 62/70/4 65/73/4
f 65/73/4 62/70/4 66/74/4
f 67/75/5 68/76/5 69/77/5
f 70/78/5 68/76/5 67/75/5
f 71/79/5 72/80/5 73/81/5
f 74/82/5 72/80/5 71/79/5
f 75/83/5 76/84/5 74/82/5
f 77/85/5 76/84/5 75/83/5
f 78/86/5 79/87/5 80/88/5
f 81/89/5 79/87/5 78/86/5
f 82/90/5 83/91/5 81/89/5
f 84/92/5 83/91/5 82/90/5
f 85/93/5 82/90/5 86/94/5
f 87/95/5 82/90/5 85/93/5
f 88/96/6 89/97/6 90/98/6
f 90/98/6 89/97/6 91/99/6
f 91/99/6 92/100/6 93/101/6
f 93/101/6 92/100/6 94/102/6
